SplineFontDB: 3.0
FontName: Viravong
FullName: Viravong
FamilyName: Viravong
Weight: Regular
Copyright: Viravong, Lao Pali font based on Sanit Phokhaphan's LaneXang_Mon.\nCopyright (c) 2018, Theppitak Karoonboonyanan.\n\nLaneXang_Mon - font for the Laotian language of Laos.\nCopyright (c) 2013, Sanit Phokhaphan.\n
UComments: "2018-9-3: Created with FontForge (http://fontforge.org)"
Version: 001.000
ItalicAngle: 0
UnderlinePosition: -100
UnderlineWidth: 50
Ascent: 800
Descent: 200
InvalidEm: 0
LayerCount: 2
Layer: 0 0 "Back" 1
Layer: 1 0 "Fore" 0
XUID: [1021 642 1126272861 3024291]
FSType: 0
OS2Version: 0
OS2_WeightWidthSlopeOnly: 0
OS2_UseTypoMetrics: 1
CreationTime: 1535951478
ModificationTime: 1536653304
PfmFamily: 17
TTFWeight: 400
TTFWidth: 5
LineGap: 90
VLineGap: 0
OS2TypoAscent: 0
OS2TypoAOffset: 1
OS2TypoDescent: 0
OS2TypoDOffset: 1
OS2TypoLinegap: 90
OS2WinAscent: 0
OS2WinAOffset: 1
OS2WinDescent: 0
OS2WinDOffset: 1
HheadAscent: 0
HheadAOffset: 1
HheadDescent: 0
HheadDOffset: 1
OS2Vendor: 'PfEd'
MarkAttachClasses: 1
DEI: 91125

StartChar: uni0E81
Encoding: 3713 3713 0
Width: 707
VWidth: 1060
Flags: W
HStem: -1 56<98.4052 167.176> 128 46<99.126 158.836> 397 55<68.3178 159> 510 67<322.625 497.74> 529 48<67.7492 148.403>
VStem: 13 50<457.731 522.06> 49 45<59.4521 122.717> 159 78<172 400> 171 66<60.1719 124.47> 530 77<65 481.001>
LayerCount: 2
Back
SplineSet
159 457 m 1
 159 473 157 485 154 494 c 0
 147 518 134 529 116 529 c 0
 104 529 93 527 84 523 c 1
 76 517 70 511 66 503 c 1
 63 492 l 1
 63 481 67 473 74 466 c 0
 82 457 94 452 112 452 c 2
 129 452 l 1
 137 453 l 1
 159 457 l 1
133 128 m 0
 123 128 114 124 106 117 c 128
 98 110 94 102 94 92 c 0
 94 82 98 73 106 66 c 128
 114 59 123 55 133 55 c 0
 144 55 153 59 160 66 c 128
 167 73 171 82 171 92 c 0
 171 102 167 110 160 117 c 128
 153 124 144 128 133 128 c 0
159 400 m 1
 124 397 l 2
 112 397 100 398 87 401 c 128
 74 404 66 406 62 408 c 128
 58 410 52 413 46 418 c 0
 35 425 28 434 22 446 c 128
 16 458 13 471 13 487 c 0
 13 502 15 515 19 524 c 0
 26 539 38 552 55 562 c 128
 72 572 92 577 117 577 c 0
 149 577 177 568 199 549 c 1
 207 540 212 531 216 523 c 128
 220 515 224 506 227 497 c 1
 262 529 294 551 321 563 c 1
 346 572 374 577 404 577 c 0
 460 577 508 565 548 541 c 128
 588 517 608 487 608 452 c 2
 607 67 l 1
 604 52 597 30 584 0 c 1
 498 0 l 1
 530 65 l 1
 531 428 l 1
 534 453 524 472 500 487 c 128
 476 502 445 510 406 510 c 0
 384 510 356 503 322 488 c 128
 288 473 260 453 237 428 c 1
 237 95 l 1
 233 65 222 41 204 24 c 128
 186 7 165 -1 140 -1 c 0
 115 -1 94 7 76 24 c 128
 58 41 49 62 49 86 c 256
 49 110 58 131 76 148 c 128
 94 165 115 174 140 174 c 0
 146 174 151 174 156 173 c 1
 155 174 l 2
 156 173 157 172 158 172 c 2
 159 172 l 1
 159 400 l 1
EndSplineSet
Fore
SplineSet
63 492 m 3xed40
 63 466 84 452 112 452 c 3
 130 452 144 454 159 457 c 1
 159 495 145 529 116 529 c 3
 85 529 63 512 63 492 c 3xed40
171 92 m 3xe2c0
 171 112 153 128 133 128 c 3
 114 128 94 111 94 92 c 3
 94 72 113 55 133 55 c 3
 154 55 171 72 171 92 c 3xe2c0
140 174 m 3
 147 174 153 174 158 172 c 1
 159 172 l 1
 159 400 l 1
 159 400 138 397 124 397 c 3
 59 397 13 424 13 487 c 3
 13 547 56 577 117 577 c 3xed40
 178 577 211 546 227 497 c 1
 282 548 326 577 404 577 c 3
 495 577 608 535 608 452 c 2
 607 67 l 1
 604 52 597 30 584 0 c 1
 498 0 l 1
 530 65 l 1
 531 428 l 2
 531 486 478 510 406 510 c 3xf540
 344 510 271 465 237 428 c 1
 237 95 l 2
 237 48 194 -1 140 -1 c 3
 91 -1 49 37 49 86 c 259
 49 134 91 174 140 174 c 3
EndSplineSet
EndChar

StartChar: uni0E82
Encoding: 3714 3714 1
Width: 628
VWidth: 1063
Flags: W
HStem: -2 71<72.8459 258.22> 62 69<311.425 454.595> 268 79<103.207 220.991> 417 45<160.336 220.696> 507 67<141.953 391.995>
VStem: 1 68<81.4531 114.456 339.593 452.83> 110 47<349.822 414.772> 224 58<350.947 414.238> 455 68<-1.46055 55.9601> 466 63<305.385 444.263>
LayerCount: 2
Back
SplineSet
471 233 m 128
 437 201 403 181 370 170 c 128
 337 159 275 149 186 137 c 1
 109 125 70 112 69 100 c 0
 69 92 78 85 97 78 c 128
 116 71 136 68 158 69 c 128
 180 70 201 72 220 77 c 128
 239 82 269 93 309 111 c 0
 338 124 364 131 384 131 c 0
 398 131 398 131 409 131 c 128
 416 131 427 130 440 127 c 128
 453 124 468 119 483 111 c 0
 509 98 523 80 523 55 c 2
 523 40 l 2
 523 29 522 21 521 18 c 0
 520 12 517 5 511 -2 c 1
 435 -2 l 1
 445 11 l 2
 452 22 455 31 455 37 c 0
 454 41 454 43 453 44 c 0
 448 51 441 56 430 58 c 2
 406 61 l 1
 384 62 l 2
 375 62 355 56 324 44 c 2
 238 7 l 2
 223 1 200 -2 168 -2 c 0
 145 -2 123 1 101 5 c 1
 86 6 72 9 61 14 c 128
 50 19 38 25 28 33 c 0
 10 50 1 71 1 97 c 0
 1 124 11 143 29 154 c 128
 47 165 63 174 78 180 c 128
 93 186 127 192 181 199 c 128
 235 206 285 215 330 226 c 128
 375 237 410 259 435 293 c 128
 460 327 470 359 464 390 c 128
 458 421 448 443 432 457 c 128
 416 471 404 481 394 485 c 128
 384 489 369 494 351 499 c 128
 333 504 304 507 262 507 c 0
 207 507 159 496 121 475 c 1
 85 457 67 431 67 395 c 0
 67 376 71 361 77 351 c 0
 84 341 98 334 118 330 c 1
 112 341 110 355 110 371 c 0
 110 397 118 419 134 436 c 128
 150 453 171 462 196 462 c 0
 219 462 239 453 256 436 c 128
 273 419 282 397 282 371 c 0
 282 354 275 336 261 317 c 128
 247 298 229 286 207 279 c 2
 169 270 l 1
 137 268 l 2
 123 268 109 270 96 274 c 0
 68 283 46 298 29 320 c 128
 12 342 3 368 3 397 c 0
 3 425 10 450 26 475 c 0
 33 486 41 496 51 506 c 128
 61 516 73 526 86 534 c 0
 105 546 130 556 161 563 c 128
 192 570 227 574 263 574 c 0
 312 574 357 569 396 558 c 128
 435 547 466 529 487 504 c 0
 518 466 532 419 528 364 c 128
 524 309 505 265 471 233 c 128
224 382 m 0
 224 390 222 397 217 404 c 0
 210 413 201 417 190 417 c 0
 181 417 174 414 167 407 c 128
 160 400 157 392 157 382 c 0
 157 373 160 365 167 358 c 128
 174 351 181 347 190 347 c 0
 197 347 205 351 214 357 c 1
 221 364 224 373 224 382 c 0
EndSplineSet
Fore
SplineSet
196 462 m 3xbf40
 244 462 282 420 282 371 c 3
 282 311 217 268 137 268 c 3
 61 268 3 323 3 397 c 3
 3 517 124 574 263 574 c 3
 414 574 529 527 529 382 c 3
 529 268 451 197 370 170 c 0
 337 159 258 148 186 137 c 16
 138 130 69 116 69 100 c 3
 69 79 125 69 154 69 c 3xbf40
 263 69 306 131 394 131 c 3x7f40
 463 131 523 108 523 40 c 3
 523 17 522 11 511 -2 c 1
 435 -2 l 1xbf80
 442 8 455 26 455 37 c 3
 455 50 439 62 384 62 c 3x7f80
 318 62 273 -2 168 -2 c 3
 87 -2 1 16 1 97 c 3
 1 171 92 188 181 199 c 0
 235 206 285 215 330 226 c 0
 394 242 466 299 466 372 c 3
 466 481 367 507 262 507 c 3
 175 507 67 477 67 395 c 3
 67 352 80 338 118 330 c 1
 112 341 110 355 110 371 c 3
 110 422 145 462 196 462 c 3xbf40
157 382 m 3
 157 365 173 347 190 347 c 3
 207 347 224 364 224 382 c 3
 224 402 209 417 190 417 c 3
 172 417 157 401 157 382 c 3
EndSplineSet
EndChar

StartChar: uni0E84
Encoding: 3716 3716 2
Width: 676
VWidth: 1059
Flags: W
HStem: -7 61<187.79 256.252> 0 21G<459 546> 130 51<188.423 257.742> 225 54<133.385 235.197> 357 47<141.898 232.998> 519 68<160.37 398.349>
VStem: 3 68<96.0586 262.263 358.582 449.737> 127 57<66.0322 125.367> 239 46<285.018 351.091> 261 53<58.114 126.594> 493 69<26.4537 448.969>
LayerCount: 2
Back
SplineSet
563 82 m 1
 563 72 l 1
 559 57 l 2
 557 48 554 40 552 34 c 128
 550 28 546 17 539 0 c 1
 459 0 l 1
 488 66 l 2
 490 71 491 77 492 85 c 128
 493 93 493 96 493 97 c 2
 493 402 l 2
 493 410 492 418 488 426 c 128
 484 434 477 443 468 453 c 0
 452 471 428 487 396 500 c 128
 364 513 330 519 295 519 c 0
 237 519 185 508 141 488 c 128
 97 468 75 442 75 408 c 1
 74 394 l 1
 73 383 l 1
 75 372 l 1
 77 367 l 1
 84 358 l 1
 97 374 110 384 125 391 c 0
 142 400 164 404 191 404 c 0
 218 404 240 395 258 379 c 128
 276 363 285 341 285 315 c 0
 285 288 276 267 258 251 c 1
 241 233 219 225 193 225 c 0
 171 225 151 228 132 234 c 0
 126 236 119 240 111 246 c 128
 103 252 95 257 88 263 c 1
 77 244 71 220 71 189 c 0
 71 160 75 136 82 117 c 0
 91 91 106 74 130 66 c 1
 127 88 l 1
 127 113 137 135 156 154 c 1
 177 172 200 181 222 181 c 0
 245 181 266 173 285 156 c 128
 304 139 314 116 314 88 c 0
 314 63 305 41 285 22 c 128
 265 3 242 -7 215 -7 c 2
 205 -7 l 1
 200 -7 l 1
 194 -7 l 1
 163 -6 l 1
 147 -4 l 1
 127 0 l 2
 89 7 58 31 34 70 c 0
 13 106 3 147 3 193 c 0
 3 212 5 229 10 244 c 0
 16 265 27 287 43 309 c 1
 32 325 22 341 16 357 c 128
 10 373 7 390 7 407 c 0
 7 458 33 500 86 535 c 128
 139 570 207 587 292 587 c 0
 339 587 383 579 426 564 c 0
 448 556 467 547 482 538 c 128
 497 529 511 517 524 503 c 0
 549 477 562 451 562 426 c 2
 562 97 l 1
 563 82 l 1
239 315 m 0
 239 326 235 336 227 344 c 128
 219 352 209 357 193 357 c 0
 166 357 142 342 121 312 c 1
 142 290 164 279 187 279 c 0
 199 279 211 281 222 287 c 128
 233 293 239 302 239 315 c 0
261 94 m 0
 261 104 258 113 250 119 c 0
 243 126 234 130 223 130 c 0
 213 130 204 126 196 119 c 128
 188 112 184 104 184 94 c 2
 186 79 l 1
 188 74 191 69 195 65 c 0
 202 57 212 54 223 54 c 0
 233 54 241 58 249 65 c 128
 257 72 261 82 261 94 c 0
EndSplineSet
Fore
SplineSet
193 225 m 3x7fa0
 145 225 114 240 88 263 c 1
 77 244 71 220 71 189 c 3
 71 129 87 80 130 66 c 1
 130 66 127 84 127 88 c 3
 127 137 174 181 222 181 c 3
 272 181 314 140 314 88 c 3
 314 25 259 -7 194 -7 c 3xbf60
 64 -7 3 71 3 193 c 3
 3 245 18 274 43 309 c 1
 24 337 7 365 7 407 c 3
 7 529 156 587 292 587 c 3
 420 587 562 519 562 426 c 2
 562 97 l 2
 562 53 553 35 539 0 c 1
 459 0 l 1
 472 29 493 66 493 97 c 2
 493 402 l 2
 493 470 375 519 295 519 c 3
 189 519 74 487 74 394 c 3
 74 377 75 367 84 358 c 1
 109 389 138 404 191 404 c 3
 244 404 285 367 285 315 c 3
 285 263 244 225 193 225 c 3x7fa0
187 279 m 3
 212 279 239 289 239 315 c 3x3fa0
 239 340 220 357 193 357 c 3
 166 357 142 342 121 312 c 1
 142 290 164 279 187 279 c 3
223 54 m 3xbf60
 244 54 261 72 261 94 c 3
 261 115 244 130 223 130 c 3
 204 130 184 113 184 94 c 3
 184 71 198 54 223 54 c 3xbf60
EndSplineSet
EndChar

StartChar: uni0E87
Encoding: 3719 3719 3
Width: 526
VWidth: 1063
Flags: W
HStem: -167 62<21.077 225.436> 329 54<65.7887 133.029> 523 55<112.81 286.304>
VStem: -1 63<387.023 454.423> 137 50<387.382 455.978> 362 74<-8.56445 458.465>
LayerCount: 2
Back
SplineSet
100 460 m 256
 90 460 80 457 73 449 c 128
 66 441 62 432 62 422 c 0
 62 411 66 402 73 394 c 128
 80 386 90 383 100 383 c 256
 110 383 119 386 126 394 c 128
 133 402 137 411 137 422 c 0
 137 432 133 441 126 449 c 128
 119 457 110 460 100 460 c 256
287 -54 m 1
 331 -23 355 10 362 46 c 1
 362 409 l 1
 355 429 348 447 338 462 c 128
 328 477 316 488 299 498 c 1
 280 507 260 514 243 518 c 2
 217 522 l 1
 194 523 l 2
 176 523 161 521 150 518 c 0
 143 517 136 515 129 512 c 0
 123 510 118 507 112 504 c 1
 131 501 147 492 161 479 c 0
 178 462 187 441 187 417 c 0
 187 392 178 371 161 354 c 128
 144 337 123 329 98 329 c 256
 73 329 54 333 40 343 c 128
 26 353 16 364 9 377 c 128
 2 390 -1 409 -1 436 c 0
 -1 456 6 476 18 495 c 128
 30 514 49 530 74 544 c 0
 92 555 113 563 136 569 c 0
 145 571 156 573 169 575 c 128
 182 577 192 578 201 578 c 2
 243 575 l 2
 254 574 263 574 268 573 c 128
 273 572 279 570 289 567 c 1
 307 563 328 555 349 543 c 128
 370 531 387 517 399 502 c 128
 411 487 421 471 427 457 c 128
 433 443 436 427 436 409 c 2
 436 66 l 2
 436 23 426 -13 407 -44 c 0
 385 -81 345 -112 289 -136 c 1
 259 -147 223 -155 181 -162 c 1
 159 -169 99 -168 0 -158 c 1
 1 -75 l 1
 65 -99 l 2
 80 -105 109 -106 152 -104 c 128
 195 -102 240 -85 287 -54 c 1
EndSplineSet
Fore
SplineSet
137 422 m 3
 137 442 120 460 100 460 c 259
 79 460 62 443 62 422 c 3
 62 400 79 383 100 383 c 259
 121 383 137 401 137 422 c 3
187 417 m 3
 187 367 148 329 98 329 c 259
 29 329 -1 366 -1 436 c 3
 -1 527 107 578 201 578 c 3
 318 578 436 524 436 409 c 2
 436 66 l 2
 436 -94 276 -167 132 -167 c 3
 101 -167 57 -164 0 -158 c 1
 1 -75 l 1
 40 -90 61 -105 117 -105 c 3
 207 -105 362 -44 362 46 c 2
 362 409 l 2
 362 462 289 523 194 523 c 3
 157 523 136 516 112 504 c 1
 153 498 187 461 187 417 c 3
EndSplineSet
EndChar

StartChar: uni0E88
Encoding: 3720 3720 4
Width: 673
VWidth: 1060
Flags: W
HStem: 228 51<242.817 311.839> 357 70<76.6074 109.1> 367 47<242.66 315.544> 517 70<133.36 427.449>
VStem: 3 73<431.546 479.043> 187 50<283.816 362.233> 321 73<83.7824 222 286.006 360.725> 482 74<297.518 472.15>
LayerCount: 2
Back
SplineSet
556 417 m 1
 553 382 l 1
 544 327 530 272 510 217 c 128
 490 162 478 119 474 87 c 128
 470 55 463 30 456 14 c 128
 449 -2 429 -7 396 0 c 1
 370 -6 350 15 337 66 c 1
 324 111 319 163 321 222 c 1
 310 231 l 1
 299 229 l 1
 283 228 l 2
 264 228 242 236 220 251 c 128
 198 266 186 290 187 324 c 0
 188 350 198 372 216 389 c 0
 225 396 234 402 246 407 c 128
 258 412 271 414 286 414 c 0
 302 414 313 411 323 405 c 1
 329 404 336 401 340 396 c 2
 356 381 l 1
 379 365 393 332 395 280 c 1
 391 188 396 121 409 80 c 1
 418 129 423 161 425 176 c 128
 427 191 436 218 452 256 c 1
 476 322 485 375 481 414 c 1
 482 439 475 460 459 477 c 1
 440 490 418 501 391 508 c 1
 364 511 l 1
 345 515 l 1
 314 515 l 1
 302 516 l 1
 295 516 l 1
 288 517 l 1
 262 518 l 1
 248 518 l 1
 239 516 l 1
 230 517 l 1
 219 515 l 1
 189 508 l 1
 142 495 l 2
 133 493 119 487 103 479 c 0
 92 473 87 469 85 466 c 0
 79 461 76 456 76 453 c 0
 76 449 78 443 84 438 c 1
 99 430 l 1
 128 427 l 1
 107 357 l 1
 83 360 65 366 53 373 c 0
 42 378 33 385 24 395 c 0
 9 410 2 430 3 455 c 0
 3 471 7 484 14 494 c 0
 17 500 22 505 28 511 c 128
 34 517 42 523 50 529 c 0
 66 540 83 549 102 557 c 128
 121 565 141 572 162 576 c 2
 193 581 l 1
 225 585 l 1
 256 587 l 1
 290 587 l 1
 373 585 438 572 484 548 c 1
 534 520 558 476 556 417 c 1
321 323 m 1
 319 338 l 1
 314 346 l 1
 308 355 l 1
 301 363 291 367 278 367 c 2
 269 367 l 1
 262 365 l 1
 248 355 l 1
 241 346 237 336 237 325 c 0
 237 316 238 310 239 307 c 2
 241 300 l 1
 246 294 l 2
 250 289 255 285 260 283 c 128
 265 281 270 280 276 279 c 0
 288 279 298 283 306 292 c 1
 316 299 321 310 321 323 c 1
EndSplineSet
Fore
SplineSet
474 87 m 0xdf
 468 41 462 -3 422 -3 c 2
 388 -3 l 2
 336 -3 321 130 321 197 c 2
 321 222 l 1
 310 231 l 1
 302 229 293 228 283 228 c 3
 235 228 187 265 187 320 c 3
 187 375 227 414 286 414 c 3
 360 414 394 368 394 222 c 3
 394 159 399 112 409 80 c 1
 434 274 482 264 482 414 c 3xbf
 482 505 380 517 288 517 c 3
 220 517 76 498 76 453 c 3
 76 431 107 429 128 427 c 1
 107 357 l 1
 51 364 3 390 3 450 c 3
 3 555 182 587 290 587 c 3
 431 587 556 546 556 424 c 3
 556 309 486 183 474 87 c 0xdf
321 323 m 3
 321 348 306 367 278 367 c 3
 253 367 237 348 237 325 c 3
 237 297 254 279 276 279 c 3
 299 279 321 299 321 323 c 3
EndSplineSet
EndChar

StartChar: uni0E8A
Encoding: 3722 3722 5
Width: 678
VWidth: 1063
Flags: W
HStem: -8 64<129.887 296.539> 293 49<100.923 172.504> 410 45<125.395 171.382> 508 69<180.04 420.485>
VStem: 23 75<346.825 406.898> 51 78<62.5691 103> 175 60<345.542 405.558> 508 67<-181.142 49.2408> 509 75<276.54 430.63>
LayerCount: 2
Back
SplineSet
137 342 m 0
 147 342 155 344 162 349 c 0
 171 356 176 365 175 376 c 0
 175 386 170 394 163 400 c 128
 156 406 145 410 133 410 c 0
 124 410 115 406 108 399 c 128
 101 392 98 385 98 376 c 0
 99 368 102 360 109 352 c 1
 118 345 127 342 137 342 c 0
434 55 m 1
 389 41 351 27 322 16 c 128
 293 5 262 -3 231 -6 c 128
 200 -9 175 -8 156 -4 c 128
 137 0 122 4 111 8 c 128
 100 12 86 21 70 34 c 0
 57 45 51 62 51 87 c 1
 49 106 67 121 104 131 c 128
 141 141 176 147 210 149 c 128
 244 151 285 158 331 169 c 128
 377 180 417 199 448 227 c 0
 486 261 507 301 509 347 c 128
 511 393 499 428 470 453 c 128
 441 478 409 495 373 502 c 128
 337 509 295 510 247 504 c 128
 199 498 158 482 125 454 c 1
 169 458 199 446 216 419 c 1
 231 403 238 387 234 368 c 1
 235 350 227 333 212 319 c 128
 197 305 180 297 159 295 c 1
 140 290 117 293 90 304 c 128
 63 315 44 333 32 359 c 128
 20 385 20 416 33 451 c 128
 46 486 80 517 135 543 c 128
 190 569 255 580 328 577 c 128
 401 574 457 558 495 529 c 128
 533 500 558 472 568 444 c 128
 578 416 584 384 584 350 c 128
 584 316 573 280 552 244 c 128
 531 208 503 180 466 161 c 0
 436 146 403 131 367 118 c 128
 331 105 287 96 235 91 c 128
 183 86 149 82 136 78 c 128
 123 74 128 69 150 63 c 128
 172 57 193 54 212 57 c 128
 231 60 251 64 270 68 c 128
 289 72 319 83 359 101 c 0
 388 114 414 120 434 120 c 0
 448 120 448 120 459 120 c 128
 466 120 477 120 490 117 c 128
 503 114 518 109 533 101 c 1
 561 91 575 68 575 33 c 128
 575 -2 575 -34 574 -64 c 128
 573 -94 575 -121 581 -143 c 128
 587 -165 595 -183 606 -195 c 1
 527 -214 l 1
 517 -180 511 -151 508 -126 c 128
 505 -101 505 -77 505 -55 c 128
 505 -33 506 -9 508 18 c 128
 510 45 486 57 434 55 c 1
EndSplineSet
Fore
SplineSet
175 373 m 3xfa
 175 396 157 410 133 410 c 3
 115 410 98 394 98 376 c 3
 98 357 118 342 137 342 c 3
 158 342 175 354 175 373 c 3xfa
527 -214 m 1
 510 -157 505 -118 505 -55 c 3
 505 -32 508 -7 508 21 c 3
 508 44 488 55 445 55 c 3
 383 55 317 -8 197 -8 c 3
 94 -8 51 39 51 87 c 3xf7
 51 119 106 142 210 149 c 0
 244 151 285 158 331 169 c 0
 422 191 509 255 509 357 c 3
 509 464 412 508 307 508 c 3
 230 508 170 492 125 454 c 1
 131 455 136 455 141 455 c 3
 187 455 235 422 235 378 c 3
 235 325 195 293 140 293 c 3
 78 293 23 337 23 401 c 3
 23 521 172 577 305 577 c 3
 474 577 584 505 584 350 c 3xfa80
 584 216 469 153 365 118 c 0
 327 105 285 96 235 91 c 0
 188 87 129 83 129 73 c 0
 129 63 184 56 196 56 c 3
 296 56 349 120 459 120 c 3
 518 120 575 94 575 33 c 3xf7
 575 -8 574 -42 574 -78 c 3
 574 -126 584 -171 606 -195 c 1
 527 -214 l 1
EndSplineSet
EndChar

StartChar: uni0E8D
Encoding: 3725 3725 6
Width: 667
VWidth: 1063
Flags: W
HStem: -3 70<163.631 392.655> 243 67<119.689 273.323> 403 52<163.35 229.545> 539 52<163.286 228.586>
VStem: -1 67<132.894 204.839 346.84 485.014> 234 49<459.337 534.816> 479 68<134.669 569.145>
LayerCount: 2
Back
SplineSet
547 159 m 2
 547 138 534 113 509 83 c 0
 488 59 456 38 415 21 c 0
 397 14 377 9 353 4 c 128
 329 -1 305 -3 281 -3 c 0
 271 -3 263 -3 254 -2 c 128
 245 -1 230 0 208 3 c 128
 186 6 164 12 141 20 c 0
 100 35 66 56 39 85 c 128
 12 114 -1 146 -1 180 c 0
 -1 220 21 252 65 274 c 1
 54 281 48 286 45 289 c 2
 24 314 l 1
 6 353 l 2
 5 359 3 365 2 372 c 128
 1 379 0 386 -1 392 c 2
 -1 409 l 1
 1 424 l 1
 1 435 l 1
 5 453 l 1
 8 471 13 487 22 501 c 0
 25 509 29 515 33 520 c 128
 37 525 42 531 50 538 c 0
 62 548 79 560 100 571 c 128
 121 582 150 589 186 591 c 0
 202 591 217 588 232 583 c 1
 252 573 267 557 275 536 c 1
 281 516 l 1
 283 497 l 1
 282 484 l 1
 279 472 l 2
 277 464 274 455 269 446 c 0
 260 433 247 422 230 412 c 1
 207 404 l 1
 194 403 l 1
 177 403 161 408 145 418 c 0
 131 428 119 443 110 460 c 1
 105 480 l 1
 103 499 l 1
 94 495 86 486 80 473 c 0
 70 450 66 426 66 398 c 0
 66 369 79 347 104 332 c 1
 133 317 169 310 212 310 c 1
 273 314 l 1
 273 294 l 1
 273 283 l 1
 275 276 l 1
 280 245 l 1
 235 243 l 1
 189 237 l 2
 179 235 170 234 162 232 c 128
 154 230 142 227 125 221 c 0
 117 218 108 215 101 212 c 128
 94 209 86 205 79 201 c 128
 72 197 68 189 66 178 c 1
 66 151 87 126 127 103 c 0
 148 91 172 83 199 76 c 0
 212 73 227 71 240 69 c 128
 253 67 268 67 285 67 c 0
 322 67 355 73 385 85 c 128
 415 97 438 113 455 133 c 2
 464 143 l 1
 473 158 l 2
 476 164 478 173 479 185 c 1
 479 473 l 2
 479 494 477 513 472 528 c 0
 470 536 467 545 463 556 c 128
 459 567 452 579 444 591 c 1
 526 591 l 1
 541 546 l 1
 546 525 l 1
 547 502 l 1
 547 473 l 1
 547 159 l 2
234 496 m 1
 233 506 l 1
 229 515 l 2
 223 531 213 539 197 539 c 1
 188 538 l 1
 180 535 l 1
 166 528 159 515 159 497 c 2
 159 489 l 1
 161 481 l 1
 168 464 180 455 196 455 c 1
 204 456 l 1
 211 460 l 2
 227 467 234 479 234 496 c 1
EndSplineSet
Fore
SplineSet
479 473 m 2
 479 525 466 558 444 591 c 1
 526 591 l 1
 535 563 547 539 547 502 c 2
 547 159 l 2
 547 71 407 -3 281 -3 c 3
 151 -3 -1 62 -1 180 c 3
 -1 220 21 252 65 274 c 1
 31 296 -1 351 -1 392 c 3
 -1 505 64 591 186 591 c 3
 249 591 283 555 283 497 c 3
 283 444 240 403 194 403 c 3
 139 403 109 445 103 499 c 1
 75 487 66 436 66 398 c 3
 66 329 146 310 212 310 c 27
 236 310 273 314 273 314 c 1
 280 245 l 1
 280 245 253 243 235 243 c 3
 145 243 66 204 66 178 c 3
 66 111 196 67 285 67 c 3
 372 67 479 112 479 185 c 2
 479 473 l 2
196 455 m 3
 219 455 234 474 234 496 c 3
 234 520 219 539 197 539 c 3
 172 539 159 522 159 497 c 3
 159 471 176 455 196 455 c 3
EndSplineSet
EndChar

StartChar: uni0E94
Encoding: 3732 3732 7
Width: 685
VWidth: 1063
Flags: W
HStem: -3 59<136.328 208.605> 138 48<133.171 210.782> 523 68<178.809 413.247>
VStem: 4 70<122.847 436.938> 215 56<62.5446 132.898> 504 70<105.367 446.341>
LayerCount: 2
Back
SplineSet
574 212 m 2
 574 191 574 191 574 170 c 1
 572 158 571 150 570 145 c 2
 563 118 l 1
 560 106 l 1
 554 91 l 2
 547 75 539 61 528 45 c 128
 517 29 503 14 487 0 c 1
 377 -3 l 1
 448 61 l 1
 461 76 472 90 480 103 c 128
 488 116 495 129 498 140 c 128
 501 151 503 158 504 161 c 0
 504 172 504 172 504 177 c 2
 504 370 l 2
 504 414 485 451 449 481 c 1
 428 495 405 505 381 512 c 1
 340 520 l 1
 295 523 l 1
 255 523 217 516 181 501 c 0
 149 489 122 471 103 446 c 128
 84 421 74 396 74 370 c 2
 74 189 l 2
 74 182 74 174 75 165 c 128
 76 156 77 148 79 139 c 1
 87 122 l 1
 88 128 l 1
 89 132 l 1
 95 142 100 150 104 153 c 2
 113 162 l 1
 126 171 l 2
 129 174 137 178 149 181 c 2
 162 185 l 1
 177 186 l 1
 193 183 l 1
 212 179 l 1
 230 172 244 160 254 143 c 0
 255 141 258 137 260 133 c 128
 262 129 264 124 267 117 c 128
 270 110 271 102 271 93 c 0
 271 81 268 69 261 54 c 0
 251 31 235 16 215 8 c 1
 198 3 l 2
 188 -1 179 -3 169 -3 c 0
 153 -3 138 -1 125 3 c 128
 112 7 99 12 87 19 c 128
 75 26 63 35 53 46 c 128
 43 57 33 71 24 87 c 0
 10 116 4 146 4 176 c 2
 3 394 l 1
 3 410 l 1
 6 425 l 2
 6 430 8 439 14 451 c 128
 20 463 28 477 40 492 c 128
 52 507 67 520 84 532 c 128
 101 544 122 555 147 565 c 0
 195 582 245 591 295 591 c 0
 326 591 349 589 365 587 c 128
 381 585 394 583 403 580 c 128
 412 577 418 574 424 573 c 128
 430 572 435 570 439 568 c 0
 462 559 481 548 497 536 c 0
 504 532 511 526 518 520 c 128
 525 514 531 506 538 497 c 0
 550 482 558 466 565 448 c 0
 568 439 571 431 572 423 c 128
 573 415 574 405 574 394 c 2
 574 212 l 2
215 99 m 1
 215 115 206 127 189 136 c 1
 180 137 l 1
 172 138 l 1
 158 136 l 1
 148 132 l 1
 141 128 136 122 133 114 c 0
 130 109 129 105 129 99 c 0
 129 81 137 68 154 60 c 1
 162 57 l 1
 171 56 l 2
 180 56 187 57 193 60 c 128
 199 63 204 70 210 80 c 1
 214 90 l 1
 215 99 l 1
EndSplineSet
Fore
SplineSet
574 394 m 2
 574 170 l 2
 574 113 537 43 487 0 c 1
 377 0 l 1
 426 37 504 107 504 161 c 2
 504 370 l 2
 504 478 405 523 295 523 c 3
 191 523 74 472 74 370 c 2
 74 189 l 2
 74 162 79 140 87 122 c 1
 92 158 140 186 177 186 c 3
 221 186 271 146 271 93 c 3
 271 37 223 -3 169 -3 c 3
 68 -3 4 76 4 176 c 2
 4 410 l 2
 4 519 170 591 295 591 c 3
 442 591 574 528 574 394 c 2
129 99 m 3
 129 82 145 56 171 56 c 3
 199 56 215 78 215 99 c 3
 215 121 199 138 172 138 c 3
 148 138 129 124 129 99 c 3
EndSplineSet
EndChar

StartChar: uni0E95
Encoding: 3733 3733 8
Width: 772
VWidth: 1063
Flags: W
HStem: -3 54<173.722 248.856> 138 46<172.829 249.564> 518 68<126.963 226.127 438.045 537.416>
VStem: 14 79<124.257 479.679> 256 59<57.2041 130.957> 576 81<111.485 470.448>
LayerCount: 2
Back
SplineSet
657 199 m 2
 657 188 656 177 654 168 c 128
 652 159 651 152 650 146 c 128
 649 140 646 130 642 118 c 128
 638 106 635 96 633 89 c 0
 620 62 595 33 558 0 c 1
 435 -3 l 1
 479 33 l 1
 511 60 l 1
 534 83 l 1
 543 91 l 1
 550 101 l 1
 570 137 l 1
 574 149 576 162 576 175 c 2
 576 365 l 2
 576 417 567 455 549 482 c 0
 542 491 535 500 525 507 c 128
 515 514 505 517 494 517 c 0
 475 517 454 509 433 492 c 1
 412 480 392 458 375 428 c 0
 370 418 363 412 356 407 c 128
 349 402 342 400 335 400 c 0
 331 400 325 403 316 407 c 1
 308 413 301 419 297 427 c 0
 277 455 256 477 232 493 c 1
 199 512 l 2
 189 516 180 518 170 518 c 0
 160 518 150 515 140 508 c 0
 133 505 125 496 117 483 c 1
 107 463 l 1
 100 436 l 1
 94 403 l 1
 93 366 l 1
 93 198 l 1
 94 171 l 1
 100 137 l 1
 103 128 l 1
 110 121 l 1
 112 128 l 1
 119 145 132 159 152 170 c 1
 164 175 l 1
 178 181 l 1
 208 184 l 1
 231 183 l 1
 250 177 l 1
 271 169 287 157 296 141 c 0
 298 139 300 136 302 132 c 128
 304 128 307 122 310 115 c 128
 313 108 315 101 315 92 c 2
 312 74 l 1
 303 53 l 2
 295 33 279 18 253 8 c 0
 232 1 214 -3 199 -3 c 0
 181 -3 165 -1 150 3 c 128
 135 7 120 12 107 19 c 128
 94 26 82 34 70 45 c 128
 58 56 48 70 38 86 c 0
 22 115 14 145 14 175 c 2
 13 390 l 2
 13 452 28 500 58 534 c 128
 88 568 126 586 173 586 c 0
 192 586 209 584 221 580 c 128
 233 576 243 573 250 570 c 128
 257 567 264 564 271 559 c 0
 283 553 295 545 306 536 c 0
 309 532 313 529 317 526 c 0
 323 520 328 513 334 504 c 1
 350 524 371 543 397 559 c 0
 414 568 431 575 447 579 c 128
 463 583 479 585 495 585 c 0
 541 585 579 568 610 534 c 128
 641 500 657 452 657 388 c 2
 657 199 l 2
256 97 m 1
 256 114 247 126 229 136 c 1
 219 137 l 1
 211 138 l 1
 192 138 179 130 171 114 c 2
 168 104 l 1
 167 96 l 1
 167 78 175 64 193 56 c 2
 200 52 l 1
 210 51 l 2
 219 51 227 54 233 57 c 128
 239 60 245 67 251 77 c 1
 255 88 l 1
 256 97 l 1
EndSplineSet
Fore
SplineSet
495 585 m 3
 599 585 657 500 657 388 c 2
 657 199 l 2
 657 100 620 55 558 0 c 1
 435 0 l 1
 504 48 576 108 576 175 c 2
 576 365 l 2
 576 436 552 517 494 517 c 3
 449 517 399 470 375 428 c 0
 368 414 353 400 335 400 c 3
 321 400 302 417 297 427 c 0
 270 465 214 518 170 518 c 3
 115 518 93 436 93 403 c 2
 93 198 l 2
 93 169 94 137 110 121 c 1
 121 161 166 184 208 184 c 3
 266 184 315 148 315 92 c 3
 315 34 266 -3 199 -3 c 3
 92 -3 14 71 14 175 c 2
 13 390 l 2
 13 501 69 586 173 586 c 3
 248 586 303 550 334 504 c 1
 367 545 421 585 495 585 c 3
256 97 m 3
 256 114 240 138 211 138 c 3
 193 138 167 123 167 96 c 3
 167 73 183 51 210 51 c 3
 237 51 256 70 256 97 c 3
EndSplineSet
EndChar

StartChar: uni0E96
Encoding: 3734 3734 9
Width: 645
VWidth: 1063
Flags: W
HStem: 2 48<143.412 213.496> 128 47<155.479 214.03> 400 60<-7.88381 83> 510 69<238.935 419.346> 533 47<-7.56258 73.9355>
VStem: -61 50<464.912 526.833> 83 72<172 404> 83 55<55.4521 123.819> 219 45<55.7712 122.826> 453 71<-142.05 479.65>
LayerCount: 2
Back
SplineSet
83 464 m 1
 83 485 l 1
 79 496 l 2
 78 503 75 512 68 521 c 1
 58 529 l 1
 42 533 l 1
 18 531 l 1
 10 528 l 1
 2 522 l 1
 -4 514 l 1
 -9 506 l 1
 -11 495 l 1
 -11 487 l 2
 -11 479 -7 473 3 468 c 1
 22 462 l 1
 48 460 l 1
 83 464 l 1
178 128 m 0
 167 128 158 125 150 117 c 128
 142 109 138 100 138 89 c 256
 138 78 142 70 150 62 c 128
 158 54 167 50 178 50 c 0
 189 50 199 54 207 62 c 128
 215 70 219 78 219 89 c 256
 219 100 215 109 207 117 c 128
 199 125 189 128 178 128 c 0
107 36 m 1
 107 35 l 1
 101 39 l 1
 91 58 l 2
 85 69 83 82 83 99 c 2
 83 404 l 1
 65 401 l 1
 48 400 l 1
 20 400 -4 408 -26 423 c 0
 -35 429 -43 436 -50 447 c 128
 -57 458 -61 471 -61 485 c 0
 -61 514 -52 539 -34 557 c 1
 -14 573 11 580 42 580 c 0
 76 580 103 570 123 552 c 1
 135 539 144 521 151 500 c 1
 188 530 l 1
 219 551 l 1
 249 566 l 1
 272 574 297 579 324 579 c 0
 337 579 337 579 348 579 c 128
 355 579 365 578 377 575 c 0
 392 573 409 569 427 562 c 0
 459 550 483 535 498 518 c 1
 517 487 l 2
 522 477 524 467 524 457 c 2
 524 52 l 2
 524 -4 527 -47 531 -78 c 128
 535 -109 542 -135 552 -156 c 128
 562 -177 573 -193 586 -203 c 1
 502 -237 l 1
 486 -206 473 -170 464 -130 c 0
 463 -120 460 -105 457 -83 c 128
 454 -61 453 -44 453 -34 c 0
 452 -28 451 -17 451 0 c 0
 451 16 451 16 451 31 c 128
 451 41 452 51 453 60 c 2
 453 432 l 2
 453 455 441 474 418 489 c 0
 409 495 395 500 377 505 c 1
 353 509 l 1
 326 510 l 1
 308 510 l 1
 293 508 l 2
 285 506 279 505 274 504 c 128
 269 503 266 500 263 499 c 2
 238 488 l 1
 211 470 l 1
 184 451 l 1
 155 430 l 1
 155 172 l 1
 161 174 169 175 177 175 c 0
 201 175 222 167 239 150 c 128
 256 133 264 112 264 88 c 0
 264 64 256 44 239 27 c 128
 222 10 201 2 177 2 c 0
 153 2 132 10 115 27 c 0
 112 30 109 33 107 36 c 1
EndSplineSet
Fore
SplineSet
83 464 m 1xedc0
 83 485 l 2
 83 498 69 533 42 533 c 3
 11 533 -11 522 -11 495 c 3
 -11 463 17 460 48 460 c 3
 53 460 83 464 83 464 c 1xedc0
219 89 m 259
 219 111 200 128 178 128 c 3
 156 128 138 111 138 89 c 259
 138 68 157 50 178 50 c 3
 199 50 219 68 219 89 c 259
177 2 m 3
 124 2 83 42 83 99 c 2xf5c0
 83 404 l 1
 72 402 61 400 48 400 c 0
 -4 400 -61 430 -61 485 c 3
 -61 547 -21 580 42 580 c 3xeec0
 105 580 134 550 151 500 c 1
 197 537 242 579 324 579 c 3
 415 579 524 542 524 457 c 2
 524 52 l 2
 524 -60 534 -167 586 -203 c 1
 502 -237 l 1
 471 -177 453 -93 453 0 c 2
 453 432 l 2
 453 488 389 510 326 510 c 3
 242 510 206 463 155 430 c 1
 155 172 l 1xf6c0
 161 174 169 175 177 175 c 3
 226 175 264 137 264 88 c 3
 264 40 225 2 177 2 c 3
EndSplineSet
EndChar

StartChar: uni0E97
Encoding: 3735 3735 10
Width: 792
VWidth: 1063
Flags: W
HStem: -3 68<126.812 288.339> 372 62<79.2422 123.636> 508 66<442.938 568.485> 521 52<79.2932 161.624>
VStem: 4 77<106.785 209.154> 5 69<440.889 515.568> 169 72<441.399 512.978> 336 77<111.785 477.321> 602 77<28.1628 471.906>
LayerCount: 2
Back
SplineSet
679 103 m 2
 679 82 677 63 674 48 c 128
 671 33 665 16 655 -3 c 1
 561 -3 l 1
 586 37 l 1
 597 61 l 1
 600 84 l 1
 602 104 l 1
 602 392 l 2
 602 430 593 459 576 478 c 1
 561 498 538 508 505 508 c 0
 475 508 451 498 435 479 c 1
 420 460 413 432 413 395 c 2
 413 166 l 2
 413 139 405 112 390 85 c 1
 381 72 l 1
 373 61 l 1
 362 49 l 1
 322 21 l 1
 311 15 295 10 274 4 c 0
 252 -1 232 -3 216 -3 c 0
 181 -3 150 1 122 9 c 128
 94 17 72 29 55 46 c 0
 21 76 4 116 4 165 c 0
 4 186 10 207 22 231 c 1
 35 253 l 1
 46 268 l 1
 80 314 l 1
 110 352 l 1
 124 377 l 1
 98 366 66 375 31 403 c 1
 13 422 5 445 5 471 c 0
 5 499 14 524 32 544 c 1
 54 563 81 573 113 573 c 0
 148 573 178 565 202 548 c 1
 228 527 241 502 241 473 c 0
 241 460 239 446 234 431 c 2
 226 408 l 1
 216 383 l 1
 190 336 l 1
 149 275 l 1
 91 195 l 1
 84 182 l 1
 81 165 l 1
 81 137 92 113 115 93 c 0
 119 90 125 87 133 83 c 128
 141 79 149 76 156 73 c 2
 183 67 l 1
 213 65 l 1
 230 65 l 1
 245 70 l 2
 254 71 264 74 274 80 c 0
 293 88 307 101 319 116 c 128
 331 131 336 147 336 165 c 2
 336 395 l 2
 336 453 349 497 374 528 c 128
 399 559 443 574 505 574 c 0
 561 574 604 559 634 529 c 128
 664 499 679 454 679 395 c 2
 679 103 l 2
169 477 m 0
 169 487 164 497 155 509 c 1
 140 518 l 2
 134 520 127 521 121 521 c 0
 108 521 96 517 86 509 c 1
 76 495 l 1
 74 477 l 2
 74 473 75 468 76 463 c 128
 77 458 80 452 86 446 c 1
 97 438 108 434 121 434 c 0
 129 434 135 435 138 436 c 2
 147 441 l 1
 155 446 l 1
 164 455 169 466 169 477 c 0
EndSplineSet
Fore
SplineSet
505 574 m 3xeb80
 619 574 679 511 679 395 c 2
 679 103 l 2
 679 55 673 32 655 -3 c 1
 561 -3 l 1
 580 27 602 55 602 104 c 2
 602 392 l 2
 602 461 573 508 505 508 c 3
 439 508 413 465 413 395 c 2
 413 166 l 2
 413 62 325 -3 216 -3 c 3
 94 -3 4 50 4 165 c 3xeb80
 4 247 82 299 124 377 c 1
 117 374 109 372 101 372 c 3
 55 372 5 417 5 471 c 3
 5 533 51 573 113 573 c 3xd780
 181 573 241 535 241 473 c 3
 241 418 216 387 190 336 c 16
 168 292 81 197 81 165 c 3
 81 100 141 65 213 65 c 27
 274 65 336 105 336 165 c 2
 336 395 l 2
 336 514 383 574 505 574 c 3xeb80
169 477 m 3
 169 499 148 521 121 521 c 3
 92 521 74 506 74 477 c 3xd780
 74 450 95 434 121 434 c 0
 149 434 169 453 169 477 c 3
EndSplineSet
EndChar

StartChar: uni0E99
Encoding: 3737 3737 11
Width: 770
VWidth: 1063
Flags: W
HStem: -3 69<1 76.6982 305.261 494.995> 396 51<68.0544 141.652> 537 46<67.2122 141.944>
VStem: 1 60<452.605 530.435> 148 76<137.981 404 453.481 530.719> 534 73<99.3275 550.144>
LayerCount: 2
Back
SplineSet
607 123 m 2
 607 111 605 101 601 92 c 128
 597 83 590 72 580 60 c 1
 562 42 537 26 504 13 c 1
 474 3 438 -3 398 -3 c 2
 385 -3 l 2
 380 -3 373 -2 365 -1 c 2
 340 4 l 1
 320 9 l 2
 297 14 274 25 250 41 c 0
 221 60 198 69 182 69 c 0
 172 69 162 64 151 55 c 0
 131 37 108 21 82 9 c 1
 44 -1 l 1
 23 -4 l 1
 1 -4 l 1
 1 65 l 1
 9 65 17 65 25 66 c 128
 33 67 39 69 46 71 c 128
 53 73 58 76 63 78 c 128
 68 80 73 84 79 88 c 0
 101 105 118 125 130 147 c 128
 142 169 148 189 148 206 c 2
 148 404 l 1
 136 398 121 396 104 396 c 0
 79 396 55 403 32 418 c 1
 12 437 1 461 1 489 c 0
 1 551 36 583 106 583 c 0
 139 583 168 574 191 556 c 1
 213 535 224 510 224 482 c 2
 224 207 l 2
 224 192 227 178 231 165 c 128
 235 152 242 142 250 133 c 0
 268 110 291 94 319 85 c 1
 332 78 346 74 360 71 c 128
 374 68 388 66 402 66 c 2
 427 68 l 1
 440 70 l 1
 453 71 l 1
 466 74 l 1
 477 78 l 1
 487 84 l 1
 497 90 l 2
 521 105 534 124 534 148 c 2
 534 479 l 1
 532 505 l 1
 527 518 l 1
 514 546 l 1
 495 582 l 1
 584 585 l 1
 593 558 l 1
 603 530 l 1
 606 502 l 1
 607 479 l 1
 607 123 l 2
148 492 m 0
 148 504 145 515 138 524 c 1
 129 532 118 536 107 537 c 0
 95 537 84 532 74 524 c 1
 65 511 l 1
 61 493 l 1
 63 477 l 1
 74 461 l 2
 82 452 91 447 103 447 c 0
 109 447 114 448 119 451 c 2
 125 454 l 1
 134 458 l 1
 143 467 148 479 148 492 c 0
EndSplineSet
Fore
SplineSet
607 123 m 2
 607 34 485 -3 398 -3 c 3
 261 -3 247 69 182 69 c 3
 143 69 123 -4 1 -4 c 1
 1 65 l 1
 81 65 148 133 148 206 c 2
 148 404 l 1
 136 398 121 396 104 396 c 3
 48 396 1 432 1 489 c 3
 1 551 36 583 106 583 c 3
 171 583 224 544 224 482 c 2
 224 207 l 2
 224 116 313 66 402 66 c 3
 465 66 534 88 534 148 c 2
 534 479 l 2
 534 521 510 553 495 582 c 1
 584 585 l 1
 595 551 607 525 607 479 c 2
 607 123 l 2
148 492 m 3
 148 519 131 537 107 537 c 3
 80 537 61 519 61 493 c 3
 61 468 78 447 103 447 c 3
 129 447 148 467 148 492 c 3
EndSplineSet
EndChar

StartChar: uni0E9A
Encoding: 3738 3738 12
Width: 695
VWidth: 1063
Flags: W
HStem: -3 70<151.12 400.042> 390 58<63.3213 110.217> 531 58<61.1243 139.186>
VStem: 1 71<129.494 238.648> 2 53<456.172 524.212> 144 69<453.308 525.834> 500 69<146.734 556.504>
LayerCount: 2
Back
SplineSet
569 210 m 2
 569 196 569 186 568 180 c 128
 567 174 565 164 560 152 c 128
 555 140 551 131 549 127 c 0
 545 118 539 108 531 99 c 2
 510 75 l 1
 487 55 l 2
 479 50 471 44 461 39 c 128
 451 34 440 28 426 23 c 0
 418 20 406 17 391 13 c 128
 376 9 360 5 342 2 c 128
 324 -1 302 -3 278 -3 c 2
 258 -3 l 1
 234 -3 l 1
 216 -1 l 1
 203 3 l 1
 178 6 155 12 134 20 c 0
 92 36 59 58 34 88 c 0
 24 101 16 118 9 137 c 0
 6 144 4 151 3 161 c 128
 2 171 1 180 1 190 c 2
 1 207 l 1
 3 221 l 1
 8 237 l 1
 16 254 l 1
 42 292 l 1
 64 321 l 1
 74 333 l 1
 90 354 l 1
 107 381 l 1
 111 384 l 1
 109 388 l 1
 97 390 l 1
 86 390 73 392 61 396 c 0
 51 400 40 406 29 416 c 0
 11 432 2 455 2 484 c 0
 2 515 10 541 27 560 c 128
 44 579 68 589 97 589 c 0
 117 589 137 584 156 575 c 0
 173 568 186 558 197 542 c 128
 208 526 213 507 213 487 c 0
 213 448 204 415 187 386 c 2
 157 334 l 1
 115 274 l 2
 114 273 110 265 101 251 c 128
 92 237 86 227 83 220 c 2
 75 204 l 1
 72 190 l 1
 72 153 89 123 125 101 c 1
 165 78 216 67 278 67 c 0
 306 67 335 70 364 76 c 1
 378 80 391 85 403 90 c 128
 415 95 427 101 438 109 c 0
 480 135 500 168 500 210 c 2
 500 484 l 2
 500 497 498 509 495 518 c 2
 489 533 l 1
 480 551 l 1
 463 588 l 1
 546 591 l 1
 558 554 l 1
 566 534 l 1
 568 512 l 1
 569 487 l 1
 569 210 l 2
144 490 m 1
 142 502 l 1
 140 508 l 1
 132 520 l 1
 116 527 l 2
 112 529 107 531 100 531 c 0
 87 531 76 527 68 519 c 0
 59 509 55 499 55 490 c 2
 56 483 l 1
 59 473 l 2
 60 469 63 464 69 460 c 0
 79 453 89 449 100 448 c 1
 116 450 l 1
 124 454 l 1
 132 460 l 1
 137 469 l 1
 140 474 l 1
 144 490 l 1
EndSplineSet
Fore
SplineSet
72 190 m 3xf6
 72 98 179 67 278 67 c 3
 385 67 500 113 500 210 c 2
 500 484 l 2
 500 528 475 560 460 591 c 1
 546 591 l 1
 553 564 569 543 569 512 c 2
 569 210 l 2
 569 70 430 -3 278 -3 c 3
 141 -3 1 48 1 190 c 3xf6
 1 267 65 311 111 384 c 1
 110 390 102 390 97 390 c 3
 42 390 2 428 2 484 c 3xee
 2 545 37 589 97 589 c 3
 159 589 213 551 213 487 c 3
 213 448 204 415 187 386 c 0
 158 336 72 218 72 190 c 3xf6
144 490 m 3
 144 515 127 531 100 531 c 3
 75 531 55 511 55 490 c 3xee
 55 473 74 448 100 448 c 3
 129 448 144 468 144 490 c 3
EndSplineSet
EndChar

StartChar: uni0E9B
Encoding: 3739 3739 13
Width: 697
VWidth: 1063
Flags: W
HStem: -3 72<192.141 426.99> 398 57<109.175 149.284> 541 59<108.247 175.793> 859 57<523.277 651.917> 886 57<464.249 550.524>
VStem: 41 69<133.231 244.327> 42 60<461.164 535.408> 181 68<460.994 535.569> 406 58<849.061 885.172> 529 68<148.881 781.016>
LayerCount: 2
Back
SplineSet
181 498 m 0
 181 510 177 521 170 530 c 1
 160 537 151 541 142 541 c 0
 132 541 123 537 114 529 c 1
 106 519 102 508 102 498 c 1
 103 492 l 1
 106 482 l 2
 106 478 109 473 115 469 c 2
 128 458 l 1
 142 455 l 2
 148 455 153 456 157 459 c 2
 170 469 l 1
 176 476 180 485 181 498 c 0
597 214 m 2
 597 172 584 134 558 99 c 0
 552 91 546 84 540 78 c 128
 534 72 526 65 515 56 c 0
 498 44 479 32 456 22 c 0
 434 14 410 8 385 4 c 128
 360 0 337 -3 313 -3 c 2
 275 -2 l 2
 269 -1 263 -1 257 -1 c 0
 248 1 242 3 238 4 c 0
 213 8 190 13 171 21 c 1
 149 28 130 38 116 49 c 0
 107 56 102 60 100 62 c 0
 91 70 83 79 75 89 c 0
 64 104 56 121 50 138 c 128
 44 155 41 174 41 194 c 0
 41 215 46 237 57 258 c 2
 67 277 l 1
 82 298 l 1
 103 328 l 1
 130 363 l 1
 147 388 l 1
 150 394 l 1
 147 397 l 1
 136 398 l 2
 125 398 113 400 101 404 c 128
 89 408 78 416 69 426 c 1
 51 443 42 465 42 493 c 0
 42 522 50 548 66 570 c 1
 85 590 109 600 137 600 c 1
 167 597 l 2
 176 596 185 592 194 587 c 1
 203 583 211 577 218 570 c 128
 225 563 230 557 234 551 c 0
 244 536 249 518 249 497 c 0
 249 478 246 459 242 442 c 2
 235 415 l 2
 231 403 226 395 223 390 c 0
 216 378 205 361 193 340 c 128
 181 319 168 298 153 277 c 1
 134 247 l 1
 121 226 l 2
 113 211 110 201 110 194 c 0
 110 158 127 129 163 105 c 128
 199 81 249 69 313 69 c 0
 375 69 427 83 468 111 c 1
 509 137 529 171 529 215 c 2
 529 758 l 1
 513 780 493 794 468 799 c 128
 443 804 425 818 414 843 c 128
 403 868 404 888 417 904 c 128
 430 920 448 933 473 942 c 1
 501 945 521 943 532 935 c 128
 543 927 552 922 560 919 c 128
 568 916 579 916 595 917 c 0
 603 917 614 921 629 928 c 0
 633 930 638 932 642 935 c 1
 680 889 l 1
 649 873 627 864 611 862 c 128
 595 860 581 858 570 859 c 128
 559 860 548 863 536 869 c 128
 524 875 514 880 505 883 c 128
 496 886 487 886 478 883 c 128
 469 880 465 874 464 865 c 128
 463 856 472 850 490 848 c 128
 508 846 528 839 552 825 c 128
 576 811 591 790 597 762 c 1
 597 214 l 2
EndSplineSet
Fore
SplineSet
181 498 m 3xe3c0
 181 522 164 541 142 541 c 3
 120 541 102 519 102 498 c 3
 102 481 118 455 142 455 c 3
 165 455 181 481 181 498 c 3xe3c0
680 889 m 1
 635 866 621 859 576 859 c 3xf5c0
 543 859 521 886 491 886 c 3
 476 886 464 878 464 864 c 0
 464 856 473 850 490 848 c 0
 537 843 597 803 597 762 c 2
 597 214 l 2
 597 78 463 -3 313 -3 c 3
 169 -3 41 57 41 194 c 3xedc0
 41 271 109 326 150 394 c 1
 149 397 141 398 136 398 c 3
 81 398 42 439 42 493 c 3xebc0
 42 553 78 600 137 600 c 3
 193 600 249 565 249 497 c 3
 249 458 238 414 223 390 c 0
 196 345 110 224 110 194 c 3
 110 105 212 69 313 69 c 3
 417 69 529 117 529 215 c 2
 529 758 l 2
 529 773 493 794 468 799 c 0
 437 805 406 834 406 874 c 3
 406 913 451 943 495 943 c 3xedc0
 536 943 543 916 579 916 c 3xf5c0
 601 916 624 922 642 935 c 1
 680 889 l 1
EndSplineSet
EndChar

StartChar: uni0E9C
Encoding: 3740 3740 14
Width: 754
VWidth: 1063
Flags: W
HStem: -3 68<136.053 262.685 420.409 539.878> 404 54<152.545 221.827 490.036 576.903> 534 53<489.03 571.06> 545 45<152.2 224.178>
VStem: 12 72<122.297 466.675> 229 52<465.005 540.498> 317 69<116.962 578> 427 58<465.376 529.468> 591 68<120.897 418> 648 60<519.177 589>
LayerCount: 2
Back
SplineSet
577 479 m 0
 578 486 579 490 579 492 c 0
 579 502 574 511 564 520 c 128
 554 529 541 534 528 534 c 0
 515 534 505 530 497 523 c 128
 489 516 485 508 485 498 c 0
 485 493 487 487 491 479 c 0
 499 466 514 459 536 459 c 0
 559 459 573 466 577 479 c 0
229 501 m 1
 228 509 l 2
 226 515 225 519 223 523 c 128
 221 527 217 531 210 538 c 1
 202 542 l 1
 188 545 l 1
 180 544 l 2
 177 543 174 541 172 540 c 0
 156 533 147 521 147 502 c 0
 147 494 149 489 151 485 c 0
 158 467 169 458 185 458 c 0
 189 458 197 460 206 464 c 0
 222 472 229 484 229 501 c 1
592 418 m 1
 542 398 502 399 472 420 c 128
 442 441 427 467 427 497 c 0
 427 514 430 528 436 537 c 1
 439 546 447 556 461 565 c 0
 480 580 505 587 534 587 c 0
 556 587 577 580 595 568 c 128
 613 556 629 539 640 518 c 1
 644 529 l 1
 645 549 l 1
 648 573 l 1
 648 607 l 1
 708 589 l 1
 708 547 705 517 699 500 c 0
 692 476 679 457 659 444 c 1
 659 210 l 2
 658 170 650 132 634 97 c 0
 617 60 594 34 563 19 c 128
 532 4 502 -3 472 -3 c 0
 427 -3 385 18 347 60 c 1
 341 53 328 41 306 23 c 128
 284 5 250 -3 205 -3 c 0
 175 -3 145 4 114 19 c 128
 83 34 58 59 39 93 c 1
 27 118 18 153 12 197 c 1
 11 412 l 2
 11 465 27 508 58 541 c 128
 89 574 131 590 180 590 c 0
 198 590 213 588 226 584 c 1
 247 573 264 556 274 535 c 1
 279 516 l 1
 281 497 l 2
 281 488 280 480 278 472 c 128
 276 464 272 456 266 448 c 0
 258 434 243 422 224 412 c 1
 205 406 l 1
 186 404 l 1
 160 408 l 2
 155 409 146 412 133 419 c 1
 119 429 108 443 99 461 c 1
 97 468 l 1
 93 461 l 1
 90 450 l 1
 88 439 l 1
 85 421 l 1
 84 377 l 1
 84 206 l 1
 85 206 l 1
 86 167 95 135 112 110 c 0
 130 83 162 67 206 65 c 0
 228 65 252 76 278 97 c 128
 304 118 317 141 317 166 c 2
 317 578 l 1
 386 578 l 1
 386 166 l 2
 386 146 391 129 399 113 c 0
 403 106 407 101 412 95 c 0
 429 75 449 65 471 65 c 0
 515 67 546 83 564 110 c 0
 581 135 590 167 591 206 c 2
 592 418 l 1
EndSplineSet
Fore
SplineSet
536 459 m 3xef
 565 459 579 469 579 492 c 3
 579 514 551 534 528 534 c 3
 505 534 485 519 485 498 c 3
 485 473 508 459 536 459 c 3xef
147 502 m 3
 147 477 166 458 185 458 c 3
 209 458 229 479 229 501 c 3
 229 527 216 545 188 545 c 3xdf
 164 545 147 526 147 502 c 3
386 166 m 2
 386 113 424 65 471 65 c 3
 550 65 591 123 591 206 c 2xdf80
 592 418 l 1
 568 408 546 404 527 404 c 3
 471 404 427 452 427 497 c 3
 427 556 474 587 534 587 c 3
 584 587 621 554 640 518 c 1
 647 543 648 575 648 607 c 1
 708 589 l 1xef40
 708 511 702 472 659 444 c 1
 659 210 l 2xef80
 659 89 592 -3 472 -3 c 3
 427 -3 385 18 347 60 c 1
 320 28 284 -3 205 -3 c 3
 82 -3 12 94 12 197 c 2
 11 412 l 2
 11 515 78 590 180 590 c 3
 246 590 281 549 281 497 c 3
 281 441 234 404 186 404 c 3
 148 404 109 426 97 468 c 1
 85 446 84 411 84 377 c 2
 84 206 l 2
 84 132 122 65 206 65 c 3
 251 65 317 119 317 166 c 2
 317 578 l 1
 386 578 l 1
 386 166 l 2
EndSplineSet
EndChar

StartChar: uni0E9D
Encoding: 3741 3741 15
Width: 788
VWidth: 1063
Flags: W
HStem: -3 68<152.034 279.062 435.759 558.185> 404 54<167.316 236.281> 537 53<166.972 236.701> 859 57<601.277 729.892> 886 57<542.249 628.524>
VStem: 28 72<119.766 466.675> 242 55<463.579 531.625> 333 69<116.962 578> 484 58<849.061 885.127> 607 67<116.779 781.683>
LayerCount: 2
Back
SplineSet
242 497 m 1
 241 504 l 2
 239 509 238 513 236 516 c 128
 234 519 230 524 223 530 c 2
 216 534 l 1
 202 537 l 1
 194 536 l 2
 191 535 188 534 186 533 c 0
 170 527 163 515 163 498 c 0
 163 491 165 485 167 482 c 0
 174 466 184 458 199 458 c 0
 203 458 210 460 219 463 c 0
 234 470 242 481 242 497 c 1
674 210 m 2
 673 170 665 132 649 97 c 0
 632 60 609 34 578 19 c 128
 547 4 517 -3 487 -3 c 0
 442 -3 401 18 363 60 c 1
 357 53 343 41 321 23 c 128
 299 5 265 -3 220 -3 c 0
 190 -3 161 4 130 19 c 128
 99 34 74 59 55 93 c 1
 43 118 34 153 28 197 c 1
 27 412 l 2
 27 465 43 508 74 541 c 128
 105 574 146 590 195 590 c 0
 213 590 229 588 242 584 c 1
 263 573 279 556 289 535 c 1
 295 516 l 1
 297 497 l 2
 297 488 296 480 294 472 c 128
 292 464 287 456 281 448 c 0
 273 434 259 422 240 412 c 1
 221 406 l 1
 202 404 l 1
 176 408 l 2
 171 409 162 412 149 419 c 1
 135 429 123 443 114 461 c 1
 112 468 l 1
 109 461 l 1
 105 450 l 1
 103 439 l 1
 101 421 l 1
 100 377 l 1
 100 211 l 1
 99 206 l 1
 101 206 l 1
 102 167 111 135 128 110 c 0
 146 83 177 67 221 65 c 0
 243 65 268 76 294 97 c 128
 320 118 333 141 333 166 c 2
 333 578 l 1
 402 578 l 1
 402 166 l 2
 402 146 406 129 414 113 c 0
 418 106 423 101 428 95 c 0
 445 75 464 65 486 65 c 0
 530 67 562 83 580 110 c 0
 597 135 606 167 607 206 c 1
 607 758 l 1
 591 780 571 794 546 799 c 128
 521 804 503 818 492 843 c 128
 481 868 482 888 495 904 c 128
 508 920 526 933 551 942 c 1
 579 945 599 943 610 935 c 128
 621 927 630 922 638 919 c 128
 646 916 657 916 673 917 c 0
 681 917 692 921 707 928 c 0
 711 930 716 932 720 935 c 1
 758 889 l 1
 727 873 704 864 688 862 c 128
 672 860 659 858 648 859 c 128
 637 860 626 863 614 869 c 128
 602 875 592 880 583 883 c 128
 574 886 565 886 556 883 c 128
 547 880 543 874 542 865 c 128
 541 856 550 850 568 848 c 128
 586 846 606 839 630 825 c 128
 654 811 668 790 674 762 c 1
 674 210 l 2
EndSplineSet
Fore
SplineSet
163 498 m 3xe7c0
 163 475 181 458 199 458 c 3
 222 458 242 476 242 497 c 3
 242 522 218 537 202 537 c 3
 178 537 163 521 163 498 c 3xe7c0
758 889 m 1
 713 866 698 859 654 859 c 3xf7c0
 621 859 599 886 569 886 c 3
 554 886 542 878 542 864 c 3
 542 856 551 850 568 848 c 0
 615 843 674 805 674 762 c 2
 674 210 l 2
 674 89 607 -3 487 -3 c 3
 442 -3 401 18 363 60 c 1
 336 29 291 -3 220 -3 c 3
 98 -3 29 88 28 197 c 2
 27 412 l 2
 27 515 94 590 195 590 c 3
 261 590 297 549 297 497 c 3
 297 448 251 404 202 404 c 3
 158 404 123 426 112 468 c 1
 105 455 100 438 100 421 c 2
 100 211 l 2
 100 137 128 69 221 65 c 1
 267 65 333 119 333 166 c 2
 333 578 l 1
 402 578 l 1
 402 166 l 2
 402 113 439 65 486 65 c 3
 569 65 607 123 607 206 c 2
 607 758 l 2
 607 774 571 794 546 799 c 0
 515 805 484 834 484 874 c 3
 484 906 529 943 573 943 c 3xefc0
 614 943 621 916 657 916 c 3xf7c0
 679 916 702 922 720 935 c 1
 758 889 l 1
EndSplineSet
EndChar

StartChar: uni0E9E
Encoding: 3742 3742 16
Width: 762
VWidth: 1063
Flags: W
HStem: -3 68<99.6706 254.668 399.562 497.823> 385 61<66.8837 112.078> 530 50<65.8739 140.961>
VStem: 4 68<91.857 214.979> 5 56<451.792 524.887> 145 69<452.02 525.03> 299 67<109.404 580> 533 69<105.031 580>
LayerCount: 2
Back
SplineSet
602 167 m 2
 602 153 600 138 597 124 c 128
 594 110 588 96 581 82 c 0
 569 55 552 34 528 19 c 128
 504 4 478 -3 450 -3 c 0
 406 -3 368 16 337 53 c 1
 330 60 l 1
 326 59 l 1
 292 18 248 -3 194 -3 c 0
 142 -3 102 4 74 19 c 0
 46 35 28 55 17 81 c 1
 8 106 4 135 4 167 c 0
 4 187 9 208 20 232 c 1
 31 253 l 1
 47 280 l 1
 70 315 l 1
 110 375 l 1
 113 380 l 1
 110 382 l 1
 99 385 l 1
 84 385 72 387 63 390 c 2
 47 399 l 1
 32 410 l 1
 14 428 5 450 5 476 c 0
 5 505 13 530 30 551 c 0
 47 570 70 580 100 580 c 0
 115 580 126 579 132 577 c 128
 138 575 149 571 162 565 c 128
 175 559 187 548 197 532 c 0
 208 516 214 499 214 480 c 0
 214 473 213 465 212 456 c 128
 211 447 209 437 206 426 c 2
 198 401 l 1
 193 389 l 1
 187 375 l 1
 173 348 l 1
 166 334 l 1
 156 319 l 1
 139 291 l 1
 115 252 l 2
 86 206 72 178 72 167 c 2
 72 149 l 1
 74 133 l 2
 74 125 77 116 81 106 c 0
 82 101 86 96 90 93 c 128
 94 90 101 85 110 79 c 0
 115 77 125 74 139 70 c 128
 153 66 171 65 194 65 c 0
 222 65 246 75 267 96 c 128
 288 117 299 140 299 167 c 2
 299 580 l 1
 366 580 l 1
 366 167 l 2
 366 139 375 115 391 95 c 128
 407 75 427 65 449 65 c 256
 471 65 490 75 507 96 c 128
 524 117 533 141 533 167 c 2
 533 580 l 1
 602 580 l 1
 602 167 l 2
145 488 m 0
 145 499 142 510 134 520 c 1
 127 527 116 530 104 530 c 0
 91 530 81 526 74 519 c 0
 70 515 66 510 64 505 c 2
 61 488 l 1
 64 473 l 1
 69 466 l 1
 74 458 l 1
 83 450 93 446 104 446 c 0
 114 446 124 450 134 458 c 1
 142 467 145 478 145 488 c 0
EndSplineSet
Fore
SplineSet
449 65 m 259xf7
 495 65 533 119 533 167 c 2
 533 580 l 1
 602 580 l 1
 602 167 l 2
 602 74 542 -3 450 -3 c 3
 399 -3 366 24 330 60 c 1
 290 21 262 -3 194 -3 c 3
 65 -3 4 43 4 167 c 3xf7
 4 236 77 323 113 380 c 1
 110 383 104 385 99 385 c 3
 42 385 5 424 5 476 c 3xef
 5 535 40 580 100 580 c 3
 161 580 214 542 214 480 c 3
 214 420 187 375 166 334 c 0
 148 299 72 192 72 167 c 3
 72 85 106 65 194 65 c 3
 248 65 299 114 299 167 c 2
 299 580 l 1
 366 580 l 1
 366 167 l 2
 366 117 401 65 449 65 c 259xf7
145 488 m 3
 145 512 131 530 104 530 c 3
 75 530 61 513 61 488 c 3xef
 61 464 79 446 104 446 c 3
 126 446 145 465 145 488 c 3
EndSplineSet
EndChar

StartChar: uni0E9F
Encoding: 3743 3743 17
Width: 783
VWidth: 1063
Flags: W
HStem: -3 68<143.014 305.335 451.448 573.49> 379 59<108.944 156.861> 521 57<107.879 181.318> 859 57<617.052 745.392> 886 57<558.249 643.561>
VStem: 42 60<446.284 513.947> 45 70<92.9885 215.793> 188 72<444.245 515.024> 348 69<108.054 578> 500 58<849.061 885.172> 622 68<118.547 779.817>
LayerCount: 2
Back
SplineSet
188 480 m 0
 188 490 184 499 176 509 c 1
 166 517 155 521 145 521 c 0
 135 521 126 517 115 509 c 0
 107 501 102 492 102 480 c 0
 102 470 107 460 116 451 c 1
 129 441 l 1
 145 438 l 1
 155 438 l 1
 161 441 l 1
 176 451 l 1
 184 459 188 468 188 480 c 0
690 214 m 2
 690 172 682 134 665 97 c 128
 648 60 625 34 594 19 c 128
 563 4 533 -3 503 -3 c 0
 458 -3 419 15 387 52 c 1
 378 60 l 1
 342 18 296 -3 240 -3 c 0
 185 -3 144 4 117 19 c 0
 103 26 90 35 80 46 c 2
 67 62 l 1
 58 79 l 1
 54 92 l 1
 47 119 l 2
 46 126 46 132 45 138 c 128
 44 144 45 149 45 153 c 2
 45 166 l 2
 45 180 46 192 48 200 c 128
 50 208 54 219 62 231 c 1
 65 241 72 254 83 269 c 2
 98 293 l 1
 114 315 l 1
 157 379 l 1
 119 377 91 384 71 401 c 128
 51 418 42 442 42 475 c 0
 42 508 50 533 69 551 c 128
 88 569 113 578 143 578 c 1
 175 575 l 2
 185 574 194 570 202 565 c 0
 209 562 217 557 225 551 c 1
 244 531 l 1
 254 514 260 497 260 479 c 0
 260 442 251 406 232 373 c 1
 216 342 l 1
 202 317 l 1
 182 286 l 1
 159 251 l 2
 130 207 116 178 116 166 c 2
 116 148 l 1
 117 134 l 1
 119 121 l 1
 124 109 l 1
 126 96 136 86 154 79 c 2
 166 74 l 1
 189 70 l 1
 215 66 l 1
 240 65 l 2
 269 65 295 75 316 95 c 128
 337 115 348 138 348 166 c 2
 348 578 l 1
 417 578 l 1
 417 166 l 2
 417 138 426 115 443 95 c 128
 460 75 480 65 502 65 c 0
 546 67 577 83 595 110 c 128
 613 137 622 171 622 215 c 2
 622 758 l 1
 606 780 586 794 561 799 c 128
 536 804 519 818 508 843 c 128
 497 868 498 888 511 904 c 128
 524 920 542 933 567 942 c 1
 595 945 614 943 625 935 c 128
 636 927 645 922 653 919 c 128
 661 916 673 916 689 917 c 0
 697 917 707 921 722 928 c 0
 726 930 731 932 735 935 c 1
 774 889 l 1
 743 873 720 864 704 862 c 128
 688 860 675 858 664 859 c 128
 653 860 641 863 629 869 c 128
 617 875 608 880 599 883 c 128
 590 886 581 886 572 883 c 128
 563 880 559 874 558 865 c 128
 557 856 566 850 584 848 c 128
 602 846 621 839 645 825 c 128
 669 811 684 790 690 762 c 1
 690 214 l 2
EndSplineSet
Fore
SplineSet
145 521 m 3xe5e0
 125 521 102 503 102 480 c 3
 102 457 127 438 145 438 c 3
 169 438 188 457 188 480 c 3
 188 502 167 521 145 521 c 3xe5e0
774 889 m 1
 729 866 714 859 670 859 c 0xf3e0
 636 859 614 886 585 886 c 0
 570 886 558 878 558 864 c 3
 558 856 567 850 584 848 c 0
 624 844 690 805 690 762 c 2
 690 214 l 2
 690 91 623 -3 503 -3 c 3
 449 -3 418 25 378 60 c 1
 342 18 296 -3 240 -3 c 3
 116 -3 45 35 45 153 c 3xebe0
 45 240 113 316 157 379 c 1
 153 379 149 379 145 379 c 0
 80 379 42 411 42 475 c 3xede0
 42 539 80 578 143 578 c 3
 200 578 260 545 260 479 c 3
 260 417 227 362 202 317 c 0
 173 271 115 202 115 146 c 3
 115 79 172 66 240 65 c 0
 296 65 348 110 348 166 c 2
 348 578 l 1
 417 578 l 1
 417 166 l 2
 417 116 454 65 502 65 c 3
 588 65 622 127 622 215 c 2
 622 758 l 2
 622 769 586 794 561 799 c 0
 530 805 500 834 500 874 c 3
 500 913 545 943 589 943 c 3xebe0
 631 943 636 916 673 916 c 0xf3e0
 695 916 717 922 735 935 c 1
 774 889 l 1
EndSplineSet
EndChar

StartChar: uni0EA1
Encoding: 3745 3745 18
Width: 738
VWidth: 1063
Flags: W
HStem: -3 69<78.9637 176.69 297.414 499.302>
VStem: 1 71<73.8125 144.034> 99 75<289.239 516.101> 230 69<216.408 482.719> 552 72<112.502 558.041>
LayerCount: 2
Back
SplineSet
624 168 m 2
 624 142 619 118 608 96 c 128
 597 74 581 56 561 41 c 0
 522 12 469 -3 403 -3 c 2
 395 -3 l 1
 389 -3 l 1
 325 -1 273 16 235 49 c 1
 210 14 174 -3 123 -3 c 0
 90 -3 61 6 36 26 c 1
 12 48 1 77 1 112 c 0
 1 136 8 158 23 177 c 0
 27 182 32 186 36 190 c 128
 40 194 46 198 51 202 c 1
 69 211 l 1
 90 222 l 1
 95 216 99 212 102 208 c 128
 105 204 108 200 111 193 c 2
 116 175 l 1
 120 156 l 1
 106 151 l 2
 103 149 101 148 99 147 c 128
 97 146 97 146 96 145 c 0
 88 140 83 137 81 136 c 128
 79 135 76 131 74 124 c 2
 72 112 l 1
 72 103 73 96 74 93 c 2
 84 80 l 2
 86 77 92 74 101 70 c 1
 123 66 l 1
 139 66 154 70 168 78 c 1
 179 87 185 98 185 110 c 1
 119 263 91 379 101 457 c 128
 111 535 136 579 177 588 c 1
 214 586 243 565 265 522 c 128
 287 479 298 423 299 354 c 128
 300 285 288 211 264 133 c 1
 276 87 322 65 403 66 c 0
 428 66 453 70 476 78 c 0
 490 82 500 87 506 92 c 2
 530 112 l 2
 534 117 538 121 540 124 c 128
 542 127 543 132 546 138 c 128
 549 144 551 154 552 168 c 1
 552 486 l 2
 552 498 550 512 544 528 c 128
 538 544 533 555 529 562 c 0
 522 574 516 584 512 591 c 1
 600 591 l 1
 605 576 l 1
 613 558 l 1
 616 546 l 1
 618 535 l 1
 622 513 l 1
 624 486 l 1
 624 168 l 2
189 517 m 1
 178 489 174 464 174 442 c 128
 174 420 177 393 181 360 c 128
 185 327 197 279 215 214 c 1
 225 281 230 331 230 364 c 1
 228 397 224 426 220 450 c 128
 216 474 206 496 189 517 c 1
EndSplineSet
Fore
SplineSet
552 486 m 2
 552 527 526 567 512 591 c 1
 600 591 l 1
 613 561 623 528 624 486 c 1
 624 168 l 2
 624 49 523 -3 403 -3 c 3
 331 -3 276 13 235 49 c 1
 210 14 174 -3 123 -3 c 3
 53 -3 1 41 1 112 c 3
 1 176 46 198 90 222 c 1
 107 202 113 187 120 156 c 1
 97 145 73 142 72 112 c 0
 72 84 91 66 123 66 c 3
 152 66 185 81 185 110 c 1
 128 243 99 348 99 424 c 3
 99 509 137 588 177 588 c 3
 262 588 299 457 299 346 c 3
 299 279 287 208 264 133 c 1
 276 86 323 66 403 66 c 3
 479 66 552 97 552 168 c 2
 552 486 l 2
189 517 m 1
 178 489 174 464 174 442 c 3
 174 380 188 312 215 214 c 1
 225 281 230 331 230 364 c 3
 230 408 222 476 189 517 c 1
EndSplineSet
EndChar

StartChar: uni0EA2
Encoding: 3746 3746 19
Width: 692
VWidth: 1063
Flags: W
HStem: -3 70<199.514 432.757> 243 64<165.786 316.25> 401 52<205.23 271.133> 532 56<205.056 269.884> 859 57<518.409 646.392> 886 57<459.249 545.41>
VStem: 36 68<129.838 204.559 343.198 481.92> 276 52<457.439 526.752> 401 58<849.061 885.172> 527 66<137.664 780.129>
LayerCount: 2
Back
SplineSet
276 492 m 1
 274 498 l 1
 271 508 l 2
 269 515 265 520 258 526 c 1
 249 531 l 1
 238 532 l 1
 229 531 l 1
 222 527 l 2
 207 521 200 510 200 493 c 2
 200 484 l 1
 203 477 l 2
 209 461 220 453 237 453 c 1
 244 454 l 1
 252 457 l 2
 268 464 276 476 276 492 c 1
593 159 m 1
 595 136 583 110 557 82 c 0
 548 73 541 64 533 59 c 128
 525 54 519 50 516 48 c 2
 491 34 l 1
 460 22 l 2
 440 14 419 7 396 3 c 128
 373 -1 350 -3 326 -3 c 0
 299 -3 274 -1 249 3 c 128
 224 7 200 14 179 21 c 128
 158 28 140 37 124 48 c 1
 107 58 91 70 78 84 c 128
 65 98 54 113 47 129 c 128
 40 145 36 163 36 181 c 0
 36 218 58 249 103 272 c 1
 87 282 73 295 61 312 c 1
 43 352 l 2
 41 358 39 364 38 372 c 128
 37 380 37 386 36 390 c 0
 36 402 36 414 37 424 c 128
 38 434 39 443 41 451 c 0
 44 468 50 483 57 497 c 128
 64 511 75 524 90 536 c 128
 105 548 122 558 141 567 c 0
 175 581 203 588 226 588 c 0
 244 588 260 585 273 580 c 0
 293 569 309 553 318 532 c 0
 321 526 323 520 324 513 c 128
 325 506 327 499 328 495 c 1
 326 481 l 2
 325 475 324 471 323 468 c 2
 311 444 l 2
 308 437 302 432 294 425 c 2
 270 410 l 1
 249 402 l 1
 235 401 l 2
 218 401 202 406 186 415 c 1
 171 425 159 439 148 457 c 1
 144 476 l 1
 142 497 l 1
 136 494 131 491 127 487 c 128
 123 483 120 477 118 470 c 2
 109 440 l 1
 105 416 l 1
 104 395 l 2
 104 366 117 344 144 329 c 128
 171 314 208 307 254 307 c 1
 316 312 l 1
 316 287 l 1
 319 267 l 1
 324 243 l 1
 290 243 260 242 235 238 c 128
 210 234 186 228 164 220 c 2
 150 214 l 1
 138 210 l 1
 120 200 l 2
 110 194 105 186 104 177 c 0
 104 164 109 151 119 137 c 0
 122 132 127 127 133 123 c 128
 139 119 151 112 169 102 c 128
 187 92 210 83 239 76 c 1
 283 70 l 1
 329 67 l 1
 366 67 399 74 430 86 c 1
 440 89 l 1
 451 94 l 1
 468 105 l 1
 483 115 l 1
 502 131 l 2
 508 138 514 147 519 157 c 0
 524 165 527 174 527 184 c 2
 527 758 l 1
 509 780 488 794 463 799 c 128
 438 804 420 818 409 843 c 128
 398 868 399 888 412 904 c 128
 425 920 443 933 468 942 c 1
 496 945 515 943 526 935 c 128
 537 927 546 922 554 919 c 128
 562 916 574 916 590 917 c 0
 598 917 609 921 624 928 c 0
 628 930 632 932 636 935 c 1
 675 889 l 1
 644 873 621 864 605 862 c 128
 589 860 576 858 565 859 c 128
 554 860 543 863 531 869 c 128
 519 875 509 880 500 883 c 128
 491 886 482 886 473 883 c 128
 464 880 460 874 459 865 c 128
 458 856 467 850 485 848 c 128
 503 846 523 839 547 825 c 128
 571 811 585 790 592 762 c 1
 593 159 l 1
EndSplineSet
Fore
SplineSet
237 453 m 3xf3c0
 258 453 276 470 276 492 c 3
 276 508 260 532 238 532 c 3
 215 532 200 509 200 493 c 3
 200 475 216 453 237 453 c 3xf3c0
675 889 m 1
 630 866 615 859 571 859 c 3xfbc0
 538 859 516 886 486 886 c 3
 471 886 459 878 459 864 c 0
 459 856 468 850 485 848 c 0
 525 844 592 806 592 762 c 2
 593 159 l 2
 593 66 448 -3 326 -3 c 3
 191 -3 36 61 36 181 c 3
 36 218 58 249 103 272 c 1
 61 298 36 345 36 390 c 3
 36 511 112 588 226 588 c 3
 296 588 328 534 328 495 c 3
 328 451 284 401 235 401 c 3
 178 401 147 440 142 497 c 1
 112 483 104 431 104 395 c 3
 104 327 178 307 254 307 c 3
 259 307 316 312 316 312 c 1
 324 243 l 1
 264 243 104 226 104 177 c 3
 104 102 239 67 329 67 c 3
 409 67 527 115 527 184 c 2
 527 758 l 2
 527 770 488 794 463 799 c 0
 432 805 401 834 401 874 c 3
 401 913 446 943 490 943 c 3xf7c0
 532 943 537 916 574 916 c 3xfbc0
 596 916 618 922 636 935 c 1
 675 889 l 1
EndSplineSet
EndChar

StartChar: uni0EA3
Encoding: 3747 3747 20
Width: 688
VWidth: 1063
Flags: W
HStem: -3 61<189.748 428.492> 181 46<83.2041 155.588> 521 69<134.633 457.463>
VStem: 17 70<435.379 485.775> 22 56<109.161 174.797> 161 52<107.157 175.819> 500 76<111.307 214.21>
LayerCount: 2
Back
SplineSet
161 141 m 0
 161 151 157 160 150 168 c 128
 143 176 132 181 120 181 c 0
 109 181 100 177 92 169 c 0
 83 162 78 153 78 142 c 0
 78 131 82 122 90 114 c 128
 98 106 108 103 119 103 c 0
 131 103 141 106 149 113 c 128
 157 120 161 129 161 141 c 0
199 515 m 128
 167 510 145 505 134 500 c 128
 123 495 112 489 101 480 c 0
 92 471 87 462 87 454 c 0
 87 450 100 440 126 425 c 128
 152 410 220 386 327 354 c 1
 405 339 464 317 503 287 c 1
 552 253 577 210 576 158 c 0
 576 137 571 116 559 96 c 128
 547 76 528 58 502 42 c 0
 492 36 478 30 462 24 c 128
 446 18 430 12 413 8 c 0
 376 0 337 -3 293 -3 c 0
 280 -3 266 -2 251 -1 c 128
 236 0 220 1 204 3 c 0
 161 9 130 16 110 24 c 0
 100 28 90 33 80 40 c 128
 70 47 59 56 46 69 c 128
 33 82 25 104 22 134 c 1
 22 160 31 182 50 200 c 128
 69 218 91 227 118 227 c 0
 144 227 167 218 186 199 c 128
 205 180 213 158 213 132 c 0
 213 108 204 87 188 70 c 1
 199 67 211 65 223 62 c 1
 293 58 l 1
 349 57 396 65 433 81 c 0
 478 99 500 124 500 158 c 0
 500 194 479 224 437 245 c 128
 395 266 346 284 291 297 c 128
 236 310 196 322 170 330 c 0
 122 347 87 362 64 378 c 0
 33 398 17 423 17 456 c 0
 17 483 25 505 42 522 c 0
 55 538 76 551 103 562 c 0
 124 571 148 578 174 582 c 0
 268 594 354 592 430 576 c 0
 455 571 483 560 513 544 c 0
 539 530 559 508 571 477 c 1
 510 435 l 1
 507 436 l 1
 500 474 480 497 446 505 c 128
 412 513 370 518 321 520 c 128
 272 522 231 520 199 515 c 128
EndSplineSet
Fore
SplineSet
119 103 m 3xee
 143 103 161 117 161 141 c 3
 161 163 142 181 120 181 c 3
 100 181 78 162 78 142 c 3
 78 120 97 103 119 103 c 3xee
500 158 m 3
 500 194 479 224 437 245 c 0
 317 305 148 320 64 378 c 0
 33 398 17 423 17 456 c 3
 17 566 172 590 290 590 c 3
 464 590 544 545 571 477 c 1
 510 435 l 1
 507 436 l 1
 496 501 441 521 285 521 c 3
 213 521 87 507 87 454 c 3xf6
 87 450 100 440 126 425 c 0
 186 391 426 340 503 287 c 0
 551 254 576 212 576 161 c 3
 576 33 420 -3 293 -3 c 3
 164 -3 22 29 22 134 c 3
 22 186 66 227 118 227 c 3
 170 227 213 185 213 132 c 3
 213 108 204 87 188 70 c 1
 212 64 256 58 293 58 c 3
 383 58 500 82 500 158 c 3
EndSplineSet
EndChar

StartChar: uni0EA5
Encoding: 3749 3749 21
Width: 692
VWidth: 1063
Flags: W
HStem: -3 72<436.291 486.442> -3 58<131.527 200.662> 139 49<126.722 202.063> 259 65<109.537 269.283> 531 71<140.155 408.127>
VStem: -1 77<149.229 228.591> 15 90<445.583 502.457> 208 62<62.1178 132.354> 519 72<112.936 415.987>
LayerCount: 2
Back
SplineSet
591 300 m 2
 591 280 l 1
 591 264 l 1
 591 251 l 2
 591 237 591 222 590 208 c 128
 589 194 587 181 585 168 c 0
 582 131 577 104 569 86 c 0
 558 58 544 36 528 23 c 0
 510 6 487 -3 460 -3 c 0
 426 -3 399 13 379 45 c 0
 363 69 346 106 329 155 c 0
 323 173 316 187 308 197 c 1
 306 203 303 207 300 211 c 128
 297 215 292 220 286 226 c 0
 276 235 261 243 242 249 c 128
 223 255 207 259 194 259 c 0
 169 259 145 255 124 247 c 1
 105 238 91 224 82 205 c 0
 78 195 76 183 76 169 c 2
 76 160 l 1
 78 148 l 1
 81 151 86 156 94 162 c 128
 102 168 110 174 118 177 c 2
 141 185 l 1
 170 188 l 1
 198 188 222 178 241 160 c 128
 260 142 270 119 270 91 c 0
 270 66 261 44 242 25 c 128
 223 6 200 -3 171 -3 c 0
 120 -3 79 11 47 39 c 128
 15 67 -1 109 -1 165 c 0
 -1 180 1 194 5 209 c 2
 11 229 l 1
 24 249 l 2
 30 259 39 269 51 279 c 128
 63 289 76 297 91 304 c 0
 120 317 156 324 199 324 c 0
 224 324 248 319 272 310 c 128
 296 301 316 291 334 279 c 1
 349 266 363 247 377 221 c 1
 411 145 l 1
 438 86 l 1
 445 74 l 1
 449 71 453 69 458 69 c 0
 466 69 475 74 484 84 c 0
 493 96 500 111 504 131 c 0
 514 177 519 234 519 300 c 1
 517 346 l 1
 510 388 l 2
 505 413 496 433 483 448 c 0
 456 479 432 500 411 511 c 1
 380 524 342 531 296 531 c 0
 253 531 214 528 181 520 c 1
 130 511 105 496 105 476 c 0
 105 467 107 459 111 455 c 0
 115 452 121 448 129 444 c 1
 128 440 125 434 122 425 c 128
 119 416 116 409 113 402 c 2
 104 383 l 1
 59 405 l 1
 30 425 15 448 15 473 c 0
 15 512 45 544 104 569 c 0
 130 580 160 587 193 593 c 128
 226 599 260 602 296 602 c 0
 342 602 386 594 425 579 c 0
 455 568 482 552 506 532 c 0
 521 520 534 505 545 486 c 0
 560 460 571 437 577 418 c 0
 586 387 591 348 591 300 c 2
208 97 m 0
 208 107 204 117 196 126 c 128
 188 135 177 139 165 139 c 0
 152 139 141 135 134 128 c 128
 127 121 123 110 123 97 c 0
 123 86 128 77 136 68 c 128
 144 59 154 55 165 55 c 0
 175 55 184 59 194 67 c 1
 203 76 208 86 208 97 c 0
EndSplineSet
Fore
SplineSet
15 473 m 3xbb80
 15 567 184 602 296 602 c 3
 487 602 591 494 591 300 c 3
 591 156 580 -3 460 -3 c 3xbb80
 426 -3 399 13 379 45 c 0
 353 83 325 187 286 226 c 0
 270 241 223 259 194 259 c 3
 128 259 76 236 76 169 c 3
 76 161 77 155 78 148 c 1
 101 171 127 188 170 188 c 3
 225 188 270 146 270 91 c 3
 270 38 225 -3 171 -3 c 3
 66 -3 -1 57 -1 165 c 3x7d80
 -1 275 95 324 199 324 c 3
 251 324 302 300 334 279 c 0
 370 255 412 142 438 86 c 0
 443 78 446 69 458 69 c 3
 511 69 519 225 519 300 c 3
 519 455 442 531 296 531 c 3
 233 531 105 520 105 476 c 3
 105 455 114 452 129 444 c 1
 125 425 112 400 104 383 c 1
 64 402 15 428 15 473 c 3xbb80
165 55 m 3x7980
 186 55 208 76 208 97 c 3
 208 119 188 139 165 139 c 3
 138 139 123 124 123 97 c 3
 123 76 144 55 165 55 c 3x7980
EndSplineSet
EndChar

StartChar: uni0EA7
Encoding: 3751 3751 22
Width: 650
VWidth: 1063
Flags: W
HStem: -4 69<149.189 387.858> 209 45<77.7935 151.417> 519 72<140.371 383.948>
VStem: 2 69<124.335 202.825> 13 71<423 470.667> 158 58<123.857 203.034> 478 74<142.197 440.32>
LayerCount: 2
Back
SplineSet
552 210 m 2
 552 172 543 138 525 107 c 0
 504 72 471 45 429 25 c 0
 420 21 412 17 403 14 c 128
 394 11 380 7 362 4 c 0
 348 2 334 -1 320 -2 c 128
 306 -3 293 -4 279 -4 c 0
 259 -4 239 -3 219 -2 c 128
 199 -1 179 1 160 4 c 0
 123 10 89 26 56 51 c 0
 20 79 2 110 2 146 c 0
 2 186 17 216 47 235 c 0
 68 247 92 254 117 254 c 0
 145 254 169 245 188 227 c 128
 207 209 216 187 216 161 c 0
 216 140 211 123 200 109 c 128
 189 95 172 84 148 77 c 1
 168 73 l 1
 203 69 l 2
 219 67 244 65 279 65 c 0
 288 65 298 66 309 67 c 128
 320 68 329 69 335 70 c 0
 352 73 369 78 386 86 c 0
 415 99 438 117 455 137 c 0
 470 157 478 182 478 210 c 2
 478 367 l 2
 478 392 473 412 463 431 c 128
 453 450 439 467 420 480 c 128
 401 493 378 503 351 509 c 2
 309 517 l 1
 263 519 l 2
 234 519 208 517 187 513 c 128
 166 509 145 500 125 487 c 0
 112 480 103 472 98 462 c 1
 91 453 86 439 84 423 c 1
 13 423 l 1
 13 455 20 482 34 502 c 128
 48 522 70 540 100 553 c 128
 130 566 158 576 182 582 c 128
 206 588 234 591 264 591 c 0
 302 591 338 587 371 579 c 128
 404 571 435 558 463 540 c 128
 491 522 513 498 529 468 c 128
 545 438 552 405 552 367 c 2
 552 210 l 2
158 164 m 0
 158 177 154 187 146 196 c 128
 138 205 128 209 115 209 c 0
 103 209 93 205 83 197 c 1
 75 187 71 176 71 164 c 0
 71 151 75 140 83 131 c 128
 91 122 103 118 115 118 c 0
 128 118 138 122 145 131 c 1
 154 139 158 150 158 164 c 0
EndSplineSet
Fore
SplineSet
216 161 m 3xf6
 216 113 189 89 148 77 c 1
 194 68 217 65 279 65 c 3
 373 65 478 111 478 210 c 2
 478 367 l 2
 478 476 377 519 263 519 c 3
 176 519 94 501 84 423 c 1
 13 423 l 1xee
 13 547 144 591 264 591 c 0
 423 591 552 526 552 367 c 2
 552 210 l 2
 552 64 423 -4 279 -4 c 3
 155 -4 2 27 2 146 c 3
 2 212 49 254 117 254 c 3
 171 254 216 215 216 161 c 3xf6
115 118 m 3
 141 118 158 138 158 164 c 3
 158 189 140 209 115 209 c 3
 90 209 71 189 71 164 c 3xf6
 71 138 89 118 115 118 c 3
EndSplineSet
EndChar

StartChar: uni0EAA
Encoding: 3754 3754 23
Width: 694
VWidth: 1063
Flags: W
HStem: -3 69<435.967 489.509> -3 53<129.369 202.846> 134 48<127.683 204.572> 250 64<107.415 271.335> 350 68<116.131 372.477> 513 69<125.643 421.925>
VStem: -1 77<144.416 218.164> 15 90<432.856 491.56> 211 59<58.3327 127.458> 519 72<103.764 417.506>
LayerCount: 2
Back
SplineSet
591 228 m 1
 591 216 l 2
 591 189 590 170 588 158 c 128
 586 146 586 138 586 131 c 1
 584 125 582 121 581 119 c 2
 569 83 l 2
 558 53 545 32 530 20 c 0
 512 5 488 -3 460 -3 c 0
 426 -3 399 13 379 44 c 0
 363 67 346 102 329 150 c 0
 323 168 316 182 308 191 c 1
 306 196 303 200 300 204 c 128
 297 208 292 213 286 219 c 0
 276 228 261 235 242 241 c 128
 223 247 207 250 194 250 c 0
 169 250 145 246 124 238 c 1
 105 229 91 216 82 198 c 0
 78 188 76 177 76 164 c 2
 76 155 l 1
 78 144 l 1
 81 147 86 151 94 157 c 128
 102 163 110 168 118 171 c 2
 141 179 l 1
 170 182 l 1
 198 182 222 173 241 155 c 128
 260 137 270 115 270 88 c 0
 270 64 261 44 242 25 c 128
 223 6 200 -3 171 -3 c 0
 120 -3 79 11 47 38 c 128
 15 65 -1 105 -1 159 c 0
 -1 174 1 187 5 202 c 2
 11 222 l 1
 24 240 l 2
 30 250 39 261 51 270 c 128
 63 279 76 287 91 294 c 0
 120 307 156 314 199 314 c 0
 224 314 248 309 272 300 c 128
 296 291 316 281 334 270 c 1
 349 257 363 238 377 213 c 1
 411 141 l 1
 438 83 l 1
 445 72 l 2
 449 68 453 66 458 66 c 0
 466 66 475 71 484 80 c 1
 493 92 500 107 504 126 c 0
 514 171 519 226 519 290 c 2
 519 303 l 2
 519 336 517 360 513 378 c 128
 509 396 501 414 489 431 c 1
 431 377 348 350 242 350 c 0
 172 350 117 360 76 381 c 128
 35 402 15 428 15 458 c 0
 15 492 36 522 78 546 c 128
 120 570 175 582 242 582 c 0
 354 582 435 568 482 540 c 1
 502 577 l 1
 517 602 l 1
 547 588 l 1
 583 574 l 1
 572 546 556 518 537 490 c 1
 555 470 569 444 578 413 c 128
 587 382 591 341 591 290 c 2
 591 228 l 1
439 483 m 1
 424 492 399 499 363 505 c 128
 327 511 287 513 242 513 c 0
 206 513 178 510 154 503 c 0
 121 494 105 479 105 460 c 0
 105 443 116 433 137 428 c 0
 159 421 194 418 243 418 c 0
 283 418 320 423 352 432 c 0
 361 435 368 437 372 439 c 128
 376 441 384 445 397 452 c 128
 410 459 424 469 439 483 c 1
211 92 m 256
 211 103 206 112 198 121 c 128
 190 130 179 134 166 134 c 0
 153 134 143 130 135 123 c 128
 127 116 123 105 123 92 c 0
 123 81 127 72 136 63 c 128
 145 54 155 50 166 50 c 0
 176 50 186 54 196 62 c 0
 206 71 211 81 211 92 c 256
EndSplineSet
Fore
SplineSet
537 490 m 1xbdc0
 578 444 591 383 591 290 c 3
 591 207 587 137 569 83 c 0
 550 30 523 -3 460 -3 c 3xbdc0
 426 -3 399 13 379 44 c 0
 363 67 346 102 329 150 c 0
 310 206 268 250 194 250 c 3
 131 250 76 228 76 164 c 3
 76 156 77 150 78 144 c 1
 101 167 134 182 170 182 c 3
 225 182 270 142 270 88 c 3
 270 38 224 -3 171 -3 c 3
 68 -3 -1 54 -1 159 c 3x7ec0
 -1 266 97 314 199 314 c 3
 282 314 349 273 377 213 c 0
 397 170 418 127 438 83 c 0
 442 75 447 66 458 66 c 3
 484 66 499 101 504 126 c 0
 514 171 519 226 519 290 c 3
 519 359 517 392 489 431 c 1
 431 377 348 350 242 350 c 3
 143 350 15 376 15 458 c 3
 15 545 141 582 242 582 c 3
 354 582 435 568 482 540 c 1
 493 561 505 582 517 602 c 1
 538 592 560 583 583 574 c 1
 572 546 556 518 537 490 c 1xbdc0
242 513 m 3
 186 513 105 503 105 460 c 3
 105 428 159 418 243 418 c 3
 333 418 389 437 439 483 c 1
 400 507 313 513 242 513 c 3
166 50 m 3x7cc0
 187 50 211 71 211 92 c 259
 211 115 190 134 166 134 c 3
 140 134 123 118 123 92 c 3
 123 70 144 50 166 50 c 3x7cc0
EndSplineSet
EndChar

StartChar: uni0EAB
Encoding: 3755 3755 24
Width: 754
VWidth: 1063
Flags: W
HStem: -3 68<120.536 284.826> 378 60<74.0746 123.778> 427 52<284.729 342.71> 500 61<457.903 559.214> 519 54<75.7416 144.635> 529 42<284.206 347.715>
VStem: -2 78<105.9 209.409 440.211 516.295> 150 86<442.246 513.688> 238 45<481.295 525.498> 342 77<115.468 429.645> 573 78<33.5703 487.865>
LayerCount: 2
Back
SplineSet
353 482 m 1
 353 492 351 500 349 506 c 0
 344 521 335 529 322 529 c 0
 313 529 306 528 299 525 c 0
 293 521 289 517 286 512 c 2
 283 505 l 1
 283 498 286 492 291 488 c 0
 297 482 306 479 318 479 c 2
 331 479 l 1
 337 480 l 1
 353 482 l 1
150 478 m 0
 150 487 147 497 139 508 c 1
 126 516 l 2
 120 518 115 519 110 519 c 0
 99 519 89 515 80 508 c 1
 72 494 l 1
 70 478 l 2
 70 474 70 470 71 465 c 128
 72 460 75 456 80 450 c 1
 89 442 99 438 110 438 c 0
 117 438 121 439 124 440 c 2
 132 445 l 1
 139 450 l 1
 147 459 150 468 150 478 c 0
419 155 m 1
 404 93 371 49 317 21 c 0
 306 15 289 10 268 4 c 0
 246 -1 227 -3 211 -3 c 0
 176 -3 145 1 117 9 c 128
 89 17 66 29 49 46 c 0
 15 76 -2 116 -2 165 c 0
 -2 186 5 207 17 231 c 1
 30 253 l 1
 41 268 l 1
 75 314 l 1
 105 352 l 1
 124 380 l 1
 104 378 l 1
 81 382 l 1
 66 386 l 1
 48 395 l 1
 30 405 l 1
 10 423 -1 445 -1 471 c 0
 -1 499 8 524 26 544 c 1
 48 563 75 573 107 573 c 0
 142 573 173 565 197 548 c 1
 223 527 236 502 236 473 c 0
 236 460 233 446 228 431 c 2
 221 408 l 1
 211 383 l 1
 185 336 l 1
 144 275 l 1
 86 195 l 1
 78 182 l 1
 76 165 l 1
 76 137 87 113 110 93 c 0
 114 90 120 87 128 83 c 128
 136 79 144 76 151 73 c 2
 178 67 l 1
 208 65 l 1
 225 65 l 1
 239 70 l 2
 248 71 258 74 268 80 c 1
 302 87 327 116 342 165 c 1
 343 427 l 1
 325 429 311 431 300 433 c 128
 289 435 282 436 279 438 c 128
 276 440 271 442 266 446 c 0
 257 451 250 459 245 468 c 128
 240 477 238 488 238 500 c 0
 238 512 239 522 242 529 c 0
 248 541 259 551 273 559 c 128
 287 567 305 571 325 571 c 0
 352 571 375 564 394 549 c 1
 400 542 406 531 412 515 c 1
 435 549 480 564 547 561 c 128
 614 558 648 518 651 444 c 1
 651 104 l 1
 648 67 638 31 622 -3 c 1
 532 -3 l 1
 537 5 542 13 546 22 c 0
 554 37 559 49 562 58 c 0
 569 74 573 89 573 106 c 2
 573 427 l 1
 570 473 553 497 523 500 c 128
 493 503 458 484 419 446 c 1
 419 155 l 1
EndSplineSet
Fore
SplineSet
283 505 m 3xa7e0
 283 488 300 479 318 479 c 3
 331 479 341 481 353 482 c 1
 353 507 342 529 322 529 c 3
 300 529 283 516 283 505 c 3xa7e0
70 478 m 3
 70 454 88 438 110 438 c 3
 134 438 150 457 150 478 c 3
 150 498 134 519 110 519 c 3xcbe0
 84 519 70 497 70 478 c 3
573 427 m 2xb3e0
 573 475 552 500 517 500 c 3xb3e0
 488 500 455 481 419 446 c 1
 419 155 l 2
 419 75 316 -3 211 -3 c 3
 89 -3 -2 50 -2 165 c 3
 -2 231 72 303 105 352 c 2
 124 380 l 1
 124 380 109 378 104 378 c 3
 56 378 -1 412 -1 471 c 3
 -1 533 45 573 107 573 c 3xcbe0
 175 573 236 536 236 473 c 3
 236 419 201 360 185 336 c 0
 154 289 76 192 76 165 c 3
 76 96 136 65 208 65 c 3
 278 65 342 115 342 165 c 2
 343 427 l 1
 286 434 238 439 238 500 c 3xb3e0
 238 549 276 571 325 571 c 3x87e0
 372 571 397 554 412 515 c 1
 433 546 473 561 531 561 c 3
 609 561 651 525 651 444 c 2
 651 107 l 2
 651 70 638 34 622 0 c 1
 532 0 l 1
 551 30 573 68 573 109 c 2
 573 427 l 2xb3e0
EndSplineSet
EndChar

StartChar: uni0EAD
Encoding: 3757 3757 25
Width: 695
VWidth: 1063
Flags: W
HStem: -3 70<167.181 408.769> 208 52<68.5221 135.892> 281 73<113.408 375.122> 531 71<148.381 414.528>
VStem: 2 71<386.924 481.194> 2 62<131.642 204.084> 141 59<131.484 203.441> 510 70<150.576 382.432>
LayerCount: 2
Back
SplineSet
580 214 m 1
 579 185 l 1
 573 158 l 1
 568 142 560 124 550 103 c 1
 539 89 526 75 510 60 c 0
 496 48 477 36 455 26 c 0
 416 7 366 -3 306 -3 c 0
 249 -3 197 4 150 17 c 0
 134 22 124 25 122 26 c 0
 113 29 102 34 91 40 c 128
 80 46 72 52 67 55 c 128
 62 58 54 65 42 75 c 0
 15 102 2 132 2 164 c 0
 2 194 12 217 31 233 c 0
 50 251 75 260 104 260 c 0
 129 260 151 250 172 231 c 1
 191 211 200 189 200 165 c 0
 200 148 197 134 190 121 c 128
 183 108 174 98 162 90 c 1
 185 83 l 1
 198 80 l 1
 229 73 l 1
 265 69 l 1
 306 67 l 2
 336 67 363 71 388 79 c 128
 413 87 436 98 455 113 c 0
 465 121 472 129 478 135 c 128
 484 141 489 149 495 159 c 1
 506 185 l 1
 510 214 l 1
 510 374 l 1
 509 383 l 1
 441 315 358 281 260 281 c 0
 186 281 124 295 75 320 c 128
 26 345 2 384 2 436 c 0
 2 471 13 502 37 527 c 128
 61 552 94 571 137 583 c 128
 180 595 230 602 289 602 c 0
 373 602 442 583 497 547 c 128
 552 511 580 454 580 375 c 2
 580 214 l 1
484 462 m 1
 482 465 479 468 476 471 c 128
 473 474 469 477 466 480 c 2
 458 485 l 1
 444 495 l 2
 425 507 401 516 373 523 c 1
 355 526 l 1
 331 529 l 1
 287 531 l 1
 266 531 l 1
 239 529 l 1
 212 525 l 1
 191 522 l 1
 143 508 l 1
 130 502 l 2
 122 499 113 494 104 487 c 2
 93 480 l 1
 80 464 l 1
 77 456 75 446 73 436 c 1
 73 407 88 386 118 373 c 128
 148 360 197 354 263 354 c 1
 300 355 l 2
 304 355 310 355 315 356 c 128
 320 357 327 359 335 361 c 0
 356 365 376 374 397 386 c 1
 432 404 461 429 484 462 c 1
102 208 m 256
 91 208 82 204 75 196 c 128
 68 188 64 178 64 167 c 256
 64 156 68 147 75 139 c 128
 82 131 91 127 102 127 c 256
 113 127 122 131 130 139 c 128
 138 147 141 156 141 167 c 256
 141 178 138 188 130 196 c 128
 122 204 113 208 102 208 c 256
EndSplineSet
Fore
SplineSet
200 165 m 3xf7
 200 129 184 105 162 90 c 1
 204 76 251 68 306 67 c 0
 407 67 510 126 510 214 c 2
 510 374 l 1
 509 383 l 1
 441 315 358 281 260 281 c 3
 135 281 2 319 2 436 c 3xfb
 2 568 150 602 289 602 c 3
 450 602 580 535 580 375 c 2
 580 214 l 2
 580 74 458 -3 306 -3 c 3
 169 -3 2 44 2 164 c 3
 2 223 47 260 104 260 c 3
 153 260 200 215 200 165 c 3xf7
484 462 m 1
 450 513 351 531 287 531 c 3
 224 531 73 514 73 436 c 3
 73 360 168 354 263 354 c 3
 359 354 438 396 484 462 c 1
141 167 m 259
 141 189 124 208 102 208 c 259
 80 208 64 189 64 167 c 259xf7
 64 146 81 127 102 127 c 259
 124 127 141 145 141 167 c 259
EndSplineSet
EndChar

StartChar: uni0EAE
Encoding: 3758 3758 26
Width: 673
VWidth: 1063
Flags: W
HStem: -3 63<179.311 422.875> 185 48<68.7624 143.275> 438 69<306.762 442.604> 515 63<77.9797 209.387>
VStem: -2 79<457.312 511.817> 4 58<110.745 178.243> 148 54<108.088 180.116> 500 80<115.321 225.029>
LayerCount: 2
Back
SplineSet
148 144 m 0
 148 155 145 165 137 173 c 128
 129 181 118 185 105 185 c 0
 94 185 84 180 76 172 c 1
 67 165 62 155 62 144 c 0
 62 133 66 124 75 116 c 128
 84 108 94 104 105 104 c 0
 118 104 129 108 137 115 c 128
 145 122 148 132 148 144 c 0
177 71 m 1
 189 68 201 65 213 63 c 1
 287 60 l 1
 345 60 393 68 431 85 c 0
 477 104 500 131 500 166 c 0
 500 203 480 233 440 257 c 128
 400 281 336 305 250 329 c 2
 186 347 l 1
 133 366 l 1
 62 394 l 1
 38 405 22 415 13 427 c 0
 3 438 -2 453 -2 471 c 0
 -2 489 1 503 8 515 c 128
 15 527 25 539 41 551 c 128
 57 563 76 573 96 577 c 1
 164 579 l 2
 173 579 182 577 192 574 c 128
 202 571 217 566 238 557 c 2
 356 508 l 1
 367 507 l 1
 374 507 l 2
 398 507 419 513 438 525 c 0
 447 530 457 541 471 557 c 128
 485 573 498 592 510 613 c 1
 591 593 l 1
 549 531 510 488 473 464 c 0
 464 458 454 453 443 449 c 0
 426 442 409 438 391 438 c 2
 373 439 l 1
 367 439 l 1
 356 440 l 2
 343 440 322 445 297 455 c 2
 228 486 l 2
 213 492 201 497 190 501 c 128
 179 505 171 508 165 510 c 128
 159 512 152 513 144 514 c 128
 136 515 130 515 129 515 c 0
 114 515 102 513 93 509 c 128
 84 505 79 497 77 486 c 1
 77 474 81 465 90 459 c 128
 99 453 116 446 143 436 c 1
 194 419 l 1
 265 398 l 1
 326 378 l 1
 373 361 l 1
 421 342 l 2
 450 330 477 315 502 298 c 0
 554 263 580 219 580 166 c 0
 580 144 574 122 562 101 c 128
 550 80 530 62 503 45 c 0
 493 39 480 33 463 26 c 128
 446 19 429 14 412 10 c 0
 374 1 332 -3 287 -3 c 0
 273 -3 258 -3 243 -2 c 128
 228 -1 211 0 194 2 c 0
 149 8 117 15 97 24 c 0
 86 28 75 33 65 40 c 128
 55 47 44 54 33 63 c 0
 30 66 27 70 24 73 c 1
 27 73 l 1
 11 91 4 112 4 136 c 0
 4 163 14 185 33 204 c 128
 52 223 75 233 103 233 c 0
 130 233 154 223 173 204 c 128
 192 185 202 163 202 136 c 0
 202 111 194 89 177 71 c 1
EndSplineSet
Fore
SplineSet
105 104 m 3xf7
 131 104 148 118 148 144 c 3
 148 168 130 185 105 185 c 3
 84 185 62 165 62 144 c 3
 62 122 83 104 105 104 c 3xf7
103 233 m 3
 156 233 202 189 202 136 c 3
 202 111 194 89 177 71 c 1
 209 63 248 60 287 60 c 3
 381 60 500 87 500 166 c 3
 500 203 480 233 440 257 c 0
 360 305 206 334 62 394 c 0xf7
 26 409 -2 426 -2 471 c 0
 -2 540 58 578 128 578 c 3
 234 578 327 507 374 507 c 3
 445 507 482 563 510 613 c 1
 591 593 l 1
 531 504 476 438 373 438 c 3
 290 438 204 515 129 515 c 3
 100 515 77 510 77 486 c 3xfb
 77 474 80 464 90 459 c 0
 200 408 351 381 462 322 c 0
 527 288 580 240 580 166 c 3
 580 45 422 -3 287 -3 c 3
 153 -3 4 26 4 136 c 3
 4 189 49 233 103 233 c 3
EndSplineSet
EndChar

StartChar: uni0EB0
Encoding: 3760 3760 27
Width: 523
VWidth: 1063
Flags: W
HStem: 33 60<128.09 289.751> 211 44<45.8457 105.853> 270 61<129.037 290.529> 449 43<46.2632 108.883>
VStem: -1 43<143.354 209.319 380.811 446.629> 108 42<142.312 206.61 378.288 445.477> 358 54<158.681 245 395.277 483>
LayerCount: 2
Back
SplineSet
414 468 m 2
 414 437 408 409 395 384 c 0
 380 355 359 330 331 311 c 0
 313 298 292 288 269 281 c 128
 246 274 221 270 196 270 c 0
 178 270 166 271 158 272 c 128
 150 273 138 276 123 280 c 1
 90 287 63 300 40 321 c 128
 17 342 4 367 1 397 c 1
 1 407 l 2
 1 432 8 452 22 468 c 128
 36 484 53 492 72 492 c 0
 93 492 111 485 126 471 c 128
 141 457 150 438 152 414 c 1
 152 399 150 387 146 375 c 128
 142 363 136 353 128 345 c 1
 135 341 143 337 155 334 c 1
 172 332 l 1
 193 331 l 2
 201 331 207 332 214 332 c 128
 221 332 234 334 253 337 c 1
 274 343 291 350 302 359 c 0
 322 373 337 391 347 410 c 0
 355 429 359 453 359 483 c 1
 414 483 l 1
 414 476 l 1
 414 468 l 2
413 229 m 2
 413 201 407 173 395 145 c 1
 380 117 359 93 330 74 c 2
 300 55 l 1
 265 43 l 1
 243 36 219 33 193 33 c 0
 177 33 165 33 157 34 c 128
 149 35 137 38 121 42 c 0
 85 50 57 64 36 85 c 128
 15 106 2 130 0 160 c 2
 -1 170 l 1
 -1 193 5 213 19 230 c 128
 33 247 50 255 70 255 c 0
 90 255 108 248 123 234 c 128
 138 220 148 201 150 178 c 1
 150 165 147 151 144 139 c 128
 141 127 135 116 126 108 c 1
 129 105 133 102 138 101 c 128
 143 100 148 99 153 97 c 2
 171 94 l 1
 192 93 l 2
 213 93 232 96 252 100 c 128
 272 104 288 111 300 121 c 0
 321 136 335 153 344 172 c 128
 353 191 358 216 358 245 c 1
 412 246 l 1
 413 238 l 1
 413 229 l 2
113 414 m 0
 113 424 108 432 100 439 c 128
 92 446 83 449 73 449 c 0
 66 449 59 446 51 438 c 0
 45 430 43 422 43 413 c 1
 44 409 l 1
 44 401 47 394 54 387 c 128
 61 380 69 377 79 377 c 0
 88 377 96 381 103 388 c 128
 110 395 113 404 113 414 c 0
108 179 m 0
 108 187 104 194 97 201 c 128
 90 208 81 211 70 211 c 0
 64 211 57 207 51 199 c 128
 45 191 42 181 42 171 c 0
 42 163 45 155 52 148 c 0
 59 142 67 140 76 140 c 256
 85 140 93 143 99 151 c 128
 105 159 108 168 108 179 c 0
EndSplineSet
Fore
SplineSet
414 483 m 1
 414 351 327 270 196 270 c 3
 100 270 1 312 1 407 c 3
 1 452 30 492 72 492 c 3
 117 492 152 458 152 414 c 3
 152 384 143 360 128 345 c 1
 144 336 167 332 193 331 c 1
 296 331 359 379 359 483 c 1
 414 483 l 1
150 178 m 3
 150 150 142 122 126 108 c 1
 139 95 168 94 192 93 c 1
 296 93 358 143 358 245 c 1
 412 246 l 1
 412 106 317 33 193 33 c 3
 94 33 -1 75 -1 170 c 3
 -1 214 27 255 70 255 c 3
 113 255 150 220 150 178 c 3
79 377 m 3
 98 377 113 395 113 414 c 3
 113 433 92 449 73 449 c 3
 57 449 43 431 43 413 c 3
 43 394 55 377 79 377 c 3
76 140 m 259
 96 140 108 159 108 179 c 3
 108 197 89 211 70 211 c 3
 54 211 42 188 42 171 c 3
 42 153 57 140 76 140 c 259
EndSplineSet
EndChar

StartChar: uni0EB1
Encoding: 3761 3761 28
Width: 0
VWidth: 1063
Flags: W
HStem: 654 62<-418.228 -224.224> 838 46<-518.339 -450.944>
VStem: -575 52<764.842 834.92> -448 57<763.5 833.562> -139 65<794.283 874>
LayerCount: 2
Back
SplineSet
-73 858 m 2
 -73 826 -81 797 -97 769 c 128
 -113 741 -138 717 -174 696 c 0
 -194 684 -220 674 -251 664 c 0
 -263 661 -277 659 -293 657 c 128
 -309 655 -324 654 -338 654 c 0
 -366 654 -398 656 -433 663 c 128
 -468 670 -501 685 -529 708 c 128
 -557 731 -572 757 -575 785 c 1
 -575 795 l 2
 -575 819 -567 839 -550 857 c 128
 -533 875 -512 884 -487 884 c 256
 -462 884 -442 876 -423 861 c 128
 -404 846 -393 827 -391 803 c 1
 -391 788 -394 774 -398 762 c 0
 -402 753 -405 746 -407 743 c 128
 -409 740 -413 737 -420 732 c 1
 -413 727 -402 723 -387 720 c 2
 -365 717 l 1
 -342 716 l 2
 -333 716 -323 716 -313 717 c 128
 -303 718 -288 720 -269 723 c 1
 -245 729 -226 736 -210 746 c 0
 -184 761 -166 778 -155 799 c 128
 -144 820 -139 844 -139 874 c 1
 -74 874 l 1
 -73 867 l 1
 -73 858 l 2
-448 803 m 0
 -448 813 -451 822 -459 828 c 128
 -467 834 -477 838 -489 838 c 0
 -498 838 -506 834 -514 825 c 0
 -516 823 -519 818 -521 811 c 2
 -523 795 l 2
 -523 787 -520 779 -512 770 c 1
 -504 764 -495 761 -485 761 c 2
 -482 761 l 2
 -472 761 -463 765 -457 772 c 128
 -451 779 -448 790 -448 803 c 0
EndSplineSet
Fore
SplineSet
-342 716 m 3
 -226 716 -139 761 -139 874 c 1
 -74 874 l 1
 -74 714 -210 654 -338 654 c 3
 -438 654 -575 697 -575 785 c 3
 -575 840 -542 884 -487 884 c 259
 -438 884 -391 848 -391 803 c 3
 -391 770 -401 745 -420 732 c 1
 -404 721 -371 716 -342 716 c 3
-448 803 m 3
 -448 825 -467 838 -489 838 c 3
 -510 838 -523 819 -523 795 c 3
 -523 777 -506 761 -485 761 c 3
 -460 761 -448 777 -448 803 c 3
EndSplineSet
EndChar

StartChar: uni0EB2
Encoding: 3762 3762 29
Width: 463
VWidth: 1063
Flags: W
HStem: 0 21G<282 361.733> 300 51<70.8024 135.704> 438 43<84.6492 134.656> 512 66<102.19 252.748>
VStem: 0 64<355.92 457.088> 142 51<355.75 432.636> 308 75<13.9343 458.973>
LayerCount: 2
Back
SplineSet
383 75 m 1
 354 0 l 1
 282 0 l 1
 289 12 297 37 308 76 c 1
 308 392 l 1
 306 417 302 436 295 448 c 128
 288 460 276 473 258 487 c 0
 235 504 211 512 186 512 c 0
 155 512 120 502 84 481 c 1
 106 481 123 479 133 476 c 0
 148 472 159 465 167 456 c 0
 184 439 193 418 193 392 c 0
 193 364 185 342 168 326 c 1
 152 308 133 300 109 300 c 0
 84 300 62 306 42 319 c 1
 22 334 8 359 2 392 c 1
 0 418 l 1
 0 444 10 472 29 501 c 0
 44 522 64 541 89 554 c 0
 119 570 150 578 184 578 c 0
 232 577 267 569 289 554 c 128
 311 539 331 520 348 496 c 0
 367 469 380 434 384 392 c 1
 383 75 l 1
142 395 m 0
 142 406 139 416 132 425 c 1
 123 434 113 438 103 438 c 0
 93 438 84 433 76 425 c 128
 68 417 64 406 64 395 c 0
 64 383 68 373 75 364 c 1
 84 356 93 351 103 351 c 256
 113 351 123 356 131 364 c 128
 139 372 142 382 142 395 c 0
EndSplineSet
Fore
SplineSet
193 392 m 7
 193 341 158 300 109 300 c 7
 36 300 0 345 0 418 c 7
 0 509 90 578 184 578 c 7
 303 578 384 494 384 392 c 6
 383 75 l 6
 383 52 354 0 354 0 c 5
 282 0 l 5
 289 12 308 53 308 76 c 6
 308 392 l 6
 308 458 253 512 186 512 c 7
 155 512 120 502 84 481 c 5
 152 481 193 453 193 392 c 7
103 351 m 263
 125 351 142 371 142 395 c 7
 142 418 125 438 103 438 c 7
 82 438 64 416 64 395 c 7
 64 372 82 351 103 351 c 263
EndSplineSet
EndChar

StartChar: uni0EB3
Encoding: 3763 3763 30
Width: 463
VWidth: 1063
Flags: W
HStem: 0 21G<282 361.733> 300 51<70.8024 135.704> 438 43<84.6492 134.656> 512 66<102.19 252.748> 670 59<-242.053 -168.104> 812 56<-241.804 -168.438>
VStem: -307 59<734.392 806.326> -163 59<734.053 806.434> 0 64<355.92 457.088> 142 51<355.75 432.636> 308 75<13.9343 458.973>
LayerCount: 2
Back
SplineSet
-105 776 m 0
 -105 746 -115 719 -134 696 c 128
 -153 673 -178 662 -206 662 c 0
 -234 662 -256 673 -276 694 c 128
 -296 715 -306 743 -306 776 c 256
 -306 809 -296 836 -277 858 c 128
 -258 880 -235 892 -206 892 c 0
 -179 892 -155 880 -135 858 c 0
 -115 838 -105 811 -105 776 c 0
-155 783 m 0
 -155 798 -161 812 -171 823 c 128
 -181 834 -193 839 -206 839 c 0
 -220 839 -232 833 -242 822 c 128
 -252 811 -256 797 -256 781 c 0
 -256 764 -252 750 -243 737 c 128
 -234 724 -222 717 -207 717 c 0
 -192 717 -180 724 -170 737 c 128
 -160 750 -155 765 -155 783 c 0
383 73 m 1
 354 -2 l 1
 282 -2 l 1
 289 10 297 35 308 74 c 1
 308 390 l 1
 306 415 302 434 295 446 c 128
 288 458 276 471 258 485 c 0
 235 502 211 510 186 510 c 0
 155 510 120 500 84 479 c 1
 106 479 123 477 133 474 c 0
 148 470 159 463 167 454 c 0
 184 437 193 416 193 390 c 0
 193 362 185 340 168 324 c 1
 152 306 133 298 109 298 c 0
 84 298 62 304 42 317 c 1
 22 332 8 357 2 390 c 1
 0 416 l 1
 0 442 10 470 29 499 c 0
 44 520 64 539 89 552 c 0
 119 568 150 576 184 576 c 0
 232 575 267 567 289 552 c 128
 311 537 331 518 348 494 c 0
 367 467 380 432 384 390 c 1
 383 73 l 1
142 393 m 0
 142 404 139 414 132 423 c 1
 123 432 113 436 103 436 c 0
 93 436 84 431 76 423 c 128
 68 415 64 404 64 393 c 0
 64 381 68 371 75 362 c 1
 84 354 93 349 103 349 c 256
 113 349 123 354 131 362 c 128
 139 370 142 380 142 393 c 0
EndSplineSet
Fore
Refer: 52 3789 N 1 0 0 1 94 0 2
Refer: 29 3762 N 1 0 0 1 0 0 2
EndChar

StartChar: uni0EB4
Encoding: 3764 3764 31
Width: 0
VWidth: 1063
Flags: W
HStem: 625 63<-562.327 -471.378 -350.351 -259.257> 837 65<-538.886 -281.715>
VStem: -669 67<720.086 798.209> -220 67<721.995 795.832>
LayerCount: 2
Back
SplineSet
-153 757 m 0
 -153 728 -167 702 -195 678 c 1
 -225 654 -264 637 -311 625 c 1
 -320 625 l 2
 -329 625 -337 628 -343 634 c 128
 -349 640 -352 648 -352 657 c 0
 -352 664 -350 669 -346 675 c 128
 -342 681 -335 685 -326 688 c 0
 -295 695 -270 704 -250 715 c 1
 -230 728 -220 741 -220 757 c 0
 -220 780 -239 800 -275 816 c 1
 -313 830 -358 837 -411 837 c 0
 -464 837 -510 830 -548 817 c 1
 -584 802 -602 782 -602 757 c 0
 -602 741 -592 728 -572 715 c 0
 -555 706 -530 696 -497 688 c 0
 -490 687 -483 683 -476 676 c 0
 -472 671 -470 665 -470 657 c 0
 -470 647 -473 639 -479 633 c 128
 -485 627 -493 625 -503 625 c 2
 -511 625 l 1
 -557 636 -596 654 -625 678 c 128
 -654 702 -669 728 -669 757 c 0
 -669 794 -644 827 -593 857 c 128
 -542 887 -482 902 -411 902 c 0
 -341 902 -281 887 -230 858 c 128
 -179 829 -153 795 -153 757 c 0
EndSplineSet
Fore
SplineSet
-470 657 m 3
 -470 637 -483 625 -503 625 c 3
 -550 625 -669 682 -669 757 c 3
 -669 850 -517 902 -411 902 c 3
 -305 902 -153 851 -153 757 c 3
 -153 681 -270 625 -320 625 c 3
 -338 625 -352 639 -352 657 c 3
 -352 674 -340 683 -326 688 c 0
 -284 698 -220 716 -220 757 c 3
 -220 819 -337 837 -411 837 c 3
 -487 837 -602 822 -602 757 c 3
 -602 716 -542 699 -497 688 c 0
 -484 686 -470 675 -470 657 c 3
EndSplineSet
EndChar

StartChar: uni0EB5
Encoding: 3765 3765 32
Width: 0
VWidth: 1063
Flags: W
HStem: 625 63<-562.444 -471.378 -350.351 -286.469> 632 93<-286 -108> 837 65<-538.886 -281.715>
VStem: -669 67<721.18 798.209> -220 67<720.842 795.832>
LayerCount: 2
Back
SplineSet
-173 700 m 1
 -157 705 -140 713 -121 722 c 1
 -108 725 l 1
 -101 725 -95 722 -90 715 c 128
 -85 708 -83 701 -83 694 c 0
 -83 689 -84 684 -86 680 c 128
 -88 676 -92 671 -98 668 c 0
 -119 657 -147 649 -181 641 c 1
 -220 634 l 1
 -257 632 l 1
 -286 632 l 1
 -294 629 -302 627 -311 625 c 1
 -320 625 l 2
 -329 625 -337 628 -343 634 c 128
 -349 640 -352 648 -352 657 c 0
 -352 664 -350 669 -346 675 c 128
 -342 681 -335 685 -326 688 c 0
 -295 695 -270 704 -250 715 c 1
 -230 728 -220 741 -220 757 c 0
 -220 780 -239 800 -275 816 c 1
 -313 830 -358 837 -411 837 c 0
 -464 837 -510 830 -548 817 c 1
 -584 802 -602 782 -602 757 c 0
 -602 741 -592 728 -572 715 c 0
 -555 706 -530 696 -497 688 c 0
 -490 687 -483 683 -476 676 c 0
 -472 671 -470 665 -470 657 c 0
 -470 647 -473 639 -479 633 c 128
 -485 627 -493 625 -503 625 c 2
 -511 625 l 1
 -557 636 -596 654 -625 678 c 128
 -654 702 -669 728 -669 757 c 0
 -669 794 -644 827 -593 857 c 128
 -542 887 -482 902 -411 902 c 0
 -341 902 -281 887 -230 858 c 128
 -179 829 -153 795 -153 757 c 0
 -153 737 -160 718 -173 700 c 1
EndSplineSet
Fore
SplineSet
-470 657 m 3xb8
 -470 637 -483 625 -503 625 c 3xb8
 -544 625 -669 679 -669 757 c 3
 -669 850 -517 902 -411 902 c 3
 -305 902 -153 851 -153 757 c 3
 -153 737 -160 718 -173 700 c 1
 -154 706 -122 725 -108 725 c 3
 -94 725 -83 708 -83 694 c 3
 -83 681 -88 673 -98 668 c 0
 -142 645 -213 632 -286 632 c 1x78
 -296 628 -306 625 -320 625 c 3
 -338 625 -352 639 -352 657 c 3
 -352 674 -340 683 -326 688 c 0
 -284 698 -220 716 -220 757 c 3
 -220 819 -337 837 -411 837 c 3
 -487 837 -602 822 -602 757 c 3
 -602 716 -542 699 -497 688 c 0
 -484 686 -470 675 -470 657 c 3xb8
EndSplineSet
EndChar

StartChar: uni0EB6
Encoding: 3766 3766 33
Width: 0
VWidth: 1063
Flags: W
HStem: 625 63<-562.327 -471.378 -350.351 -259.257> 696 92<-442.97 -378.223> 837 65<-538.886 -281.715>
VStem: -669 67<720.086 798.209> -449 77<700.776 783.054> -220 67<721.995 795.832>
LayerCount: 2
Back
SplineSet
-372 742 m 256
 -372 729 -376 718 -384 709 c 128
 -392 700 -400 696 -410 696 c 256
 -420 696 -429 700 -436 708 c 128
 -443 716 -448 728 -449 742 c 0
 -449 754 -445 765 -438 773 c 128
 -431 781 -421 787 -410 788 c 0
 -400 788 -392 784 -384 775 c 128
 -376 766 -372 755 -372 742 c 256
-153 757 m 0
 -153 728 -167 702 -195 678 c 1
 -225 654 -264 637 -311 625 c 1
 -320 625 l 2
 -329 625 -337 628 -343 634 c 128
 -349 640 -352 648 -352 657 c 0
 -352 664 -350 669 -346 675 c 128
 -342 681 -335 685 -326 688 c 0
 -295 695 -270 704 -250 715 c 1
 -230 728 -220 741 -220 757 c 0
 -220 780 -239 800 -275 816 c 1
 -313 830 -358 837 -411 837 c 0
 -464 837 -510 830 -548 817 c 1
 -584 802 -602 782 -602 757 c 0
 -602 741 -592 728 -572 715 c 0
 -555 706 -530 696 -497 688 c 0
 -490 687 -483 683 -476 676 c 0
 -472 671 -470 665 -470 657 c 0
 -470 647 -473 639 -479 633 c 128
 -485 627 -493 625 -503 625 c 2
 -511 625 l 1
 -557 636 -596 654 -625 678 c 128
 -654 702 -669 728 -669 757 c 0
 -669 794 -644 827 -593 857 c 128
 -542 887 -482 902 -411 902 c 0
 -341 902 -281 887 -230 858 c 128
 -179 829 -153 795 -153 757 c 0
EndSplineSet
Fore
SplineSet
-470 657 m 3
 -470 637 -483 625 -503 625 c 3
 -550 625 -669 682 -669 757 c 3
 -669 850 -517 902 -411 902 c 3
 -305 902 -153 851 -153 757 c 3
 -153 681 -270 625 -320 625 c 3
 -338 625 -352 639 -352 657 c 3
 -352 674 -340 683 -326 688 c 0
 -284 698 -220 716 -220 757 c 3
 -220 819 -337 837 -411 837 c 3
 -487 837 -602 822 -602 757 c 3
 -602 716 -542 699 -497 688 c 0
 -484 686 -470 675 -470 657 c 3
-410 788 m 3
 -388 788 -372 765 -372 742 c 259
 -372 719 -388 696 -410 696 c 259
 -434 696 -449 718 -449 742 c 3
 -449 766 -432 788 -410 788 c 3
EndSplineSet
EndChar

StartChar: uni0EB7
Encoding: 3767 3767 34
Width: 0
VWidth: 1063
Flags: W
HStem: 625 63<-562.444 -471.378 -350.351 -286.469> 632 93<-286 -108> 696 92<-442.97 -378.223> 837 65<-538.886 -281.715>
VStem: -669 67<721.18 798.209> -449 77<700.776 783.054> -220 67<720.842 795.832>
LayerCount: 2
Back
SplineSet
-173 700 m 1
 -157 705 -140 713 -121 722 c 1
 -108 725 l 1
 -101 725 -95 722 -90 715 c 128
 -85 708 -83 701 -83 694 c 0
 -83 689 -84 684 -86 680 c 128
 -88 676 -92 671 -98 668 c 0
 -119 657 -147 649 -181 641 c 1
 -220 634 l 1
 -257 632 l 1
 -286 632 l 1
 -294 629 -302 627 -311 625 c 1
 -320 625 l 2
 -329 625 -337 628 -343 634 c 128
 -349 640 -352 648 -352 657 c 0
 -352 664 -350 669 -346 675 c 128
 -342 681 -335 685 -326 688 c 0
 -295 695 -270 704 -250 715 c 1
 -230 728 -220 741 -220 757 c 0
 -220 780 -239 800 -275 816 c 1
 -313 830 -358 837 -411 837 c 0
 -464 837 -510 830 -548 817 c 1
 -584 802 -602 782 -602 757 c 0
 -602 741 -592 728 -572 715 c 0
 -555 706 -530 696 -497 688 c 0
 -490 687 -483 683 -476 676 c 0
 -472 671 -470 665 -470 657 c 0
 -470 647 -473 639 -479 633 c 128
 -485 627 -493 625 -503 625 c 2
 -511 625 l 1
 -557 636 -596 654 -625 678 c 128
 -654 702 -669 728 -669 757 c 0
 -669 794 -644 827 -593 857 c 128
 -542 887 -482 902 -411 902 c 0
 -341 902 -281 887 -230 858 c 128
 -179 829 -153 795 -153 757 c 0
 -153 737 -160 718 -173 700 c 1
-372 742 m 256
 -372 729 -376 718 -384 709 c 128
 -392 700 -400 696 -410 696 c 256
 -420 696 -429 700 -436 708 c 128
 -443 716 -448 728 -449 742 c 0
 -449 754 -445 765 -438 773 c 128
 -431 781 -421 787 -410 788 c 0
 -400 788 -392 784 -384 775 c 128
 -376 766 -372 755 -372 742 c 256
EndSplineSet
Fore
SplineSet
-470 657 m 3x9e
 -470 637 -483 625 -503 625 c 3x9e
 -544 625 -669 679 -669 757 c 3
 -669 850 -517 902 -411 902 c 3
 -305 902 -153 851 -153 757 c 3
 -153 737 -160 718 -173 700 c 1
 -154 706 -122 725 -108 725 c 3
 -94 725 -83 708 -83 694 c 3
 -83 681 -88 673 -98 668 c 0
 -142 645 -213 632 -286 632 c 1x5e
 -296 628 -306 625 -320 625 c 3
 -338 625 -352 639 -352 657 c 3
 -352 674 -340 683 -326 688 c 0
 -284 698 -220 716 -220 757 c 3
 -220 819 -337 837 -411 837 c 3
 -487 837 -602 822 -602 757 c 3
 -602 716 -542 699 -497 688 c 0
 -484 686 -470 675 -470 657 c 3x9e
-410 788 m 3x3e
 -388 788 -372 765 -372 742 c 259
 -372 719 -388 696 -410 696 c 259
 -434 696 -449 718 -449 742 c 3
 -449 766 -432 788 -410 788 c 3x3e
EndSplineSet
EndChar

StartChar: uni0EB8
Encoding: 3768 3768 35
Width: 0
VWidth: 1063
Flags: W
HStem: -181 38<-342.497 -297.376> -98 28<-342.591 -293.166>
VStem: -385 41<-141.976 -99.3265> -297 65<-302.288 -259 -142.993 -98.2715>
LayerCount: 2
Back
SplineSet
-300 -137 m 0
 -306 -141 -312 -143 -319 -143 c 0
 -324 -143 -329 -141 -335 -136 c 128
 -341 -131 -344 -126 -344 -119 c 256
 -344 -112 -341 -108 -336 -104 c 128
 -331 -100 -324 -98 -316 -98 c 0
 -308 -98 -301 -100 -297 -104 c 0
 -293 -110 -291 -114 -291 -120 c 0
 -291 -126 -294 -132 -300 -137 c 0
-297 -263 m 1
 -325 -313 l 1
 -252 -313 l 1
 -241 -290 -234 -273 -232 -262 c 1
 -232 -148 l 2
 -233 -130 -235 -116 -238 -106 c 128
 -241 -96 -249 -87 -261 -80 c 128
 -273 -73 -292 -70 -318 -70 c 0
 -336 -70 -353 -74 -367 -84 c 0
 -379 -94 -385 -108 -385 -126 c 0
 -385 -142 -378 -156 -364 -166 c 128
 -350 -176 -336 -181 -319 -181 c 0
 -311 -181 -304 -180 -297 -178 c 1
 -297 -263 l 1
EndSplineSet
Fore
SplineSet
-291 -120 m 3
 -291 -133 -305 -143 -319 -143 c 3
 -330 -143 -344 -131 -344 -119 c 259
 -344 -105 -330 -98 -316 -98 c 3
 -301 -98 -291 -107 -291 -120 c 3
-385 -126 m 3
 -385 -158 -352 -181 -319 -181 c 3
 -311 -181 -304 -180 -297 -178 c 1
 -297 -259 l 2
 -297 -268 -325 -313 -325 -313 c 1
 -252 -313 l 1
 -252 -313 -232 -275 -232 -259 c 2
 -232 -148 l 2
 -232 -91 -255 -70 -318 -70 c 3
 -355 -70 -385 -88 -385 -126 c 3
EndSplineSet
EndChar

StartChar: uni0EB9
Encoding: 3769 3769 36
Width: 0
VWidth: 1063
Flags: W
HStem: -305 54<-328.674 -284.707> -171 34<-430.434 -390.282> -96 26<-430.798 -386.762>
VStem: -471 39<-136.779 -96.5729> -390 60<-249.299 -223 -172 -170.985 -136.993 -96.1887> -283 59<-249.572 -219>
LayerCount: 2
Back
SplineSet
-392 -130 m 0
 -398 -134 -404 -137 -410 -137 c 0
 -415 -137 -420 -134 -425 -130 c 128
 -430 -126 -432 -120 -432 -114 c 256
 -432 -108 -430 -103 -425 -100 c 128
 -420 -97 -415 -96 -408 -96 c 0
 -401 -96 -394 -97 -390 -100 c 1
 -386 -105 -385 -111 -385 -116 c 256
 -385 -121 -387 -126 -392 -130 c 0
-283 -75 m 1
 -283 -219 l 1
 -285 -236 -289 -246 -295 -249 c 128
 -301 -252 -307 -251 -314 -247 c 128
 -321 -243 -327 -235 -330 -223 c 1
 -330 -141 l 2
 -331 -125 -333 -112 -336 -103 c 128
 -339 -94 -346 -86 -357 -79 c 128
 -368 -72 -386 -70 -410 -70 c 0
 -427 -70 -441 -74 -454 -83 c 1
 -465 -93 -471 -105 -471 -121 c 0
 -471 -136 -465 -148 -452 -157 c 128
 -439 -166 -425 -171 -410 -171 c 0
 -403 -171 -396 -171 -390 -172 c 1
 -390 -224 l 2
 -390 -240 -385 -255 -376 -269 c 128
 -367 -283 -352 -294 -331 -300 c 128
 -310 -306 -292 -306 -277 -301 c 128
 -262 -296 -250 -288 -241 -277 c 128
 -232 -266 -227 -247 -224 -219 c 1
 -223 -75 l 1
 -283 -75 l 1
EndSplineSet
Fore
SplineSet
-385 -116 m 259
 -385 -128 -399 -137 -410 -137 c 3
 -421 -137 -432 -126 -432 -114 c 259
 -432 -104 -421 -96 -408 -96 c 3
 -392 -96 -385 -107 -385 -116 c 259
-330 -141 m 2
 -330 -87 -350 -70 -410 -70 c 3
 -443 -70 -471 -88 -471 -121 c 3
 -471 -151 -439 -171 -410 -171 c 3
 -403 -171 -396 -171 -390 -172 c 1
 -390 -224 l 2
 -390 -272 -353 -305 -301 -305 c 3
 -251 -305 -224 -269 -224 -219 c 2
 -223 -75 l 1
 -283 -75 l 1
 -283 -219 l 2
 -283 -233 -289 -251 -301 -251 c 3
 -316 -251 -330 -235 -330 -223 c 2
 -330 -141 l 2
EndSplineSet
EndChar

StartChar: uni0EBA
Encoding: 3770 3770 37
Width: 0
VWidth: 1063
Flags: W
HStem: -221 145<-178.5 -75.625>
VStem: -200 145<-199.875 -97>
LayerCount: 2
Fore
SplineSet
-127 -76 m 259
 -86 -76 -55 -107 -55 -148 c 3
 -55 -189 -86 -221 -127 -221 c 259
 -168 -221 -200 -189 -200 -148 c 3
 -200 -108 -167 -76 -127 -76 c 259
EndSplineSet
EndChar

StartChar: uni0EBB
Encoding: 3771 3771 38
Width: 0
VWidth: 1063
Flags: W
HStem: 618 51<-547.884 -477.836> 788 63<-446.596 -244.471>
VStem: -612 59<672.659 745.671> -475 56<672.711 747.787> -154 69<627 708.605>
LayerCount: 2
Back
SplineSet
-84 636 m 1
 -85 627 l 1
 -154 627 l 1
 -154 657 -159 682 -170 702 c 128
 -181 722 -199 740 -228 758 c 0
 -244 767 -265 775 -292 780 c 128
 -319 785 -344 788 -368 788 c 2
 -394 787 l 2
 -402 787 -409 786 -416 784 c 2
 -434 780 l 1
 -449 774 l 1
 -440 765 -433 754 -427 742 c 0
 -422 727 -419 712 -419 699 c 1
 -422 675 -433 656 -452 641 c 128
 -471 626 -494 618 -520 618 c 0
 -547 618 -569 627 -586 645 c 128
 -603 663 -612 684 -612 708 c 2
 -612 717 l 2
 -612 732 -608 746 -599 758 c 0
 -595 764 -590 771 -585 777 c 128
 -580 783 -573 789 -564 796 c 0
 -549 807 -534 816 -516 824 c 128
 -498 832 -478 838 -456 842 c 0
 -424 848 -393 851 -363 851 c 0
 -330 851 -300 848 -272 841 c 0
 -257 838 -242 834 -230 829 c 128
 -218 824 -205 817 -191 809 c 0
 -155 789 -128 764 -109 733 c 0
 -93 705 -84 675 -84 644 c 2
 -84 636 l 1
-475 707 m 2
 -476 723 l 2
 -477 729 -480 733 -483 736 c 0
 -490 745 -499 750 -509 750 c 1
 -526 748 l 2
 -530 748 -534 745 -540 741 c 0
 -549 734 -553 724 -553 713 c 2
 -551 696 l 2
 -550 693 -548 689 -544 683 c 0
 -537 674 -528 669 -517 669 c 2
 -500 671 l 2
 -497 671 -493 674 -487 679 c 0
 -479 685 -475 695 -475 707 c 2
EndSplineSet
Fore
SplineSet
-520 618 m 3
 -576 618 -612 661 -612 717 c 3
 -612 809 -466 851 -363 851 c 3
 -211 851 -85 778 -85 627 c 1
 -154 627 l 1
 -154 743 -244 788 -368 788 c 27
 -405 788 -424 784 -449 774 c 1
 -433 758 -419 729 -419 699 c 3
 -419 659 -468 618 -520 618 c 3
-475 707 m 3
 -475 732 -487 750 -509 750 c 3
 -533 750 -553 739 -553 713 c 3
 -553 690 -541 669 -517 669 c 3
 -493 669 -475 680 -475 707 c 3
EndSplineSet
EndChar

StartChar: uni0EBC
Encoding: 3772 3772 39
Width: 0
VWidth: 1063
Flags: W
HStem: -259 52<-560.982 -492.147> -246 65<-354.209 -274.806> -125 65<-562.604 -490.961>
VStem: -623 56<-201.12 -130.571> -486 52<-201.935 -167> -232 51<-117.681 -82.3725>
LayerCount: 2
Back
SplineSet
-181 -88 m 1
 -190 -117 -198 -141 -205 -157 c 128
 -212 -173 -218 -182 -219 -184 c 0
 -222 -190 -226 -198 -233 -207 c 0
 -253 -233 -277 -246 -304 -246 c 0
 -324 -246 -348 -238 -375 -220 c 128
 -402 -202 -425 -180 -444 -155 c 2
 -432 -170 l 1
 -432 -162 l 1
 -434 -159 l 1
 -434 -167 l 2
 -434 -191 -445 -213 -465 -233 c 0
 -483 -251 -503 -259 -525 -259 c 0
 -553 -259 -576 -251 -595 -234 c 128
 -614 -217 -623 -192 -623 -159 c 0
 -623 -129 -613 -104 -593 -85 c 0
 -575 -68 -553 -60 -525 -60 c 2
 -511 -60 l 1
 -496 -62 l 1
 -484 -65 l 1
 -467 -72 l 1
 -443 -79 -415 -98 -384 -131 c 128
 -353 -164 -328 -181 -309 -181 c 0
 -297 -181 -285 -173 -274 -156 c 0
 -268 -149 -261 -136 -254 -116 c 2
 -232 -47 l 1
 -181 -88 l 1
-486 -164 m 0
 -486 -154 -490 -144 -498 -136 c 0
 -506 -128 -515 -125 -526 -125 c 0
 -536 -125 -546 -128 -555 -136 c 0
 -563 -144 -567 -154 -567 -164 c 0
 -567 -175 -563 -185 -555 -194 c 128
 -547 -203 -537 -207 -526 -207 c 256
 -515 -207 -506 -203 -498 -194 c 0
 -490 -187 -486 -177 -486 -164 c 0
EndSplineSet
Fore
SplineSet
-623 -159 m 0xbc
 -623 -102 -583 -60 -525 -60 c 3
 -472 -60 -429 -84 -384 -131 c 0
 -353 -164 -328 -181 -309 -181 c 3
 -263 -181 -245 -88 -232 -47 c 1
 -181 -88 l 1
 -202 -156 -228 -246 -304 -246 c 3x7c
 -344 -246 -394 -213 -434 -167 c 1
 -434 -211 -478 -259 -525 -259 c 3
 -585 -259 -623 -221 -623 -159 c 0xbc
-526 -207 m 256xbc
 -504 -207 -486 -188 -486 -164 c 0
 -486 -143 -504 -125 -526 -125 c 0
 -547 -125 -567 -142 -567 -164 c 0
 -567 -186 -548 -207 -526 -207 c 256xbc
EndSplineSet
EndChar

StartChar: uni0EBD
Encoding: 3773 3773 40
Width: 612
VWidth: 1063
Flags: W
HStem: -195 64<114.303 377.133> -30 52<102.367 206> 55 43<156.102 217.347> 142 53<121.005 217.615> 438 69<264.914 383.771> 515 66<67.3982 180.478>
VStem: -3 69<456.682 510.493> 6 76<-101.945 -40.1763 43.4137 108.892> 218 43<98.6975 140.398> 467 69<-47.4218 179.494>
LayerCount: 2
Back
SplineSet
218 120 m 1
 216 124 l 1
 214 129 l 2
 208 138 199 142 187 142 c 2
 179 141 l 1
 173 140 l 2
 161 136 156 130 156 121 c 2
 156 116 l 1
 158 111 l 2
 164 102 173 98 185 98 c 2
 192 98 l 1
 199 101 l 2
 211 104 218 111 218 120 c 1
518 183 m 1
 530 151 536 120 536 90 c 0
 535 29 526 -25 509 -73 c 1
 476 -130 436 -166 390 -178 c 128
 344 -190 293 -196 237 -195 c 128
 181 -194 141 -191 116 -185 c 128
 91 -179 72 -173 59 -165 c 128
 46 -157 33 -145 22 -131 c 128
 11 -117 5 -93 6 -59 c 0
 6 -39 22 -19 53 0 c 1
 29 4 14 27 6 68 c 1
 6 83 l 1
 14 126 40 156 82 176 c 128
 124 196 165 200 205 187 c 128
 245 174 264 149 261 112 c 1
 260 104 l 1
 257 97 l 2
 255 91 252 85 247 80 c 0
 240 72 229 65 216 59 c 1
 197 55 l 1
 185 55 l 2
 172 55 158 57 145 63 c 1
 134 70 124 78 116 88 c 1
 112 101 l 1
 110 113 l 1
 103 110 96 105 92 97 c 1
 92 99 l 1
 89 95 85 90 82 83 c 1
 82 43 123 22 206 22 c 1
 214 15 l 1
 214 -8 l 2
 214 -23 183 -30 121 -30 c 1
 81 -50 72 -73 94 -98 c 1
 142 -126 195 -137 250 -131 c 1
 335 -132 391 -116 419 -84 c 128
 447 -52 463 -12 466 36 c 128
 469 84 465 127 451 166 c 128
 437 205 415 236 382 258 c 0
 347 282 291 305 216 329 c 2
 161 347 l 1
 115 366 l 1
 53 394 l 1
 33 405 19 415 11 427 c 0
 2 438 -3 453 -3 471 c 0
 -3 489 0 503 6 515 c 128
 12 527 21 539 35 551 c 128
 49 563 66 572 87 577 c 128
 108 582 129 582 149 577 c 128
 169 572 188 566 206 557 c 2
 308 508 l 1
 318 507 l 1
 324 507 l 2
 345 507 364 513 380 525 c 0
 388 530 397 541 409 557 c 128
 421 573 433 592 443 613 c 1
 513 593 l 1
 477 531 443 488 411 464 c 0
 403 458 394 453 385 449 c 0
 370 442 355 438 339 438 c 2
 323 439 l 1
 318 439 l 1
 308 440 l 2
 296 440 280 445 258 455 c 2
 197 486 l 2
 185 492 174 497 165 501 c 128
 156 505 148 508 143 510 c 128
 138 512 131 513 124 514 c 128
 117 515 113 515 112 515 c 0
 99 515 88 513 80 509 c 128
 72 505 68 497 66 486 c 1
 66 474 69 465 77 459 c 128
 85 453 101 446 124 436 c 1
 168 419 l 1
 229 398 l 1
 282 378 l 1
 323 361 l 1
 365 342 l 2
 390 330 414 315 436 298 c 0
 469 273 496 234 518 183 c 1
EndSplineSet
Fore
SplineSet
218 120 m 3xfcc0
 218 135 204 142 187 142 c 3
 170 142 156 135 156 121 c 3
 156 102 173 98 192 98 c 3
 205 98 218 107 218 120 c 3xfcc0
112 515 m 3
 85 515 66 504 66 486 c 3xfec0
 66 474 68 464 77 459 c 0
 190 400 338 374 436 298 c 0
 483 262 536 179 536 90 c 3
 536 -116 443 -195 249 -195 c 3
 118 -195 6 -181 6 -66 c 3
 6 -38 18 -21 53 0 c 1
 31 4 6 35 6 76 c 3
 6 141 86 195 158 195 c 3
 214 195 261 166 261 119 c 3
 261 81 227 55 190 55 c 3
 145 55 117 73 110 113 c 1
 96 107 82 90 82 83 c 3
 82 43 123 22 206 22 c 1
 214 15 l 1
 214 -8 l 2
 214 -23 183 -30 121 -30 c 1
 95 -43 82 -57 82 -72 c 3xfdc0
 82 -107 145 -131 250 -131 c 3
 406 -131 467 -75 467 65 c 3
 467 154 437 221 382 258 c 0
 313 305 143 347 53 394 c 0
 28 407 -3 428 -3 471 c 3xfec0
 -3 534 50 581 118 581 c 3
 192 581 288 507 318 507 c 3
 387 507 419 562 443 613 c 1
 513 593 l 1
 461 504 428 438 318 438 c 3
 258 438 172 515 112 515 c 3
EndSplineSet
EndChar

StartChar: uni0EC0
Encoding: 3776 3776 41
Width: 303
VWidth: 1063
Flags: W
HStem: -3 49<105.576 182.537> 138 51<104.795 183.492> 536 61<104.421 225.762>
VStem: 19 71<181 522.806> 191 52<54.1708 130.517>
LayerCount: 2
Back
SplineSet
243 91 m 0
 243 62 233 39 213 22 c 128
 193 5 167 -3 133 -3 c 0
 102 -3 74 8 51 30 c 0
 43 39 34 51 25 67 c 1
 20 88 l 1
 19 112 l 1
 19 446 l 2
 19 471 21 494 27 516 c 128
 33 538 47 556 69 572 c 0
 74 576 78 579 83 582 c 128
 88 585 96 587 107 591 c 128
 118 595 132 597 147 597 c 1
 180 593 l 1
 207 588 l 1
 227 582 l 1
 227 516 l 1
 177 532 l 2
 167 535 156 536 145 536 c 0
 136 536 127 534 119 529 c 1
 102 508 l 1
 94 496 90 475 90 446 c 2
 90 181 l 1
 107 187 123 189 139 189 c 0
 167 189 192 182 212 166 c 0
 233 148 243 123 243 91 c 0
191 91 m 0
 191 104 186 115 177 123 c 0
 169 131 159 136 145 138 c 1
 132 138 120 133 111 124 c 128
 102 115 97 104 97 91 c 0
 97 78 102 68 112 59 c 128
 122 50 133 46 145 46 c 0
 157 46 168 50 177 59 c 128
 186 68 191 79 191 91 c 0
EndSplineSet
Fore
SplineSet
243 91 m 3
 243 30 196 -3 133 -3 c 3
 68 -3 19 40 19 112 c 2
 19 446 l 2
 19 535 54 597 147 597 c 27
 184 597 200 590 227 582 c 1
 227 516 l 1
 201 524 177 536 145 536 c 3
 102 536 90 495 90 446 c 2
 90 181 l 1
 107 187 123 189 139 189 c 3
 200 189 243 153 243 91 c 3
145 46 m 3
 169 46 191 67 191 91 c 3
 191 118 170 138 145 138 c 3
 119 138 97 117 97 91 c 3
 97 66 121 46 145 46 c 3
EndSplineSet
EndChar

StartChar: uni0EC1
Encoding: 3777 3777 42
Width: 562
VWidth: 1063
Flags: W
HStem: -3 49<105.576 182.537 364.576 441.537> 138 51<104.795 183.492 363.795 442.492> 536 61<104.421 225.762 363.421 484.762>
VStem: 19 71<181 522.806> 191 52<54.1708 130.517> 278 71<181 522.806> 450 52<54.1708 130.517>
LayerCount: 2
Back
SplineSet
243 91 m 0
 243 62 233 39 213 22 c 128
 193 5 167 -3 133 -3 c 0
 102 -3 74 8 51 30 c 0
 43 39 34 51 25 67 c 1
 20 88 l 1
 19 112 l 1
 19 446 l 2
 19 471 21 494 27 516 c 128
 33 538 47 556 69 572 c 0
 74 576 78 579 83 582 c 128
 88 585 96 587 107 591 c 128
 118 595 132 597 147 597 c 1
 180 593 l 1
 207 588 l 1
 227 582 l 1
 227 516 l 1
 177 532 l 2
 167 535 156 536 145 536 c 0
 136 536 127 534 119 529 c 1
 102 508 l 1
 94 496 90 475 90 446 c 2
 90 181 l 1
 107 187 123 189 139 189 c 0
 167 189 192 182 212 166 c 0
 233 148 243 123 243 91 c 0
191 91 m 0
 191 104 186 115 177 123 c 0
 169 131 159 136 145 138 c 1
 132 138 120 133 111 124 c 128
 102 115 97 104 97 91 c 0
 97 78 102 68 112 59 c 128
 122 50 133 46 145 46 c 0
 157 46 168 50 177 59 c 128
 186 68 191 79 191 91 c 0
503 91 m 0
 503 62 493 39 473 22 c 128
 453 5 426 -3 392 -3 c 0
 361 -3 333 8 310 30 c 0
 302 39 294 51 285 67 c 1
 279 88 l 1
 278 112 l 1
 278 446 l 2
 278 471 281 494 287 516 c 128
 293 538 306 556 328 572 c 0
 333 576 338 579 343 582 c 128
 348 585 356 587 367 591 c 128
 378 595 392 597 407 597 c 1
 439 593 l 1
 467 588 l 1
 486 582 l 1
 486 516 l 1
 437 532 l 2
 427 535 415 536 404 536 c 0
 395 536 387 534 379 529 c 1
 361 508 l 1
 353 496 350 475 350 446 c 2
 350 181 l 1
 367 187 383 189 399 189 c 0
 427 189 451 182 471 166 c 0
 492 148 503 123 503 91 c 0
451 91 m 0
 451 104 446 115 437 123 c 0
 429 131 418 136 404 138 c 1
 391 138 380 133 371 124 c 128
 362 115 357 104 357 91 c 0
 357 78 361 68 371 59 c 128
 381 50 392 46 404 46 c 0
 416 46 428 50 437 59 c 128
 446 68 451 79 451 91 c 0
EndSplineSet
Fore
Refer: 41 3776 N 1 0 0 1 259 0 2
Refer: 41 3776 N 1 0 0 1 0 0 2
EndChar

StartChar: uni0EC2
Encoding: 3778 3778 43
Width: 408
VWidth: 1063
Flags: W
HStem: -3 55<170.052 244.702> 131 46<171.412 243.393> 715 69<169.695 290.356> 864 64<-37.0117 15.9177>
VStem: -106 67<812.121 863.917> 98 68<56.6143 125.464 170 488.095> 249 50<57.3541 125.076>
LayerCount: 2
Back
SplineSet
299 89 m 0
 299 28 267 -3 202 -3 c 0
 172 -3 147 4 127 17 c 128
 107 30 98 53 98 82 c 2
 98 449 l 2
 98 476 107 498 126 516 c 1
 199 559 l 1
 175 564 150 575 126 594 c 2
 85 626 l 1
 44 657 l 1
 9 688 l 1
 -32 728 l 1
 -60 757 l 1
 -82 785 l 2
 -98 806 -106 824 -106 838 c 0
 -106 898 -78 928 -22 928 c 0
 2 928 30 915 64 889 c 1
 117 846 l 2
 150 820 173 802 187 794 c 1
 204 788 l 1
 224 784 l 1
 234 784 l 1
 245 786 l 1
 290 800 l 1
 294 728 l 1
 279 725 269 722 262 721 c 0
 244 717 231 715 224 715 c 0
 202 715 180 722 159 736 c 2
 124 760 l 2
 111 769 99 777 89 785 c 128
 79 793 70 800 62 806 c 2
 18 841 l 2
 -2 857 -16 864 -22 864 c 1
 -32 861 l 1
 -37 857 l 1
 -39 849 l 2
 -39 845 -35 836 -27 822 c 1
 23 767 l 1
 47 743 71 721 97 699 c 1
 171 641 l 2
 186 631 213 619 252 607 c 0
 279 599 293 588 293 576 c 0
 293 565 291 557 288 554 c 128
 285 551 272 543 250 529 c 2
 202 499 l 2
 178 483 166 467 166 449 c 2
 166 170 l 1
 176 175 188 177 204 177 c 0
 230 177 252 169 271 153 c 128
 290 137 299 115 299 89 c 0
249 91 m 0
 249 101 245 111 236 119 c 0
 229 127 219 131 207 131 c 0
 197 131 188 127 179 119 c 128
 170 111 166 102 166 91 c 0
 166 80 170 70 178 63 c 128
 186 56 195 52 207 52 c 0
 218 52 229 56 237 63 c 128
 245 70 249 80 249 91 c 0
EndSplineSet
Fore
SplineSet
204 177 m 3
 256 177 299 141 299 89 c 3
 299 28 267 -3 202 -3 c 3
 142 -3 98 22 98 82 c 2
 98 449 l 2
 98 476 110 507 126 516 c 2
 199 559 l 1
 175 564 150 575 126 594 c 0
 51 652 -24 711 -82 785 c 0
 -98 806 -106 824 -106 838 c 3
 -106 898 -78 928 -22 928 c 3
 2 928 30 915 64 889 c 0
 96 864 163 808 187 794 c 0
 197 788 210 784 224 784 c 3
 251 784 268 795 290 800 c 1
 294 728 l 1
 270 723 242 715 224 715 c 3
 202 715 180 722 159 736 c 0
 109 770 63 805 18 841 c 0
 -2 857 -16 864 -22 864 c 1
 -31 862 -39 859 -39 849 c 0
 -39 845 -38 834 -27 822 c 0
 34 755 99 697 171 641 c 0
 185 630 213 619 252 607 c 0
 279 599 293 588 293 576 c 3
 293 550 282 550 250 529 c 2
 202 499 l 2
 178 483 166 467 166 449 c 2
 166 170 l 1
 176 175 188 177 204 177 c 3
207 52 m 3
 230 52 249 68 249 91 c 3
 249 112 230 131 207 131 c 3
 187 131 166 112 166 91 c 3
 166 69 184 52 207 52 c 3
EndSplineSet
EndChar

StartChar: uni0EC3
Encoding: 3779 3779 44
Width: 280
VWidth: 1057
Flags: W
HStem: -3 52<100.768 159.908> 123 48<105.272 159.908> 555 32<74.7188 87.5407> 665 57<26.5812 118.965> 908 63<47.6509 192.344>
VStem: -58 59<746.759 865.492> 36 69<168 494.941> 36 61<52.9615 120.253> 122 57<727.771 789.23> 164 47<51.5383 120.524> 238 57<706.956 862.807>
LayerCount: 2
Back
SplineSet
131 123 m 0
 122 123 114 119 107 112 c 128
 100 105 97 96 97 86 c 0
 97 76 100 67 107 60 c 128
 114 53 122 49 131 49 c 0
 140 49 147 53 154 60 c 128
 161 67 164 76 164 86 c 0
 164 96 161 105 154 112 c 128
 147 119 140 123 131 123 c 0
134 576 m 1
 113 565 94 558 78 555 c 1
 63 587 l 1
 154 640 205 680 218 710 c 128
 231 740 237 766 238 790 c 128
 239 814 234 836 221 857 c 128
 208 878 188 893 161 902 c 128
 134 911 104 910 72 899 c 128
 40 888 17 864 4 826 c 1
 -2 799 2 776 15 758 c 0
 21 749 30 740 41 733 c 128
 52 726 64 723 76 723 c 1
 93 720 105 724 114 735 c 128
 123 746 124 758 117 771 c 128
 110 784 99 793 82 796 c 1
 116 841 l 1
 143 829 161 814 171 794 c 128
 181 774 182 754 174 734 c 0
 165 710 153 693 136 682 c 128
 119 671 96 665 66 665 c 0
 29 665 -2 681 -27 714 c 128
 -52 747 -62 788 -57 837 c 1
 -50 871 -36 900 -14 922 c 0
 -5 932 7 940 20 947 c 128
 33 954 44 959 53 961 c 128
 62 963 72 965 83 967 c 128
 94 969 101 971 104 971 c 0
 156 971 195 961 223 941 c 128
 251 921 272 895 284 861 c 128
 296 827 298 793 290 758 c 1
 285 718 265 680 231 645 c 1
 227 641 l 1
 234 644 241 647 250 650 c 1
 268 621 l 1
 203 575 161 543 141 524 c 0
 117 501 105 471 105 433 c 2
 105 168 l 1
 112 169 119 171 126 171 c 0
 150 171 169 162 186 145 c 128
 203 128 211 107 211 83 c 0
 211 59 203 39 186 22 c 128
 169 5 150 -3 126 -3 c 1
 98 1 78 8 69 17 c 128
 60 26 54 34 51 40 c 128
 48 46 43 65 36 98 c 1
 36 413 l 1
 43 456 53 490 68 513 c 1
 73 526 95 547 134 576 c 1
EndSplineSet
Fore
SplineSet
164 86 m 3xfd60
 164 105 149 123 131 123 c 3
 112 123 97 105 97 86 c 3
 97 67 112 49 131 49 c 3
 149 49 164 67 164 86 c 3xfd60
126 171 m 3
 173 171 211 130 211 83 c 3
 211 36 173 -3 126 -3 c 3
 62 -3 36 54 36 98 c 2xfd60
 36 413 l 2
 36 474 78 546 134 576 c 1
 113 565 94 558 78 555 c 1
 63 587 l 1
 154 640 205 680 218 710 c 0
 232 742 238 768 238 796 c 3
 238 861 191 908 123 908 c 3
 60 908 1 871 1 802 c 3
 1 760 34 722 76 722 c 3
 99 722 122 735 122 755 c 3
 122 778 102 792 82 796 c 1
 116 841 l 1
 151 826 179 803 179 761 c 3
 179 697 131 665 66 665 c 0
 -6 665 -58 735 -58 813 c 3
 -58 904 14 971 104 971 c 3
 219 971 295 911 295 800 c 3
 295 731 272 686 227 641 c 1
 234 644 241 647 250 650 c 1
 268 621 l 1
 203 575 161 543 141 524 c 0
 117 501 105 471 105 433 c 2
 105 168 l 1xfea0
 112 169 119 171 126 171 c 3
EndSplineSet
EndChar

StartChar: uni0EC4
Encoding: 3780 3780 45
Width: 346
VWidth: 1063
Flags: W
HStem: -3 53<147.759 218.395> 129 50<145.889 216.441> 608 63<143.43 222.276>
VStem: 41 66<635.032 766.59> 80 65<52.6931 125.982 171 466.656> 222 47<54.8654 124.205> 223 62<565.16 607.917>
LayerCount: 2
Back
SplineSet
222 88 m 1
 222 99 218 108 210 116 c 0
 203 123 195 128 184 129 c 1
 173 129 163 126 154 118 c 0
 148 112 144 104 143 93 c 1
 143 81 146 71 153 63 c 128
 160 55 169 50 180 50 c 0
 190 50 199 53 207 59 c 128
 215 65 220 75 222 88 c 1
29 732 m 128
 22 763 13 792 3 816 c 2
 -9 843 l 2
 -13 852 -17 858 -22 864 c 2
 -33 881 l 1
 -46 894 l 1
 -6 963 l 1
 0 955 6 946 12 937 c 0
 32 907 49 875 62 844 c 0
 77 809 87 775 93 742 c 0
 97 724 101 708 104 694 c 128
 107 680 108 659 107 634 c 1
 120 643 137 652 154 659 c 128
 171 666 186 670 199 670 c 0
 228 673 250 664 267 644 c 1
 280 624 287 604 285 587 c 128
 283 570 278 557 271 547 c 128
 264 537 254 527 243 518 c 1
 189 482 l 1
 164 465 l 1
 148 450 l 1
 146 446 145 439 145 430 c 2
 145 171 l 1
 154 176 166 179 180 179 c 0
 204 179 224 170 242 153 c 128
 260 136 269 115 269 89 c 0
 269 28 239 -3 179 -3 c 0
 161 -3 148 -1 138 2 c 128
 128 5 117 11 106 19 c 0
 89 33 80 54 80 82 c 2
 80 430 l 2
 80 452 84 469 92 484 c 0
 98 493 105 501 112 507 c 2
 158 539 l 1
 199 559 221 577 223 591 c 128
 225 605 218 610 199 608 c 128
 180 606 159 597 136 582 c 128
 113 567 91 547 73 519 c 1
 3 524 l 1
 16 553 25 573 31 583 c 1
 38 600 42 622 41 647 c 128
 40 672 36 701 29 732 c 128
EndSplineSet
Fore
SplineSet
180 50 m 3xe4
 204 50 222 65 222 88 c 3
 222 109 204 129 184 129 c 3
 162 129 143 116 143 93 c 3
 143 70 158 50 180 50 c 3xe4
179 -3 m 3
 120 -3 80 24 80 82 c 2
 80 430 l 2xec
 80 467 90 492 112 507 c 2
 158 538 l 2
 182 554 223 570 223 595 c 3
 223 604 218 608 206 608 c 3
 159 608 99 560 73 519 c 1
 3 524 l 1
 26 575 41 596 41 639 c 3
 41 716 5 843 -46 894 c 1
 -6 963 l 1
 52 886 107 759 107 652 c 3
 107 646 107 640 107 634 c 1xf2
 132 651 172 671 210 671 c 3
 252 671 285 633 285 593 c 3
 285 555 261 530 243 518 c 2
 164 465 l 2
 152 457 145 452 145 430 c 2
 145 171 l 1xea
 154 176 166 179 180 179 c 3
 228 179 269 138 269 89 c 3
 269 28 239 -3 179 -3 c 3
EndSplineSet
EndChar

StartChar: uni0EC6
Encoding: 3782 3782 46
Width: 597
VWidth: 1063
Flags: W
HStem: -205 66<164.15 354.858> 308 56<113.627 182.126> 437 44<115.197 182.068> 465 64<219.318 294.374> 529 66<72.8526 174.477 336.134 427.197>
VStem: -1 49<397.313 503.772> 69 42<396.964 432.878> 185 41<368 433.474> 436 61<-78.8633 523.281>
LayerCount: 2
Back
SplineSet
497 -42 m 2
 497 -75 484 -104 458 -129 c 0
 454 -133 448 -140 440 -146 c 128
 432 -152 424 -158 417 -162 c 0
 409 -166 403 -169 399 -171 c 0
 389 -175 379 -180 367 -184 c 2
 340 -192 l 1
 307 -199 l 2
 297 -201 285 -203 271 -204 c 128
 257 -205 248 -205 247 -205 c 0
 237 -205 228 -205 219 -204 c 128
 210 -203 202 -201 193 -199 c 128
 184 -197 176 -194 168 -191 c 128
 160 -188 152 -185 144 -181 c 2
 132 -175 l 1
 121 -169 l 1
 111 -162 l 1
 100 -155 l 1
 87 -146 l 1
 81 -139 l 1
 62 -119 l 1
 105 -42 l 1
 118 -63 129 -80 138 -91 c 2
 152 -106 l 1
 165 -119 l 1
 183 -132 211 -139 247 -139 c 0
 252 -139 258 -139 264 -139 c 128
 270 -139 279 -137 291 -135 c 2
 313 -131 l 1
 324 -128 l 2
 330 -127 334 -125 336 -124 c 2
 358 -117 l 1
 378 -108 l 1
 387 -102 394 -98 396 -97 c 128
 398 -96 402 -92 409 -86 c 0
 427 -70 436 -54 436 -37 c 2
 436 413 l 1
 435 441 l 1
 435 457 l 1
 435 471 l 1
 434 482 l 1
 432 495 l 2
 431 502 429 507 427 510 c 2
 418 522 l 1
 413 526 408 528 403 529 c 2
 380 531 l 1
 373 530 l 1
 367 528 364 526 362 525 c 2
 328 502 l 1
 308 487 l 1
 290 475 l 1
 271 467 l 2
 267 466 261 465 253 465 c 2
 245 465 l 1
 237 466 l 1
 227 470 l 1
 219 473 l 1
 202 485 l 1
 182 500 l 1
 166 513 l 1
 152 523 l 1
 142 527 l 1
 130 529 l 1
 117 529 104 526 92 521 c 128
 80 516 69 506 61 493 c 0
 58 487 54 477 51 463 c 128
 48 449 47 441 49 437 c 2
 58 415 l 2
 61 408 63 404 65 401 c 128
 67 398 68 397 69 396 c 1
 67 414 71 430 80 445 c 0
 85 454 90 460 96 464 c 128
 102 468 109 473 120 476 c 128
 131 479 138 481 144 481 c 0
 166 481 186 473 202 456 c 128
 218 439 226 419 226 395 c 0
 226 371 218 351 201 334 c 0
 193 325 184 319 175 315 c 128
 166 311 155 308 144 308 c 0
 101 308 67 324 40 354 c 128
 13 384 -1 419 -1 460 c 0
 -1 476 4 496 12 517 c 0
 16 528 22 538 29 547 c 128
 36 556 45 563 56 571 c 1
 63 578 74 583 89 588 c 128
 104 593 117 595 132 595 c 0
 140 595 147 595 151 594 c 128
 155 593 161 590 169 586 c 2
 190 571 l 1
 206 559 l 1
 213 553 l 1
 220 548 l 1
 238 535 l 2
 243 531 248 529 252 529 c 2
 262 530 l 1
 267 533 l 1
 273 536 l 1
 288 546 l 1
 298 552 l 1
 308 560 l 1
 345 586 l 1
 350 590 l 1
 361 593 l 1
 379 595 l 1
 399 595 415 593 425 590 c 0
 440 587 450 581 458 572 c 1
 467 566 475 557 480 546 c 2
 485 532 l 1
 490 515 l 1
 492 497 l 1
 495 471 l 1
 497 416 l 1
 497 -42 l 2
178 423 m 0
 171 432 161 437 147 437 c 0
 138 437 132 434 126 430 c 0
 116 422 111 412 111 399 c 0
 111 390 113 384 118 378 c 0
 125 369 136 364 150 364 c 0
 159 364 165 367 171 371 c 0
 180 378 185 388 185 401 c 0
 185 409 182 416 178 423 c 0
EndSplineSet
Fore
SplineSet
144 308 m 3xef80
 61 308 -1 378 -1 460 c 3
 -1 534 58 595 132 595 c 3xef80
 181 595 235 529 252 529 c 3xd780
 285 529 330 595 379 595 c 3xcf80
 461 595 497 549 497 471 c 2
 497 -42 l 2
 497 -146 362 -205 247 -205 c 3
 161 -205 103 -165 62 -119 c 1
 105 -42 l 1
 139 -97 159 -139 247 -139 c 3
 319 -139 436 -100 436 -37 c 2
 436 441 l 2
 436 513 426 531 380 531 c 3
 352 531 299 465 253 465 c 3xd780
 193 465 177 529 130 529 c 3
 80 529 48 496 48 443 c 3
 48 429 62 403 69 396 c 1
 69 399 69 402 69 405 c 3
 69 447 101 481 144 481 c 3
 190 481 226 441 226 395 c 3
 226 351 191 308 144 308 c 3xef80
185 401 m 3
 185 423 169 437 147 437 c 3
 125 437 111 418 111 399 c 3
 111 377 128 364 150 364 c 3
 171 364 185 381 185 401 c 3
EndSplineSet
EndChar

StartChar: uni0EC8
Encoding: 3784 3784 47
Width: 0
VWidth: 1063
Flags: W
HStem: 641 200<-259 -191>
VStem: -259 68<641 841>
LayerCount: 2
Fore
SplineSet
-191 641 m 1
 -259 641 l 1
 -259 841 l 1
 -191 841 l 1
 -191 641 l 1
EndSplineSet
EndChar

StartChar: uni0EC9
Encoding: 3785 3785 48
Width: 0
VWidth: 1063
Flags: W
HStem: 656 56<-371 -239.51> 798 48<-465.926 -413.899>
VStem: -525 58<766 797.246> -412 63<735.571 796.461>
LayerCount: 2
Back
SplineSet
-83 803 m 1
 -89 783 l 1
 -97 765 l 2
 -99 757 -105 750 -113 742 c 0
 -116 739 -122 733 -132 725 c 128
 -142 717 -147 712 -148 711 c 0
 -162 701 -184 692 -214 683 c 0
 -224 679 -237 677 -251 674 c 128
 -265 671 -282 668 -302 665 c 0
 -346 659 -380 656 -402 656 c 2
 -548 656 l 1
 -548 669 -543 681 -533 689 c 128
 -523 697 -500 707 -467 720 c 1
 -448 725 -434 732 -425 741 c 1
 -413 758 l 1
 -412 767 l 2
 -412 776 -415 784 -420 790 c 128
 -425 796 -432 798 -441 798 c 0
 -444 798 -450 797 -458 794 c 1
 -464 789 -467 782 -467 772 c 2
 -467 766 l 1
 -491 758 l 1
 -524 748 l 1
 -525 764 l 1
 -521 788 l 1
 -513 803 l 2
 -511 810 -507 816 -501 821 c 128
 -495 826 -489 830 -484 833 c 0
 -470 841 -455 846 -438 846 c 0
 -413 846 -392 838 -375 822 c 128
 -358 806 -349 787 -349 766 c 0
 -349 748 -356 730 -371 712 c 1
 -356 712 -341 714 -326 716 c 128
 -311 718 -300 720 -293 721 c 128
 -286 722 -275 725 -259 729 c 2
 -229 738 l 1
 -208 749 l 2
 -195 757 -185 765 -177 774 c 1
 -171 783 -166 795 -162 811 c 2
 -148 859 l 1
 -132 845 l 1
 -83 803 l 1
EndSplineSet
Fore
SplineSet
-438 846 m 3
 -392 846 -349 811 -349 766 c 3
 -349 748 -356 730 -371 712 c 1
 -231 712 -176 763 -162 811 c 2
 -148 859 l 1
 -127 840 -105 822 -83 803 c 1
 -97 765 l 2
 -114 717 -214 656 -402 656 c 2
 -548 656 l 1
 -548 692 -511 702 -467 720 c 0
 -441 730 -412 743 -412 767 c 3
 -412 785 -422 798 -441 798 c 3
 -459 798 -467 787 -467 766 c 1
 -486 760 -505 754 -524 748 c 1
 -524 748 -525 759 -525 764 c 3
 -525 804 -491 846 -438 846 c 3
EndSplineSet
EndChar

StartChar: uni0ECA
Encoding: 3786 3786 49
Width: 0
VWidth: 1063
Flags: W
HStem: 765 64<-378.401 -305.237 -215.127 -144.592>
VStem: -444 63<698.133 760.624> -142 65<733 759.706> -53 62<736.641 823.627>
LayerCount: 2
Back
SplineSet
9 791 m 2
 8 776 l 1
 5 766 l 1
 3 757 2 750 -0 745 c 128
 -2 740 -5 732 -8 722 c 1
 -17 704 -30 687 -46 672 c 1
 -64 658 -79 649 -90 646 c 2
 -108 642 l 1
 -137 634 l 1
 -148 632 l 2
 -155 632 -163 636 -172 644 c 1
 -178 651 -181 660 -182 669 c 0
 -182 678 -179 684 -172 689 c 1
 -165 692 -158 699 -152 707 c 128
 -146 715 -142 724 -142 733 c 0
 -142 741 -147 749 -156 756 c 128
 -165 763 -177 766 -191 766 c 0
 -199 766 -211 752 -229 722 c 2
 -259 672 l 1
 -289 721 l 2
 -308 749 -322 764 -333 765 c 1
 -351 763 l 1
 -367 757 l 2
 -375 754 -379 746 -381 734 c 1
 -381 726 -379 719 -374 712 c 128
 -369 705 -360 697 -345 689 c 0
 -335 683 -330 674 -330 662 c 0
 -330 655 -333 648 -339 639 c 1
 -346 632 -353 629 -362 629 c 0
 -368 629 -374 631 -380 634 c 0
 -407 652 -425 668 -435 683 c 0
 -442 695 -444 712 -444 734 c 0
 -444 763 -434 787 -413 803 c 0
 -403 811 -391 817 -377 822 c 128
 -363 827 -349 829 -334 829 c 0
 -325 829 -314 824 -299 815 c 1
 -288 809 l 1
 -280 801 l 1
 -260 781 l 1
 -250 794 -238 805 -226 815 c 2
 -220 820 l 1
 -212 825 l 1
 -201 829 l 1
 -187 830 l 1
 -158 830 -132 820 -110 800 c 0
 -88 781 -77 759 -77 733 c 1
 -64 750 l 1
 -61 764 l 1
 -56 787 l 1
 -53 801 l 2
 -53 807 -51 812 -45 817 c 128
 -39 822 -31 825 -22 825 c 0
 -12 825 -5 822 1 816 c 128
 7 810 9 802 9 791 c 2
EndSplineSet
Fore
SplineSet
-22 825 m 3
 -2 825 9 809 9 791 c 27
 9 713 -47 655 -108 642 c 0
 -121 639 -138 632 -148 632 c 3
 -165 632 -180 651 -182 669 c 0
 -182 678 -180 686 -172 689 c 0
 -159 694 -142 715 -142 733 c 3
 -142 753 -168 766 -191 766 c 3
 -199 766 -211 752 -229 722 c 2
 -259 672 l 1
 -289 721 l 1
 -308 749 -322 765 -333 765 c 3
 -359 765 -381 756 -381 734 c 3
 -381 711 -366 700 -345 689 c 0
 -335 683 -330 674 -330 662 c 3
 -330 646 -345 629 -362 629 c 3
 -368 629 -374 631 -380 634 c 0
 -423 663 -444 678 -444 734 c 3
 -444 794 -396 829 -334 829 c 3
 -306 829 -276 797 -260 781 c 1
 -243 803 -217 830 -187 830 c 3
 -133 830 -77 787 -77 733 c 1
 -61 752 -53 790 -53 801 c 3
 -53 815 -37 825 -22 825 c 3
EndSplineSet
EndChar

StartChar: uni0ECB
Encoding: 3787 3787 50
Width: 0
VWidth: 1063
Flags: W
HStem: 734 76<-302 -224 -146 -68>
VStem: -224 78<653 734 810 892>
LayerCount: 2
Fore
SplineSet
-146 653 m 1
 -224 653 l 1
 -224 734 l 1
 -302 734 l 1
 -302 810 l 1
 -224 810 l 1
 -224 892 l 1
 -146 892 l 1
 -146 810 l 1
 -68 810 l 1
 -68 734 l 1
 -146 734 l 1
 -146 653 l 1
EndSplineSet
EndChar

StartChar: uni0ECC
Encoding: 3788 3788 51
Width: 0
VWidth: 1063
Flags: W
HStem: 635 38<-263.843 -198.421>
VStem: -319 53<675.519 736.606> -194 50<675.797 736.891>
LayerCount: 2
Back
SplineSet
-194 709 m 0
 -194 718 -197 726 -204 731 c 128
 -211 736 -220 739 -232 739 c 1
 -243 738 -252 734 -256 727 c 1
 -263 721 -266 713 -266 703 c 0
 -266 694 -263 686 -256 681 c 128
 -249 676 -240 673 -228 673 c 0
 -219 673 -210 677 -202 685 c 0
 -196 692 -194 700 -194 709 c 0
-168 754 m 1
 -161 751 -157 746 -153 742 c 0
 -147 735 -144 725 -144 714 c 0
 -144 696 -151 679 -164 664 c 1
 -179 649 -196 641 -214 638 c 0
 -221 636 -229 635 -237 635 c 0
 -256 635 -273 640 -288 650 c 0
 -308 664 -319 681 -319 702 c 0
 -319 737 -305 761 -278 774 c 128
 -251 787 -230 795 -214 797 c 128
 -198 799 -186 802 -179 804 c 128
 -172 806 -160 811 -146 815 c 2
 -121 824 l 1
 -102 835 l 2
 -91 843 -82 851 -75 860 c 1
 -70 869 -66 881 -62 897 c 2
 -50 945 l 1
 -36 930 l 1
 7 889 l 1
 2 869 l 1
 -5 851 l 2
 -7 843 -12 836 -19 828 c 0
 -22 825 -28 818 -36 810 c 128
 -44 802 -49 798 -50 797 c 0
 -62 787 -81 778 -107 769 c 0
 -116 765 -128 762 -140 760 c 0
 -148 758 -157 756 -168 754 c 1
EndSplineSet
Fore
SplineSet
-228 673 m 3
 -210 673 -194 689 -194 709 c 3
 -194 729 -210 739 -232 739 c 3
 -252 739 -266 721 -266 703 c 3
 -266 683 -250 673 -228 673 c 3
-237 635 m 3
 -279 635 -319 665 -319 702 c 3
 -319 761 -267 791 -214 797 c 0
 -133 806 -77 838 -62 897 c 2
 -50 945 l 1
 -32 925 -12 908 7 889 c 1
 2 869 l 2
 -14 804 -86 769 -168 754 c 1
 -153 748 -144 733 -144 714 c 3
 -144 666 -190 635 -237 635 c 3
EndSplineSet
EndChar

StartChar: uni0ECD
Encoding: 3789 3789 52
Width: 0
VWidth: 1063
Flags: W
HStem: 670 59<-336.053 -262.104> 812 56<-335.804 -262.438>
VStem: -401 59<734.392 806.326> -257 59<734.053 806.434>
LayerCount: 2
Back
SplineSet
-300 868 m 0
 -283 868 -266 863 -250 855 c 128
 -234 847 -221 835 -212 819 c 128
 -203 803 -198 786 -198 769 c 0
 -198 752 -203 736 -212 720 c 128
 -221 704 -233 692 -249 683 c 128
 -265 674 -282 670 -300 670 c 256
 -318 670 -334 674 -350 683 c 128
 -366 692 -379 704 -388 720 c 128
 -397 736 -401 752 -401 769 c 0
 -401 786 -397 803 -388 819 c 128
 -379 835 -366 847 -350 855 c 128
 -334 863 -317 868 -300 868 c 0
-320 807 m 128
 -327 803 -332 798 -336 791 c 128
 -340 784 -342 777 -342 770 c 256
 -342 763 -340 757 -336 750 c 128
 -332 743 -328 738 -321 734 c 128
 -314 730 -307 729 -300 729 c 0
 -292 729 -285 730 -278 734 c 128
 -271 738 -266 743 -262 750 c 128
 -258 757 -257 763 -257 770 c 256
 -257 777 -259 784 -263 791 c 128
 -267 798 -272 803 -279 807 c 128
 -286 811 -293 812 -300 812 c 0
 -307 812 -313 811 -320 807 c 128
EndSplineSet
Fore
SplineSet
-401 769 m 3
 -401 826 -357 868 -300 868 c 3
 -244 868 -198 826 -198 769 c 3
 -198 713 -244 670 -300 670 c 259
 -357 670 -401 713 -401 769 c 3
-300 812 m 3
 -323 812 -342 793 -342 770 c 259
 -342 747 -323 729 -300 729 c 3
 -275 729 -257 746 -257 770 c 259
 -257 794 -276 812 -300 812 c 3
EndSplineSet
EndChar

StartChar: uni0ED0
Encoding: 3792 3792 53
Width: 646
VWidth: 1063
Flags: W
HStem: -9 68<186.988 377.23> 505 69<190.251 384.223>
VStem: 22 71<159.46 398.108> 472 75<164.423 412.872>
LayerCount: 2
Back
SplineSet
547 283 m 0
 547 187 520 114 468 62 c 1
 422 15 361 -9 285 -9 c 0
 212 -9 150 11 99 53 c 1
 47 104 22 180 22 283 c 0
 22 383 47 458 99 508 c 0
 144 552 206 574 285 574 c 0
 364 574 425 554 468 515 c 0
 520 467 547 389 547 283 c 0
472 283 m 0
 472 366 454 425 418 460 c 0
 388 490 345 505 285 505 c 0
 232 505 186 489 150 457 c 1
 112 417 93 358 93 283 c 0
 93 202 112 143 149 106 c 1
 182 75 228 59 285 59 c 0
 342 59 385 77 417 112 c 0
 453 151 472 208 472 283 c 0
EndSplineSet
Fore
SplineSet
285 574 m 3
 467 574 547 469 547 283 c 3
 547 112 453 -9 285 -9 c 3
 110 -9 22 99 22 283 c 3
 22 463 109 574 285 574 c 3
285 59 m 3
 412 59 472 152 472 283 c 3
 472 427 422 505 285 505 c 3
 156 505 93 417 93 283 c 3
 93 142 150 59 285 59 c 3
EndSplineSet
EndChar

StartChar: uni0ED1
Encoding: 3793 3793 54
Width: 657
VWidth: 1063
Flags: W
HStem: 148 78<171.6 293.371> 291 39<227.256 295.669> 515 59<170.028 373.086>
VStem: 11 76<258.266 429.867> 175 49<229.273 287.72> 297 63<229.412 286.115> 480 78<213.139 408.794>
LayerCount: 2
Back
SplineSet
557 291 m 0
 553 258 547 233 541 216 c 128
 535 199 526 181 513 164 c 0
 497 143 488 129 484 125 c 0
 467 107 443 88 413 67 c 0
 403 61 388 52 367 42 c 128
 346 32 332 25 324 22 c 0
 275 5 235 -3 205 -3 c 1
 189 -5 l 2
 180 -5 172 -5 163 -4 c 128
 154 -3 148 -2 142 0 c 1
 142 4 147 9 158 16 c 128
 169 23 176 28 181 30 c 2
 269 73 l 1
 286 79 302 84 315 91 c 0
 334 100 353 112 373 125 c 0
 389 136 404 148 420 163 c 128
 436 178 447 192 454 205 c 0
 472 233 480 263 480 296 c 0
 480 334 476 367 466 395 c 0
 463 404 458 412 451 421 c 128
 444 430 438 438 432 446 c 128
 426 454 420 462 413 468 c 128
 406 474 401 478 396 481 c 1
 388 489 376 496 359 502 c 0
 332 511 299 515 261 515 c 1
 245 514 231 511 218 509 c 128
 205 507 192 503 179 496 c 0
 175 495 166 490 155 483 c 128
 144 476 136 470 133 467 c 0
 126 458 119 450 112 442 c 0
 104 431 99 420 96 407 c 128
 93 394 90 382 89 371 c 128
 88 360 87 348 87 335 c 0
 87 328 89 319 91 307 c 128
 93 295 95 286 97 279 c 128
 99 272 104 263 113 252 c 128
 122 241 130 233 137 227 c 128
 144 221 152 216 162 212 c 128
 172 208 185 205 200 202 c 1
 187 212 180 222 178 233 c 128
 176 244 175 252 175 256 c 0
 175 274 180 288 190 298 c 128
 200 308 215 318 235 326 c 0
 244 329 255 330 268 330 c 0
 295 330 316 325 329 314 c 0
 337 307 344 298 350 288 c 128
 356 278 360 268 360 259 c 0
 360 243 356 229 350 217 c 128
 344 205 333 194 320 183 c 128
 307 172 292 164 277 158 c 128
 262 152 244 148 226 148 c 0
 196 148 169 152 145 159 c 0
 116 166 92 178 73 195 c 128
 54 212 41 228 32 244 c 0
 21 264 15 282 13 299 c 128
 11 316 11 332 11 345 c 0
 11 367 13 389 18 410 c 128
 23 431 31 451 44 471 c 128
 57 491 70 506 83 517 c 0
 109 537 136 551 165 560 c 128
 194 569 229 574 269 574 c 0
 314 574 354 568 387 555 c 1
 423 544 454 526 479 500 c 0
 504 475 524 449 537 420 c 128
 550 391 558 357 558 319 c 2
 558 302 l 2
 557 297 557 293 557 291 c 0
289 282 m 1
 281 288 272 291 261 291 c 0
 253 291 244 289 236 283 c 128
 228 277 224 269 224 258 c 0
 224 251 227 244 233 237 c 0
 241 230 250 226 260 226 c 0
 267 226 274 229 283 234 c 128
 292 239 297 248 297 259 c 0
 297 267 295 275 289 282 c 1
EndSplineSet
Fore
SplineSet
200 202 m 1
 182 216 175 232 175 256 c 3
 175 303 216 330 268 330 c 3
 317 330 360 304 360 259 c 3
 360 192 293 148 226 148 c 3
 93 148 11 215 11 345 c 3
 11 499 116 574 269 574 c 3
 433 574 558 477 558 319 c 3
 558 230 526 167 484 125 c 0
 420 57 293 -5 189 -5 c 3
 173 -5 154 -4 142 0 c 1
 142 8 176 28 181 30 c 0
 265 71 350 98 420 163 c 0
 455 196 480 240 480 296 c 3
 480 439 406 515 261 515 c 3
 155 515 87 448 87 335 c 3
 87 256 133 216 200 202 c 1
260 226 m 3
 277 226 297 240 297 259 c 3
 297 267 298 282 289 282 c 3
 279 282 272 291 261 291 c 3
 242 291 224 278 224 258 c 3
 224 240 243 226 260 226 c 3
EndSplineSet
EndChar

StartChar: uni0ED2
Encoding: 3794 3794 55
Width: 650
VWidth: 1063
Flags: W
HStem: -8 64<193.803 390.53> 172 54<399.718 455.93>
VStem: 11 77<159.529 347.903> 335 64<119.264 170.647> 457 62<119.49 170.968>
LayerCount: 2
Back
SplineSet
519 152 m 0
 519 124 513 100 500 82 c 128
 487 64 468 47 441 31 c 0
 416 17 393 7 372 1 c 128
 351 -5 325 -8 292 -8 c 0
 252 -8 213 -2 178 10 c 128
 143 22 112 40 86 64 c 0
 36 112 11 181 11 269 c 0
 11 302 18 335 34 369 c 0
 42 384 59 404 86 430 c 0
 116 459 147 485 177 505 c 2
 365 630 l 2
 404 655 432 676 448 691 c 128
 464 706 478 725 491 746 c 1
 494 745 497 741 499 733 c 128
 501 725 503 716 503 706 c 0
 503 689 500 675 496 666 c 128
 492 657 482 646 467 633 c 0
 459 625 445 615 426 600 c 0
 423 598 401 582 357 554 c 0
 345 546 321 530 286 504 c 2
 170 414 l 2
 163 409 151 397 135 379 c 128
 119 361 109 349 105 341 c 0
 94 323 88 298 88 266 c 0
 88 230 92 200 99 178 c 128
 106 156 121 134 142 113 c 0
 155 100 176 87 203 75 c 0
 226 66 246 61 262 59 c 128
 278 57 293 56 307 56 c 0
 323 56 337 57 349 60 c 128
 361 63 376 69 393 78 c 1
 383 82 373 87 363 91 c 0
 349 99 340 109 337 121 c 0
 336 125 335 130 335 134 c 128
 335 138 335 142 335 144 c 0
 335 155 336 164 340 173 c 128
 344 182 350 191 360 200 c 1
 367 209 377 216 389 220 c 128
 401 224 416 226 436 226 c 0
 456 226 475 219 493 205 c 128
 511 191 519 174 519 152 c 0
450 127 m 0
 455 133 457 140 457 147 c 0
 457 154 454 160 448 165 c 128
 442 170 435 172 428 172 c 0
 419 172 412 170 407 164 c 128
 402 158 399 152 399 146 c 0
 399 137 402 130 408 125 c 128
 414 120 421 118 428 118 c 0
 436 118 444 121 450 127 c 0
EndSplineSet
Fore
SplineSet
393 78 m 1
 360 91 335 100 335 144 c 3
 335 194 377 226 436 226 c 3
 477 226 519 194 519 152 c 3
 519 50 404 -8 292 -8 c 3
 115 -8 11 94 11 269 c 3
 11 366 67 418 130 469 c 0
 240 559 385 632 448 691 c 0
 464 706 478 725 491 746 c 1
 499 743 503 719 503 706 c 3
 503 664 492 658 467 633 c 0
 421 587 291 508 170 414 c 0
 129 382 88 337 88 266 c 3
 88 128 167 56 307 56 c 3
 347 56 363 62 393 78 c 1
428 118 m 3
 444 118 457 130 457 147 c 3
 457 161 442 172 428 172 c 3
 412 172 399 160 399 146 c 3
 399 129 412 118 428 118 c 3
EndSplineSet
EndChar

StartChar: uni0ED3
Encoding: 3795 3795 56
Width: 665
VWidth: 1063
Flags: W
HStem: -6 66<326.199 437.898> -4 54<58.5595 114.129> 103 50<57.6585 113.923> 430 66<184.857 218.219> 735 71<203 289.556>
VStem: 3 54<51.3846 102.704> 102 70<217.796 426.241> 151 77<722.357 761> 228 75<214.089 428.261> 483 75<126.765 480.198>
LayerCount: 2
Back
SplineSet
558 286 m 0
 558 265 556 245 554 228 c 128
 552 211 550 194 548 177 c 128
 546 160 542 146 539 135 c 128
 536 124 530 107 523 85 c 1
 511 57 496 35 479 21 c 128
 462 7 442 -1 420 -3 c 0
 415 -3 409 -3 402 -4 c 128
 395 -5 390 -6 383 -6 c 0
 368 -6 357 -5 351 -3 c 128
 345 -1 336 2 324 8 c 128
 312 14 299 20 288 26 c 128
 277 32 264 41 249 51 c 0
 242 57 236 61 231 65 c 128
 226 69 220 76 212 85 c 1
 207 77 200 67 193 58 c 128
 186 49 179 42 175 38 c 0
 164 26 152 16 140 9 c 128
 128 2 113 -3 95 -4 c 0
 82 -4 69 -1 56 4 c 128
 43 9 33 15 26 21 c 0
 10 36 3 54 3 75 c 0
 3 93 10 110 24 127 c 128
 38 144 56 153 78 153 c 0
 92 153 102 153 106 152 c 128
 110 151 116 148 125 143 c 1
 130 142 132 141 133 140 c 0
 141 136 149 130 154 121 c 1
 166 140 l 1
 148 161 l 2
 144 168 137 179 130 192 c 128
 123 205 118 215 115 223 c 128
 112 231 109 242 106 259 c 128
 103 276 102 291 102 307 c 0
 102 318 102 329 103 340 c 128
 104 351 106 364 109 380 c 128
 112 396 115 408 118 416 c 128
 121 424 126 436 132 448 c 128
 138 460 147 471 160 481 c 128
 173 491 188 496 205 496 c 0
 212 496 224 492 238 484 c 128
 252 476 261 469 265 462 c 0
 272 450 280 438 287 427 c 1
 294 412 298 389 302 359 c 0
 303 355 303 351 303 347 c 128
 303 341 303 341 303 334 c 0
 303 311 300 283 293 251 c 0
 290 240 288 229 286 220 c 0
 282 203 276 188 269 175 c 2
 249 142 l 1
 253 137 259 132 265 127 c 128
 271 122 275 118 278 115 c 0
 289 106 300 98 311 91 c 128
 322 84 333 77 342 72 c 128
 351 67 360 65 369 63 c 128
 378 61 389 60 403 60 c 0
 419 60 431 66 440 78 c 128
 449 90 456 108 463 134 c 128
 470 160 475 183 478 204 c 128
 481 225 483 251 483 281 c 2
 483 305 l 1
 483 326 l 2
 483 374 480 414 474 445 c 0
 472 458 468 469 463 478 c 128
 458 487 455 495 451 503 c 128
 447 511 440 521 429 532 c 128
 418 543 410 551 402 557 c 128
 394 563 388 567 384 571 c 0
 370 581 358 589 348 595 c 0
 344 598 318 614 268 640 c 0
 237 656 217 666 208 671 c 128
 199 676 189 683 178 694 c 0
 164 707 156 719 154 728 c 128
 152 737 151 742 151 745 c 0
 151 750 153 756 157 763 c 128
 161 770 164 776 167 782 c 1
 174 790 184 797 198 801 c 128
 212 805 222 807 228 805 c 0
 239 803 247 801 250 800 c 128
 253 799 265 795 285 788 c 1
 409 724 l 1
 496 675 l 2
 503 670 510 663 516 653 c 128
 522 643 523 636 522 630 c 0
 518 621 507 613 489 607 c 1
 476 607 476 607 463 607 c 1
 463 618 460 625 455 628 c 128
 450 631 441 637 429 644 c 128
 417 651 406 657 399 660 c 2
 310 705 l 2
 298 711 283 717 264 724 c 128
 245 731 233 736 229 735 c 2
 219 731 l 1
 223 739 l 1
 231 731 l 1
 249 722 269 711 291 699 c 128
 313 687 335 674 359 659 c 2
 428 617 l 2
 446 606 459 595 470 585 c 0
 479 577 491 565 504 549 c 0
 513 537 521 521 529 502 c 0
 540 478 547 458 548 441 c 0
 552 408 555 384 556 368 c 128
 557 352 558 325 558 286 c 0
228 333 m 256
 228 362 226 385 220 403 c 128
 214 421 207 430 200 430 c 0
 190 430 183 410 177 372 c 0
 176 365 174 353 173 337 c 128
 172 321 172 308 172 300 c 0
 172 293 174 282 176 267 c 128
 178 252 183 237 190 224 c 2
 202 200 l 1
 215 241 l 2
 224 273 228 304 228 333 c 256
109 90 m 0
 103 98 94 103 82 103 c 0
 76 103 71 101 65 97 c 128
 59 93 57 86 57 78 c 0
 57 72 59 67 63 60 c 128
 67 53 74 50 85 50 c 0
 92 50 99 52 105 57 c 128
 111 62 115 69 115 77 c 0
 115 80 113 84 109 90 c 0
EndSplineSet
Fore
SplineSet
115 77 m 3x7c40
 115 91 97 103 82 103 c 3
 68 103 57 93 57 78 c 3
 57 63 67 50 85 50 c 3
 100 50 115 62 115 77 c 3x7c40
200 430 m 3
 179 430 172 338 172 300 c 3
 172 262 189 227 202 200 c 1
 214 238 228 289 228 333 c 3x3ec0
 228 366 223 430 200 430 c 3
522 634 m 3
 522 614 492 607 463 607 c 1
 463 618 460 625 455 628 c 0
 394 664 318 704 264 724 c 0
 247 730 235 735 230 735 c 3
 229 735 228 735 228 734 c 3
 228 732 237 728 239 727 c 0
 331 680 465 610 513 536 c 0
 554 472 558 385 558 286 c 3
 558 108 509 -6 383 -6 c 3xbd40
 324 -6 248 44 212 85 c 1
 187 45 147 -4 95 -4 c 3
 45 -4 3 28 3 75 c 3
 3 120 42 153 90 153 c 3
 114 153 144 140 154 121 c 1
 166 140 l 1
 131 180 102 232 102 307 c 3
 102 390 129 496 205 496 c 3
 274 496 303 402 303 334 c 3x7ec0
 303 254 277 188 249 142 c 1
 279 102 349 60 403 60 c 3
 464 60 483 196 483 281 c 3
 483 389 479 450 451 503 c 0
 414 572 296 622 208 671 c 0
 185 684 151 714 151 745 c 3xbd40
 151 777 186 806 220 806 c 3
 253 806 268 797 285 788 c 0
 356 751 428 715 496 675 c 0
 505 669 522 650 522 634 c 3
EndSplineSet
EndChar

StartChar: uni0ED4
Encoding: 3796 3796 57
Width: 695
VWidth: 1063
Flags: W
HStem: -5 60<141.942 241.981 416.792 494.81> 92 58<413.252 494.015> 174 44<422.508 487.925> 273 53<422.901 488.287>
VStem: 18 72<134.097 396.168> 285 67<130.496 227.066> 489 67<219.015 270.6> 495 79<49.9706 91.0543> 510 52<628.13 700.516>
LayerCount: 2
Back
SplineSet
574 69 m 0
 574 54 572 43 567 36 c 128
 562 29 552 21 538 12 c 0
 521 0 497 -5 466 -5 c 0
 441 -5 416 3 392 19 c 0
 382 25 375 29 371 31 c 0
 360 38 350 47 341 56 c 1
 259 20 l 2
 247 14 234 9 220 3 c 128
 206 -3 188 -5 168 -5 c 0
 146 -5 127 0 110 12 c 128
 93 24 76 42 58 66 c 1
 47 92 41 106 40 107 c 0
 33 126 28 143 26 157 c 128
 24 171 22 187 20 203 c 128
 18 219 18 234 18 249 c 0
 18 275 18 298 18 318 c 128
 18 338 21 358 24 379 c 128
 27 400 34 419 44 435 c 128
 54 451 65 465 77 476 c 128
 89 487 107 497 129 507 c 128
 151 517 173 525 194 530 c 2
 403 582 l 2
 418 586 430 590 440 595 c 128
 450 600 462 607 477 617 c 128
 492 627 501 638 505 650 c 128
 509 662 510 675 510 689 c 0
 510 700 508 714 503 729 c 1
 521 719 535 707 546 693 c 128
 557 679 562 666 562 651 c 128
 562 636 560 624 557 616 c 128
 554 608 544 595 525 578 c 128
 506 561 474 546 430 535 c 0
 375 521 328 509 290 498 c 128
 252 487 219 477 191 468 c 0
 175 462 160 452 144 439 c 128
 128 426 117 412 110 399 c 128
 103 386 98 368 95 345 c 128
 92 322 90 297 90 271 c 128
 90 245 91 223 94 202 c 128
 97 181 102 159 110 134 c 128
 118 109 129 90 142 76 c 128
 155 62 169 55 182 55 c 0
 187 55 192 56 195 57 c 0
 207 61 219 67 231 73 c 0
 247 81 260 86 269 90 c 2
 304 105 l 1
 298 115 293 130 288 149 c 128
 283 168 284 191 291 219 c 128
 298 247 307 267 319 277 c 128
 331 287 342 295 352 301 c 0
 365 308 377 314 388 317 c 128
 399 320 409 322 419 323 c 128
 429 324 438 326 446 326 c 0
 453 326 460 325 469 324 c 128
 478 323 487 322 495 321 c 128
 503 320 515 313 529 301 c 0
 547 285 556 269 556 250 c 0
 556 241 553 231 548 220 c 0
 536 196 509 181 469 175 c 0
 466 174 460 174 452 174 c 0
 438 174 425 176 414 179 c 128
 403 182 394 187 387 194 c 128
 380 201 372 212 363 229 c 1
 347 183 349 150 370 130 c 1
 378 133 389 136 404 140 c 128
 419 144 431 146 441 147 c 128
 451 148 461 150 472 150 c 0
 486 150 497 149 504 147 c 128
 511 145 518 142 527 138 c 0
 546 129 559 119 565 108 c 128
 571 97 574 84 574 69 c 0
483 258 m 0
 478 268 468 273 454 273 c 0
 447 273 440 271 432 267 c 128
 424 263 421 256 421 248 c 0
 421 242 425 235 431 228 c 128
 437 221 447 218 459 218 c 0
 464 218 469 219 475 221 c 0
 484 226 489 233 489 242 c 0
 489 245 489 245 489 248 c 0
 486 254 484 257 483 258 c 0
470 92 m 0
 458 92 448 92 442 91 c 128
 436 90 425 87 412 82 c 1
 418 74 423 69 427 65 c 0
 435 59 444 54 455 51 c 0
 462 50 465 49 467 49 c 0
 477 49 485 52 489 58 c 128
 493 64 495 69 495 72 c 0
 495 86 487 92 470 92 c 0
EndSplineSet
Fore
SplineSet
370 130 m 1xfe
 396 140 439 150 472 150 c 3
 530 150 574 123 574 69 c 3xfd
 574 15 523 -5 466 -5 c 3
 420 -5 367 30 341 56 c 1
 288 33 223 -5 168 -5 c 3
 52 -5 18 147 18 271 c 3
 18 446 58 496 194 530 c 2
 403 582 l 2
 456 596 510 621 510 689 c 3
 510 700 508 714 503 729 c 1
 530 714 562 687 562 651 c 3xfc80
 562 580 500 551 430 534 c 0
 337 510 268 493 191 468 c 0
 115 440 90 377 90 271 c 3
 90 192 115 55 182 55 c 3
 201 55 272 91 304 105 c 1
 296 118 285 149 285 175 c 3
 285 275 352 326 446 326 c 3
 499 326 556 302 556 250 c 3
 556 201 509 174 452 174 c 3
 400 174 383 192 363 229 c 1
 356 209 352 191 352 176 c 3
 352 157 358 141 370 130 c 1xfe
489 248 m 3xfe
 489 259 475 273 454 273 c 3
 439 273 421 264 421 248 c 3
 421 231 439 218 459 218 c 3
 479 218 489 229 489 248 c 3xfe
467 49 m 3
 482 49 495 60 495 72 c 3xfd
 495 86 487 92 470 92 c 3
 439 92 438 92 412 82 c 1
 424 66 441 49 467 49 c 3
EndSplineSet
EndChar

StartChar: uni0ED5
Encoding: 3797 3797 58
Width: 717
VWidth: 1063
Flags: W
HStem: -5 60<141.942 241.981 416.792 494.81> 92 58<413.252 494.015> 174 44<422.508 487.925> 273 53<422.901 488.287> 613 27<241.521 316.862>
VStem: 18 72<134.097 396.168> 191 44<560.975 608.99> 285 67<130.496 227.066> 324 45<573.086 608.858> 489 67<219.015 270.6> 495 79<49.9706 91.0543> 510 52<628.13 700.516>
LayerCount: 2
Back
SplineSet
370 130 m 1xfe
 396 140 439 150 472 150 c 3
 530 150 574 123 574 69 c 3xfd
 574 15 523 -5 466 -5 c 3
 420 -5 367 30 341 56 c 1
 288 33 223 -5 168 -5 c 3
 52 -5 18 147 18 271 c 3
 18 446 58 496 194 530 c 2
 403 582 l 2
 456 596 510 621 510 689 c 3
 510 700 508 714 503 729 c 1
 530 714 562 687 562 651 c 3xfc80
 562 580 500 551 430 534 c 0
 337 510 268 493 191 468 c 0
 115 440 90 377 90 271 c 3
 90 192 115 55 182 55 c 3
 201 55 272 91 304 105 c 1
 296 118 285 149 285 175 c 3
 285 275 352 326 446 326 c 3
 499 326 556 302 556 250 c 3
 556 201 509 174 452 174 c 3
 400 174 383 192 363 229 c 1
 356 209 352 191 352 176 c 3
 352 157 358 141 370 130 c 1xfe
489 248 m 3xfe
 489 259 475 273 454 273 c 3
 439 273 421 264 421 248 c 3
 421 231 439 218 459 218 c 3
 479 218 489 229 489 248 c 3xfe
467 49 m 3
 482 49 495 60 495 72 c 3xfd
 495 86 487 92 470 92 c 3
 439 92 438 92 412 82 c 1
 424 66 441 49 467 49 c 3
280 640 m 259
 320 640 369 620 369 583 c 259
 369 546 320 526 280 526 c 259
 240 526 191 546 191 583 c 259
 191 620 240 640 280 640 c 259
324 585 m 259
 324 603 300 613 280 613 c 3
 260 613 235 604 235 585 c 259
 235 566 260 557 280 557 c 3
 300 557 324 567 324 585 c 259
EndSplineSet
Fore
SplineSet
324 585 m 3xfe80
 324 603 300 613 280 613 c 3
 260 613 235 604 235 585 c 3
 235 566 260 557 280 557 c 3
 300 557 324 567 324 585 c 3xfe80
280 640 m 3
 320 640 369 620 369 583 c 3
 369 580 369 576 368 573 c 1
 403 582 l 2
 456 596 510 621 510 689 c 3
 510 700 508 714 503 729 c 1
 530 714 562 687 562 651 c 3xfe90
 562 580 500 551 430 534 c 0
 337 510 268 493 191 468 c 0
 115 440 90 377 90 271 c 3
 90 192 115 55 182 55 c 3
 201 55 272 91 304 105 c 1
 296 118 285 149 285 175 c 3
 285 275 352 326 446 326 c 3
 499 326 556 302 556 250 c 3xff40
 556 201 509 174 452 174 c 3
 400 174 383 192 363 229 c 1
 356 209 352 191 352 176 c 3
 352 157 358 141 370 130 c 1
 396 140 439 150 472 150 c 3
 530 150 574 123 574 69 c 3xff20
 574 15 523 -5 466 -5 c 3
 420 -5 367 30 341 56 c 1
 288 33 223 -5 168 -5 c 3
 52 -5 18 147 18 271 c 3
 18 446 58 496 194 530 c 2
 226 538 l 1
 206 548 191 563 191 583 c 3
 191 620 240 640 280 640 c 3
467 49 m 3
 482 49 495 60 495 72 c 3xfe20
 495 86 487 92 470 92 c 3
 439 92 438 92 412 82 c 1
 424 66 441 49 467 49 c 3
489 248 m 3xfe40
 489 259 475 273 454 273 c 3
 439 273 421 264 421 248 c 3
 421 231 439 218 459 218 c 3
 479 218 489 229 489 248 c 3xfe40
EndSplineSet
EndChar

StartChar: uni0ED6
Encoding: 3798 3798 59
Width: 654
VWidth: 1063
Flags: W
HStem: -8 58<130.979 228.851 342.219 420.122> 367 62<134.142 174.18> 466 54<135.893 174.649> 710 68<186 273.461>
VStem: 10 76<116.218 386.07> 133 78<697.882 738> 175 60<429.072 465.308> 202 65<156.668 222.849> 282 68<156.589 222.831> 466 75<122.123 464.613>
LayerCount: 2
Back
SplineSet
541 275 m 0
 541 254 540 236 538 219 c 128
 536 202 533 186 531 170 c 128
 529 154 526 141 523 130 c 128
 520 119 514 103 507 82 c 0
 496 54 479 33 456 17 c 0
 436 3 416 -4 396 -4 c 0
 381 -4 370 -3 362 -1 c 128
 354 1 341 9 322 20 c 1
 299 31 285 39 282 42 c 1
 269 30 251 19 229 8 c 128
 207 -3 188 -8 170 -8 c 0
 150 -8 129 -2 108 10 c 128
 87 22 69 39 56 60 c 0
 49 70 41 88 32 113 c 128
 23 138 18 158 16 174 c 128
 14 190 12 206 11 223 c 128
 10 240 10 251 10 255 c 0
 10 282 11 303 13 315 c 128
 15 327 16 342 18 359 c 128
 20 376 23 391 26 402 c 128
 29 413 36 427 46 445 c 0
 52 455 59 465 67 475 c 0
 73 482 79 488 86 494 c 0
 102 509 122 518 146 520 c 0
 167 523 187 517 205 503 c 0
 214 496 220 489 226 481 c 128
 232 473 235 464 235 454 c 0
 235 429 228 410 215 395 c 128
 202 380 183 370 158 367 c 1
 144 367 134 368 126 370 c 128
 118 372 109 378 98 389 c 1
 94 372 l 2
 90 352 88 335 87 322 c 128
 86 309 86 288 86 260 c 0
 86 228 86 210 87 204 c 0
 91 186 96 164 100 139 c 128
 104 114 114 93 128 76 c 128
 142 59 158 50 176 50 c 0
 184 50 191 52 199 55 c 128
 207 58 211 59 213 60 c 128
 215 61 218 63 224 66 c 128
 230 69 234 72 235 77 c 2
 237 85 l 1
 219 110 l 1
 205 159 l 2
 203 169 202 176 202 181 c 0
 202 190 203 200 206 210 c 128
 209 220 213 230 217 240 c 0
 223 250 231 260 239 268 c 128
 247 276 254 280 261 281 c 128
 268 282 274 282 280 282 c 0
 288 282 296 280 303 277 c 0
 327 266 342 249 349 225 c 0
 350 222 350 216 350 208 c 0
 350 194 347 173 340 147 c 1
 318 90 l 1
 344 70 l 2
 351 66 359 62 370 59 c 128
 381 56 389 55 393 56 c 0
 406 62 417 70 425 80 c 128
 433 90 440 107 447 131 c 128
 454 155 458 177 461 196 c 128
 464 215 466 240 466 269 c 2
 466 293 l 1
 466 313 l 2
 466 347 465 370 464 382 c 128
 463 394 461 408 458 424 c 128
 455 440 451 452 446 461 c 128
 441 470 438 478 435 485 c 128
 432 492 424 501 413 512 c 128
 402 523 392 531 384 537 c 128
 376 543 371 548 367 551 c 0
 350 563 338 571 331 575 c 0
 328 578 300 593 250 618 c 0
 219 634 199 644 190 649 c 128
 181 654 170 661 158 671 c 0
 144 684 137 695 135 703 c 128
 133 711 133 717 133 720 c 0
 133 726 135 732 139 739 c 128
 143 746 145 751 148 756 c 0
 154 764 164 770 178 774 c 128
 192 778 204 779 212 778 c 0
 219 777 225 775 231 773 c 128
 237 771 249 767 267 760 c 1
 390 699 l 1
 479 652 l 2
 487 646 493 640 499 631 c 128
 505 622 507 614 505 608 c 0
 501 597 487 590 463 585 c 1
 457 586 451 586 446 587 c 1
 446 595 443 601 438 607 c 1
 430 612 422 617 414 621 c 128
 406 625 394 632 381 638 c 2
 291 681 l 2
 279 687 265 693 246 700 c 128
 227 707 216 711 213 710 c 2
 199 707 l 1
 205 715 l 1
 213 707 l 1
 231 698 251 688 272 677 c 128
 293 666 316 652 342 636 c 2
 411 596 l 2
 429 585 443 575 454 565 c 0
 463 557 474 546 487 530 c 0
 496 517 505 501 514 482 c 128
 523 463 530 440 533 415 c 128
 536 390 538 369 539 354 c 128
 540 339 541 312 541 275 c 0
175 449 m 0
 174 456 170 460 166 462 c 0
 163 465 159 466 152 466 c 0
 145 465 141 463 138 460 c 1
 134 445 l 2
 134 442 135 440 136 438 c 128
 137 436 139 434 140 432 c 0
 147 429 151 427 155 428 c 0
 162 429 168 432 171 436 c 128
 174 440 176 445 175 449 c 0
282 214 m 0
 282 220 280 223 273 223 c 1
 269 221 267 215 267 205 c 0
 267 202 267 199 268 195 c 128
 269 191 269 188 269 186 c 2
 274 156 l 1
 276 162 l 2
 278 172 279 183 280 193 c 128
 281 203 281 210 282 214 c 0
EndSplineSet
Fore
SplineSet
274 156 m 1xf9c0
 279 171 278 198 282 214 c 1
 282 220 280 223 273 223 c 3
 269 223 267 215 267 205 c 3
 267 187 271 172 274 156 c 1xf9c0
154 429 m 3
 165 429 175 436 175 447 c 3xfac0
 175 458 164 466 152 466 c 3
 144 466 134 458 134 445 c 3
 134 434 144 429 154 429 c 3
158 367 m 3
 125 367 117 370 98 389 c 1
 87 343 86 311 86 260 c 3
 86 173 104 50 176 50 c 3
 198 50 231 64 237 85 c 1
 221 108 202 143 202 181 c 3xf9c0
 202 232 230 282 280 282 c 3
 321 282 350 248 350 208 c 3
 350 166 330 121 318 90 c 1
 338 74 356 56 393 56 c 3
 446 56 466 201 466 269 c 3
 466 398 462 428 435 485 c 0
 404 550 245 618 190 649 c 0
 166 663 133 687 133 720 c 3xfcc0
 133 756 167 778 205 778 c 3
 232 778 238 771 267 760 c 0xf9c0
 338 725 410 690 479 652 c 0
 488 646 506 628 506 613 c 3
 506 597 478 585 463 585 c 3
 457 585 451 586 446 587 c 1
 446 595 445 603 438 607 c 0
 397 632 289 684 246 700 c 0
 229 706 218 710 214 710 c 3
 213 710 211 710 211 709 c 3xfcc0
 211 708 218 705 220 704 c 0
 310 659 454 583 496 515 c 0
 534 453 541 391 541 275 c 3
 541 157 508 -4 396 -4 c 3
 359 -4 308 18 282 42 c 1
 261 23 209 -8 170 -8 c 3
 56 -8 10 132 10 255 c 3
 10 373 41 520 153 520 c 3
 190 520 235 493 235 454 c 3
 235 403 200 367 158 367 c 3
EndSplineSet
EndChar

StartChar: uni0ED7
Encoding: 3799 3799 60
Width: 612
VWidth: 1057
Flags: W
HStem: -3 52<59.9535 120.859> 112 55<60.2226 121.561> 411 57<68.5439 121.82> 524 60<237.62 399.637> 534 57<64.8014 130.225>
VStem: 1 57<50.8046 109.982 477.386 531.626> 122 69<50.4963 110.557 161 412> 428 69<-176 493.482>
LayerCount: 2
Back
SplineSet
497 -176 m 1
 428 -176 l 1
 428 403 l 2
 428 444 421 474 407 494 c 128
 393 514 370 524 336 524 c 0
 317 524 301 523 287 521 c 128
 273 519 259 515 246 508 c 128
 233 501 219 489 205 471 c 1
 199 462 l 1
 193 448 l 2
 192 445 192 440 192 434 c 128
 192 428 191 423 191 422 c 2
 191 121 l 2
 191 113 191 105 190 97 c 128
 189 89 188 82 186 75 c 0
 185 64 182 54 178 45 c 128
 174 36 170 29 164 23 c 128
 158 17 151 10 142 6 c 128
 133 2 121 -1 109 -3 c 1
 74 -3 48 2 29 12 c 1
 25 17 21 22 18 25 c 0
 13 31 9 36 7 42 c 0
 3 52 1 64 1 80 c 0
 1 103 6 122 16 135 c 128
 26 148 41 158 59 163 c 0
 65 166 73 167 83 167 c 0
 96 167 109 165 122 161 c 1
 122 412 l 1
 107 411 l 1
 84 411 63 419 42 434 c 0
 19 449 7 474 7 508 c 0
 7 532 16 552 33 568 c 0
 35 571 39 575 46 578 c 128
 53 581 59 583 62 585 c 1
 97 591 l 1
 111 591 126 587 141 581 c 128
 156 575 168 567 175 557 c 2
 186 542 l 1
 182 539 l 1
 194 550 l 1
 207 557 l 2
 212 560 220 565 230 568 c 128
 240 571 248 574 255 577 c 1
 290 582 l 1
 328 584 l 1
 379 584 420 570 451 541 c 128
 482 512 497 469 497 413 c 2
 497 -176 l 1
128 479 m 0
 132 485 134 491 134 498 c 0
 134 508 130 517 122 523 c 0
 114 531 105 534 93 534 c 0
 82 534 74 531 70 525 c 128
 66 519 64 513 64 506 c 0
 64 495 68 486 77 479 c 128
 86 472 95 468 105 468 c 256
 115 468 123 472 128 479 c 0
116 100 m 0
 110 108 101 112 90 112 c 0
 81 112 73 109 67 102 c 128
 61 95 58 87 58 79 c 0
 58 71 60 64 66 58 c 128
 72 52 80 49 91 49 c 0
 100 49 107 52 113 58 c 128
 119 64 123 72 123 81 c 0
 123 89 121 95 116 100 c 0
EndSplineSet
Fore
SplineSet
328 584 m 3xf7
 434 584 497 522 497 413 c 2
 497 -176 l 1
 428 -176 l 1
 428 403 l 2
 428 478 408 524 336 524 c 3xf7
 275 524 191 506 191 422 c 2
 191 121 l 2
 191 44 168 -3 91 -3 c 3
 32 -3 1 23 1 80 c 3
 1 133 31 167 83 167 c 3
 96 167 109 165 122 161 c 1
 122 412 l 1
 122 412 112 411 107 411 c 3
 53 411 7 450 7 508 c 3
 7 556 45 591 97 591 c 3xef
 144 591 168 567 186 542 c 1
 215 569 264 584 328 584 c 3xf7
105 468 m 259
 122 468 134 481 134 498 c 3
 134 519 114 534 93 534 c 3xef
 74 534 64 523 64 506 c 3
 64 485 85 468 105 468 c 259
123 81 m 3
 123 100 108 112 90 112 c 3
 72 112 58 96 58 79 c 3
 58 61 71 49 91 49 c 3
 109 49 123 64 123 81 c 3
EndSplineSet
EndChar

StartChar: uni0ED8
Encoding: 3800 3800 61
Width: 707
VWidth: 1063
Flags: W
HStem: -328 68<440.606 504.057> -270 63<87 208.62> 220 65<137.741 198.293> 348 65<137.883 198.182> 515 73<102.774 172.267> 522 69<426.192 489.158>
VStem: 22 69<377.693 509.321> 31 81<-206.074 -160.681> 200 62<286.418 345.397> 366 70<-255.221 -195.953> 494 75<-75.7743 518.724> 505 76<-258.436 -199.499>
LayerCount: 2
Back
SplineSet
574 -269 m 0
 568 -287 557 -300 541 -311 c 128
 525 -322 506 -328 482 -328 c 1
 467 -330 450 -329 432 -323 c 0
 404 -314 384 -298 372 -274 c 0
 369 -268 368 -259 367 -248 c 128
 366 -237 366 -222 366 -204 c 2
 366 -192 l 1
 322 -212 282 -228 245 -240 c 0
 187 -260 141 -270 110 -270 c 0
 96 -270 85 -267 76 -263 c 0
 59 -253 48 -242 41 -231 c 128
 34 -220 31 -208 31 -196 c 0
 31 -184 35 -171 42 -156 c 1
 47 -143 61 -128 86 -111 c 0
 115 -92 150 -76 190 -63 c 0
 216 -56 255 -42 310 -23 c 0
 378 1 436 23 483 44 c 1
 480 16 469 -6 451 -23 c 128
 433 -40 400 -57 354 -73 c 128
 308 -89 263 -106 218 -123 c 0
 184 -137 155 -149 132 -161 c 0
 119 -168 112 -176 112 -185 c 0
 112 -193 116 -199 122 -202 c 1
 124 -205 129 -207 136 -207 c 0
 151 -207 174 -200 204 -188 c 0
 241 -171 278 -155 316 -138 c 1
 363 -122 401 -110 429 -100 c 1
 451 -89 472 -77 494 -66 c 1
 494 432 l 2
 494 478 491 507 483 517 c 0
 480 521 472 522 460 522 c 0
 458 522 453 519 444 513 c 128
 435 507 428 502 421 497 c 0
 406 482 392 471 381 461 c 128
 370 451 355 440 336 426 c 0
 330 422 320 419 308 419 c 0
 298 419 288 421 278 424 c 128
 268 427 257 431 248 437 c 2
 159 502 l 2
 155 505 149 508 143 511 c 128
 137 514 130 515 126 515 c 0
 118 515 112 511 107 503 c 0
 101 493 97 478 95 459 c 128
 93 440 91 429 91 426 c 0
 91 417 93 403 95 383 c 128
 97 363 99 351 100 348 c 1
 87 348 l 1
 90 372 102 390 122 401 c 0
 136 409 153 413 173 413 c 0
 196 413 215 407 231 394 c 0
 252 376 262 351 262 317 c 1
 264 296 260 276 246 259 c 128
 232 242 214 230 190 224 c 0
 181 222 173 220 165 220 c 0
 154 220 142 223 129 227 c 128
 116 231 105 237 94 244 c 0
 71 259 53 283 41 318 c 128
 29 353 22 389 22 426 c 0
 22 438 22 447 23 453 c 0
 29 492 35 520 44 536 c 0
 58 562 82 578 116 587 c 0
 131 590 154 582 187 564 c 0
 189 563 206 553 240 531 c 1
 248 524 259 515 273 507 c 128
 287 499 297 493 301 491 c 1
 321 507 321 506 348 527 c 0
 373 546 389 558 396 562 c 0
 408 569 421 575 436 581 c 128
 451 587 460 590 466 591 c 0
 488 591 505 589 517 583 c 0
 535 574 549 557 559 533 c 0
 567 514 571 500 571 490 c 0
 570 477 569 463 569 448 c 2
 569 -91 l 2
 569 -95 554 -102 523 -111 c 0
 508 -115 493 -119 479 -123 c 1
 490 -123 504 -127 521 -136 c 128
 538 -145 551 -154 559 -164 c 0
 574 -182 581 -204 581 -232 c 0
 581 -245 579 -257 574 -269 c 0
194 335 m 0
 188 344 179 348 168 348 c 0
 160 348 153 346 146 340 c 128
 139 334 136 325 136 315 c 0
 136 309 138 303 143 296 c 128
 148 289 156 285 168 285 c 0
 177 285 184 287 189 292 c 0
 197 298 200 306 200 317 c 0
 200 324 198 329 194 335 c 0
504 -246 m 0
 507 -239 506 -230 501 -220 c 128
 496 -210 490 -202 482 -197 c 0
 478 -196 473 -195 469 -195 c 0
 456 -195 445 -199 438 -208 c 1
 436 -216 436 -224 439 -234 c 128
 442 -244 448 -251 456 -256 c 0
 462 -258 468 -260 475 -260 c 0
 489 -260 498 -255 504 -246 c 0
EndSplineSet
Fore
SplineSet
475 -260 m 3xb0d0
 493 -260 505 -251 505 -236 c 3
 505 -216 489 -195 469 -195 c 3
 452 -195 436 -200 436 -220 c 3
 436 -242 452 -260 475 -260 c 3xb0d0
200 317 m 3
 200 335 185 348 168 348 c 3
 150 348 136 334 136 315 c 3
 136 299 149 285 168 285 c 3
 188 285 200 298 200 317 c 3
581 -232 m 3
 581 -290 541 -328 482 -328 c 3xb4d0
 401 -328 366 -292 366 -231 c 2
 366 -192 l 1
 296 -224 183 -270 110 -270 c 3
 64 -270 31 -236 31 -196 c 3
 31 -156 50 -134 86 -111 c 0
 169 -58 305 -39 483 44 c 1
 475 -28 426 -48 354 -73 c 0
 282 -98 194 -129 132 -161 c 0
 119 -168 112 -176 112 -185 c 3
 112 -198 122 -207 136 -207 c 3
 151 -207 174 -200 204 -188 c 0
 296 -146 411 -108 494 -66 c 1
 494 432 l 2
 494 516 486 522 460 522 c 3x75e0
 432 522 360 419 308 419 c 3
 229 419 177 515 126 515 c 3
 98 515 91 453 91 426 c 3
 91 421 94 396 96 376 c 1
 110 400 137 413 173 413 c 3
 230 413 262 373 262 317 c 3
 262 259 223 220 165 220 c 3
 65 220 22 324 22 426 c 3
 22 546 76 588 123 588 c 3x3ae0
 173 588 244 519 301 491 c 1
 341 523 422 591 466 591 c 3
 541 591 569 547 569 448 c 2
 569 -91 l 2x36e0
 569 -100 499 -117 479 -123 c 1
 537 -123 581 -174 581 -232 c 3
EndSplineSet
EndChar

StartChar: uni0ED9
Encoding: 3801 3801 62
Width: 781
VWidth: 1063
Flags: W
HStem: -7 57<120.584 195.706 423.834 553.103> 117 57<118.683 198.559> 497 61<143.424 284.069>
VStem: 23 75<164 456.006> 201 73<58.3494 113.45> 318 76<79.6978 465.418> 580 77<78.6406 495.258>
LayerCount: 2
Back
SplineSet
657 146 m 2
 657 119 652 94 641 70 c 128
 630 46 618 29 603 20 c 0
 582 9 564 1 548 -2 c 128
 532 -5 504 -7 465 -7 c 0
 431 -7 401 2 372 22 c 128
 343 42 325 65 317 92 c 1
 314 112 l 2
 313 115 315 118 318 124 c 1
 318 138 l 1
 318 427 l 1
 315 445 305 460 289 472 c 0
 277 481 259 488 238 494 c 0
 230 496 223 497 215 497 c 0
 208 497 201 497 194 495 c 128
 187 493 179 491 172 488 c 0
 156 482 147 478 143 475 c 0
 128 467 118 458 114 449 c 128
 110 440 105 428 98 412 c 1
 98 396 l 1
 98 164 l 1
 119 171 138 174 154 174 c 0
 175 174 193 173 205 170 c 128
 217 167 229 162 243 152 c 1
 255 142 264 131 268 120 c 128
 272 109 274 96 274 80 c 0
 274 63 266 46 251 28 c 0
 232 6 208 -6 178 -8 c 1
 151 -8 126 -5 106 2 c 128
 86 9 67 22 50 41 c 0
 42 50 36 64 31 84 c 128
 26 104 23 123 23 141 c 2
 23 390 l 2
 23 422 29 451 40 474 c 128
 51 497 71 516 100 532 c 0
 114 540 127 546 137 549 c 0
 150 551 161 553 172 555 c 128
 183 557 197 558 215 558 c 0
 234 558 252 556 267 554 c 128
 282 552 296 547 311 541 c 0
 342 527 365 509 379 487 c 128
 393 465 397 437 394 403 c 1
 394 138 l 1
 397 105 409 81 428 67 c 0
 440 58 453 53 467 52 c 128
 481 51 492 50 500 50 c 0
 507 50 517 52 530 57 c 128
 543 62 552 70 559 82 c 128
 566 94 573 112 580 138 c 1
 580 440 l 1
 570 463 l 1
 570 470 567 479 561 493 c 128
 555 507 551 515 548 518 c 1
 544 527 541 536 541 544 c 0
 541 553 543 559 548 564 c 128
 553 569 562 572 574 574 c 1
 617 548 642 514 651 473 c 2
 655 455 l 1
 657 432 l 1
 657 146 l 2
192 106 m 0
 186 113 177 117 164 117 c 0
 151 117 139 114 130 108 c 128
 121 102 116 94 116 85 c 0
 116 78 120 71 127 64 c 128
 134 57 144 52 159 52 c 0
 167 52 175 55 183 59 c 0
 195 67 201 76 201 87 c 0
 201 94 198 100 192 106 c 0
EndSplineSet
Fore
SplineSet
541 544 m 3
 541 565 554 571 574 574 c 1
 630 540 657 490 657 432 c 2
 657 146 l 2
 657 43 594 -7 497 -7 c 3
 410 -7 318 17 318 124 c 2
 318 427 l 2
 318 461 265 497 215 497 c 3
 144 497 98 443 98 412 c 2
 98 164 l 1
 119 171 138 174 154 174 c 3
 226 174 274 151 274 80 c 3
 274 21 214 -7 154 -7 c 3
 71 -7 23 51 23 141 c 2
 23 390 l 2
 23 504 98 558 215 558 c 3
 314 558 394 513 394 423 c 2
 394 138 l 2
 394 74 441 50 500 50 c 3
 553 50 580 95 580 138 c 2
 580 440 l 2
 580 466 541 517 541 544 c 3
201 87 m 3
 201 104 184 117 164 117 c 3
 141 117 116 106 116 85 c 3
 116 67 137 52 159 52 c 3
 180 52 201 69 201 87 c 3
EndSplineSet
EndChar

StartChar: uni0EDC
Encoding: 3804 3804 63
Width: 1052
VWidth: 1063
Flags: W
HStem: -3 68<121.725 284.396 708.541 844.437> 378 60<75.2325 123.565> 427 52<284.729 342.71> 500 61<457.903 559.236> 519 54<73.7404 144.425> 529 42<284.206 347.715>
VStem: -2 78<106.564 211.669 440.569 516.428> 150 86<442.404 513.603> 238 45<481.295 525.498> 342 77<117.603 429.645> 573 80<109.715 487.865> 871 70<90.9805 545.144>
LayerCount: 2
Back
SplineSet
353 482 m 1
 353 492 351 500 349 506 c 0
 344 521 335 529 322 529 c 0
 313 529 306 528 299 525 c 0
 293 521 289 517 286 512 c 2
 283 505 l 1
 283 498 286 492 291 488 c 0
 297 482 306 479 318 479 c 2
 331 479 l 1
 337 480 l 1
 353 482 l 1
150 478 m 0
 150 487 146 497 139 508 c 1
 126 516 l 2
 120 518 116 519 111 519 c 0
 100 519 89 515 80 508 c 1
 72 494 l 1
 70 478 l 2
 70 474 71 470 72 465 c 128
 73 460 75 456 80 450 c 1
 89 442 100 438 111 438 c 0
 117 438 122 439 125 440 c 2
 132 445 l 1
 139 450 l 1
 146 459 150 468 150 478 c 0
653 129 m 1
 693 92 730 72 764 69 c 0
 769 68 774 68 779 68 c 0
 807 68 828 73 842 84 c 0
 860 98 870 118 871 145 c 2
 871 468 l 2
 871 483 869 496 866 505 c 2
 857 525 l 2
 853 535 851 541 850 543 c 128
 849 545 845 553 837 566 c 1
 918 569 l 1
 934 533 941 499 941 468 c 2
 941 121 l 2
 941 102 933 81 918 58 c 128
 903 35 883 19 857 10 c 0
 836 3 810 -1 780 -2 c 0
 776 -3 770 -3 766 -3 c 0
 715 -4 676 9 649 36 c 1
 627 7 l 2
 626 4 624 0 622 -3 c 1
 532 -3 l 1
 533 -2 533 -1 534 0 c 2
 527 0 l 1
 537 12 545 24 553 37 c 0
 557 45 560 52 562 58 c 0
 569 74 573 89 573 106 c 2
 573 427 l 1
 570 473 553 497 523 500 c 128
 493 503 458 484 419 446 c 1
 419 155 l 1
 404 93 371 49 317 21 c 0
 306 15 289 10 268 4 c 0
 246 -1 227 -3 211 -3 c 0
 176 -3 145 1 117 9 c 128
 89 17 66 29 49 46 c 0
 15 76 -2 116 -2 165 c 0
 -2 186 5 207 17 231 c 1
 30 253 l 1
 41 268 l 1
 75 314 l 1
 105 352 l 1
 124 380 l 1
 104 378 l 1
 81 382 l 1
 66 386 l 1
 48 395 l 1
 30 405 l 1
 10 423 -1 445 -1 471 c 0
 -1 499 8 524 26 544 c 1
 48 563 75 573 107 573 c 0
 142 573 173 565 197 548 c 1
 223 527 236 502 236 473 c 0
 236 460 233 446 228 431 c 2
 221 408 l 1
 211 383 l 1
 185 336 l 1
 144 275 l 1
 86 195 l 1
 78 182 l 1
 76 165 l 1
 76 137 87 113 110 93 c 0
 114 90 120 87 128 83 c 128
 136 79 144 76 151 73 c 2
 178 67 l 1
 208 65 l 1
 225 65 l 1
 239 70 l 2
 248 71 258 74 268 80 c 1
 302 87 327 116 342 165 c 1
 343 427 l 1
 325 429 311 431 300 433 c 128
 289 435 282 436 279 438 c 128
 276 440 271 442 266 446 c 0
 257 451 250 459 245 468 c 128
 240 477 238 488 238 500 c 0
 238 512 239 522 242 529 c 0
 248 541 259 551 273 559 c 128
 287 567 305 571 325 571 c 0
 352 571 375 564 394 549 c 1
 400 542 406 531 412 515 c 1
 435 549 480 564 547 561 c 128
 614 558 649 518 652 444 c 1
 653 129 l 1
EndSplineSet
Fore
SplineSet
283 505 m 3xa7f0
 283 488 300 479 318 479 c 3
 331 479 341 481 353 482 c 1
 353 507 342 529 322 529 c 3
 300 529 283 516 283 505 c 3xa7f0
70 478 m 3
 70 454 89 438 111 438 c 3
 134 438 150 458 150 478 c 3
 150 497 134 519 111 519 c 3xcbf0
 85 519 70 504 70 478 c 3
573 427 m 2xb3f0
 573 475 552 500 517 500 c 3xb3f0
 488 500 455 481 419 446 c 1
 419 155 l 2
 419 74 316 -3 211 -3 c 3
 89 -3 -2 50 -2 165 c 3
 -2 234 87 325 124 380 c 1
 124 380 109 378 104 378 c 3
 49 378 -1 419 -1 471 c 3
 -1 533 45 573 107 573 c 3xcbf0
 175 573 236 536 236 473 c 3
 236 342 76 221 76 165 c 3
 76 99 136 65 208 65 c 3
 276 65 342 116 342 165 c 2
 343 427 l 1
 286 434 238 439 238 500 c 3xb3f0
 238 549 276 571 325 571 c 3x87f0
 372 571 397 554 412 515 c 1
 433 546 473 561 531 561 c 3
 609 561 652 525 652 444 c 2
 653 129 l 1
 697 88 732 68 779 68 c 3
 837 68 871 96 871 145 c 2
 871 468 l 2
 871 510 852 542 837 566 c 1
 918 569 l 1
 934 533 941 499 941 468 c 2
 941 121 l 2
 941 35 858 -3 766 -3 c 3
 715 -3 676 9 649 36 c 1
 639 23 631 11 622 -3 c 1
 525 -3 l 1
 547 23 573 62 573 106 c 2
 573 427 l 2xb3f0
EndSplineSet
EndChar

StartChar: uni0EDD
Encoding: 3805 3805 64
Width: 1073
VWidth: 1063
Flags: W
HStem: -3 71<122.111 297.424 513.92 585.135 705.582 853.177> 150 70<512.405 577.741> 378 60<79.4506 128.565> 427 52<289.729 347.71> 500 61<462.903 563.804> 519 54<79.5288 148.392> 529 42<289.585 352.715>
VStem: 4 77<106.564 209.089 440.417 516.385> 155 86<443.415 513.397> 243 46<481.131 526.722> 347 77<114.054 429.645> 446 62<74.5017 145.085> 578 80<215 484.876> 591 67<107.862 144.464> 876 70<90.9805 545.673>
LayerCount: 2
Back
SplineSet
358 482 m 1
 358 492 356 500 354 506 c 0
 349 521 340 529 327 529 c 0
 318 529 311 528 304 525 c 0
 298 521 294 517 291 512 c 2
 289 505 l 1
 289 498 291 492 296 488 c 0
 302 482 311 479 323 479 c 2
 336 479 l 1
 342 480 l 1
 358 482 l 1
155 478 m 0
 155 487 151 497 144 508 c 1
 131 516 l 2
 125 518 121 519 116 519 c 0
 105 519 95 515 86 508 c 1
 77 494 l 1
 75 478 l 2
 75 474 76 470 77 465 c 128
 78 460 81 456 86 450 c 1
 95 442 105 438 116 438 c 0
 122 438 127 439 130 440 c 2
 138 445 l 1
 144 450 l 1
 151 459 155 468 155 478 c 0
637 41 m 1
 611 15 583 2 555 2 c 0
 525 2 499 13 478 34 c 128
 457 55 446 82 446 113 c 0
 446 142 456 167 477 187 c 1
 494 202 l 2
 500 206 506 209 513 211 c 0
 528 217 543 220 556 220 c 0
 562 220 569 218 578 215 c 1
 578 427 l 1
 575 473 558 497 528 500 c 128
 498 503 463 484 424 446 c 1
 425 155 l 1
 410 93 376 49 322 21 c 0
 311 15 295 10 274 4 c 0
 252 -1 232 -3 216 -3 c 0
 181 -3 150 1 122 9 c 128
 94 17 72 29 55 46 c 0
 21 76 4 116 4 165 c 0
 4 186 10 207 22 231 c 1
 35 253 l 1
 46 268 l 1
 80 314 l 1
 110 352 l 1
 129 380 l 1
 109 378 l 1
 86 382 l 1
 72 386 l 1
 53 395 l 1
 35 405 l 1
 15 423 5 445 5 471 c 0
 5 499 14 524 32 544 c 1
 54 563 81 573 113 573 c 0
 148 573 178 565 202 548 c 1
 228 527 241 502 241 473 c 0
 241 460 239 446 234 431 c 2
 226 408 l 1
 216 383 l 1
 190 336 l 1
 149 275 l 1
 91 195 l 1
 84 182 l 1
 81 165 l 1
 81 137 92 113 115 93 c 0
 119 90 125 87 133 83 c 128
 141 79 149 76 156 73 c 2
 183 67 l 1
 213 65 l 1
 230 65 l 1
 245 70 l 2
 254 71 264 74 274 80 c 1
 308 87 332 116 347 165 c 1
 348 427 l 1
 330 429 316 431 305 433 c 128
 294 435 287 436 284 438 c 128
 281 440 276 442 271 446 c 0
 262 451 255 459 250 468 c 128
 245 477 243 488 243 500 c 0
 243 512 245 522 248 529 c 0
 254 541 264 551 278 559 c 128
 292 567 310 571 330 571 c 0
 357 571 380 564 399 549 c 1
 405 542 411 531 417 515 c 1
 440 549 485 564 552 561 c 128
 619 558 654 518 657 444 c 1
 658 154 l 1
 670 118 l 1
 705 88 739 72 769 69 c 0
 774 68 779 68 784 68 c 0
 812 68 833 73 847 84 c 0
 865 98 875 118 876 145 c 2
 876 468 l 2
 876 483 875 496 872 505 c 2
 862 525 l 2
 858 535 856 541 855 543 c 128
 854 545 850 553 842 566 c 1
 923 569 l 1
 939 533 946 499 946 468 c 2
 946 121 l 2
 946 102 938 81 923 58 c 128
 908 35 888 19 862 10 c 0
 841 3 815 -1 785 -2 c 0
 781 -3 775 -3 771 -3 c 0
 720 -4 675 11 637 41 c 1
578 139 m 0
 570 147 560 150 549 150 c 0
 538 150 528 146 519 138 c 1
 513 130 509 121 508 111 c 0
 508 101 511 91 519 82 c 1
 533 73 l 1
 549 70 l 1
 557 70 l 1
 564 74 l 1
 579 82 l 2
 581 84 584 88 587 94 c 0
 594 109 591 124 578 139 c 0
EndSplineSet
Fore
SplineSet
289 505 m 3xd3f2
 289 487 304 479 323 479 c 3
 336 479 346 481 358 482 c 1
 358 507 347 529 327 529 c 3
 306 529 289 522 289 505 c 3xd3f2
116 438 m 3xe5f2
 139 438 155 458 155 478 c 3
 155 497 139 519 116 519 c 3
 91 519 75 503 75 478 c 3
 75 455 94 438 116 438 c 3xe5f2
243 500 m 3xd9fa
 243 548 281 571 330 571 c 3xc3fa
 377 571 402 554 417 515 c 1
 438 546 478 561 536 561 c 3
 614 561 657 525 657 444 c 2
 658 154 l 2xc9f6
 658 99 738 68 784 68 c 3
 848 68 876 99 876 145 c 2
 876 468 l 2
 876 520 857 541 842 566 c 1
 923 569 l 1
 939 533 946 499 946 468 c 2
 946 121 l 2
 946 35 863 -3 771 -3 c 3
 718 -3 676 11 637 41 c 1
 611 15 583 2 555 2 c 3
 494 2 446 52 446 113 c 3
 446 172 494 220 556 220 c 3
 562 220 569 218 578 215 c 1
 578 427 l 2
 578 469 557 500 522 500 c 3xd9fa
 493 500 460 481 424 446 c 1
 424 155 l 2
 424 84 333 -3 216 -3 c 3
 94 -3 4 50 4 165 c 3
 4 237 92 325 129 380 c 1
 129 380 114 378 109 378 c 3
 61 378 5 412 5 471 c 3
 5 533 51 573 113 573 c 3xe5fa
 181 573 241 535 241 473 c 3
 241 353 81 211 81 165 c 3
 81 99 141 65 213 65 c 3
 284 65 347 114 347 165 c 2
 348 427 l 1
 291 434 243 439 243 500 c 3xd9fa
591 110 m 3xc1f6
 591 131 572 150 549 150 c 3
 527 150 508 133 508 111 c 3
 508 86 525 70 549 70 c 3
 571 70 591 87 591 110 c 3xc1f6
EndSplineSet
EndChar

StartChar: uni0E92
Encoding: 3730 3730 68
Width: 1082
VWidth: 1063
Flags: W
HStem: -3 68<452.554 537.044 645.905 794.241> -3 58<156.084 227.375> 141 42<156.789 229.442> 158 63<451.84 537.166> 516 67<111.107 209.473 405.98 505.382>
VStem: 4 75<124.043 481.918> 234 57<61.2602 136.622> 374 70<72.9009 149.012> 546 76<87.9657 148.139 207 462.766> 828 77<96.5312 554.643>
LayerCount: 2
Back
SplineSet
234 100 m 1
 234 116 226 129 209 139 c 1
 199 140 l 1
 192 141 l 1
 174 141 161 132 154 116 c 1
 152 107 l 1
 150 99 l 1
 150 81 158 67 175 59 c 2
 182 56 l 1
 191 55 l 2
 200 55 206 57 212 60 c 128
 218 63 223 70 229 80 c 1
 233 92 l 1
 234 100 l 1
546 113 m 0
 546 124 540 134 530 144 c 128
 520 154 508 158 494 158 c 0
 481 158 468 153 458 144 c 1
 450 135 446 125 444 113 c 1
 444 102 449 90 458 79 c 1
 475 69 l 1
 494 65 l 1
 504 65 l 1
 512 70 l 1
 531 79 l 2
 533 81 536 86 540 93 c 128
 544 100 546 106 546 113 c 0
546 364 m 1
 544 415 533 454 516 481 c 0
 510 490 502 498 492 505 c 128
 482 512 473 516 463 516 c 0
 445 516 425 508 405 491 c 1
 385 479 366 457 349 427 c 0
 344 417 338 410 331 405 c 128
 324 400 317 398 311 398 c 0
 307 398 301 401 292 405 c 1
 284 411 279 417 275 425 c 0
 256 453 235 476 212 492 c 1
 181 510 l 2
 172 514 163 517 153 517 c 0
 144 517 134 514 125 507 c 0
 118 503 110 495 102 482 c 1
 92 461 l 1
 86 434 l 1
 80 402 l 1
 79 365 l 1
 79 197 l 1
 80 170 l 1
 86 137 l 1
 89 128 l 1
 95 120 l 1
 97 128 l 1
 104 145 116 158 135 169 c 1
 147 174 l 1
 160 180 l 1
 189 183 l 1
 211 182 l 1
 230 177 l 1
 250 169 265 157 274 141 c 0
 275 139 277 135 279 131 c 128
 281 127 284 122 287 115 c 128
 290 108 291 101 291 92 c 2
 289 74 l 1
 281 53 l 2
 273 33 257 18 232 8 c 0
 212 1 195 -3 181 -3 c 0
 164 -3 148 -1 134 3 c 128
 120 7 106 12 93 18 c 128
 80 24 68 34 57 45 c 128
 46 56 35 70 26 86 c 0
 11 115 4 144 4 174 c 2
 3 389 l 2
 3 451 17 499 46 533 c 128
 75 567 111 584 156 584 c 0
 174 584 189 582 201 578 c 128
 213 574 222 571 229 568 c 128
 236 565 243 562 250 557 c 0
 262 551 273 543 283 534 c 0
 286 531 290 527 294 524 c 0
 300 518 304 511 310 502 c 1
 326 522 346 541 371 557 c 0
 388 566 403 573 418 577 c 128
 433 581 448 583 464 583 c 0
 508 583 546 566 575 532 c 128
 604 498 620 450 622 386 c 1
 622 107 l 1
 629 100 635 94 640 90 c 128
 645 86 654 80 667 74 c 128
 680 68 696 65 717 65 c 0
 748 65 775 72 796 87 c 128
 817 102 828 123 828 150 c 2
 828 482 l 2
 828 498 825 511 822 520 c 2
 812 540 l 2
 808 550 805 557 804 559 c 128
 803 561 799 570 790 583 c 1
 879 586 l 1
 896 549 905 515 905 482 c 2
 905 125 l 2
 905 106 898 86 881 66 c 128
 864 46 841 29 812 16 c 128
 783 3 751 -3 717 -3 c 0
 666 -3 623 10 586 37 c 1
 557 10 526 -3 495 -3 c 0
 461 -3 432 7 409 29 c 128
 386 51 374 78 374 111 c 0
 374 141 386 166 409 187 c 1
 427 202 l 2
 433 206 441 210 449 212 c 0
 466 218 481 221 496 221 c 0
 504 221 514 218 527 214 c 0
 531 213 537 211 546 207 c 1
 546 364 l 1
EndSplineSet
Fore
SplineSet
150 99 m 3x6fc0
 150 76 165 55 191 55 c 3
 218 55 234 80 234 100 c 3
 234 122 220 141 192 141 c 3
 165 141 150 118 150 99 c 3x6fc0
546 113 m 3
 546 137 519 158 494 158 c 3
 469 158 444 138 444 113 c 3
 444 84 466 65 494 65 c 3x9fc0
 520 65 546 86 546 113 c 3
496 221 m 3
 510 221 530 214 546 207 c 1
 546 364 l 2
 546 432 517 516 463 516 c 3
 414 516 373 469 349 427 c 0
 342 413 329 398 311 398 c 3
 297 398 280 414 275 425 c 0
 249 463 199 517 153 517 c 3
 115 517 79 467 79 402 c 2
 79 197 l 2
 79 170 80 134 95 120 c 1
 105 160 141 183 189 183 c 3
 247 183 291 149 291 92 c 3
 291 34 244 -3 181 -3 c 3x6fc0
 76 -3 4 72 4 174 c 2
 3 389 l 2
 3 498 55 584 156 584 c 3
 223 584 280 547 310 502 c 1
 342 542 393 583 464 583 c 3
 567 583 622 495 622 386 c 2
 622 107 l 1
 645 84 668 65 717 65 c 3
 776 65 828 93 828 150 c 2
 828 482 l 2
 828 511 809 555 790 583 c 1
 879 586 l 1
 896 549 905 515 905 482 c 2
 905 125 l 2
 905 45 801 -3 717 -3 c 3
 666 -3 623 10 586 37 c 1
 557 10 526 -3 495 -3 c 3
 428 -3 374 45 374 111 c 3
 374 172 430 221 496 221 c 3
EndSplineSet
EndChar

StartChar: uni0EAC
Encoding: 3756 3756 69
Width: 645
VWidth: 1063
Flags: W
HStem: -3 44<127.733 206.886> 125 44<125.641 208.666> 316 63<192.646 401.811> 416 65<300.739 434.085> 498 59<68.2283 190.386>
VStem: 1 66<111.99 233.239 445.042 493.924> 213 47<47.1688 119.211> 487 70<95.8483 247.187>
LayerCount: 2
Back
SplineSet
213 85 m 1
 213 101 204 114 186 124 c 1
 176 124 l 1
 167 125 l 1
 153 124 l 1
 142 120 l 1
 134 116 129 110 126 101 c 0
 123 96 121 91 121 85 c 0
 121 67 130 54 148 45 c 1
 157 42 l 1
 166 41 l 2
 175 41 183 43 189 46 c 128
 195 49 201 56 208 66 c 1
 212 77 l 1
 213 85 l 1
324 314 m 1
 252 316 l 1
 224 313 198 307 172 297 c 0
 141 286 115 269 96 247 c 128
 77 225 67 202 67 178 c 2
 67 160 l 2
 68 157 69 154 69 151 c 0
 70 143 71 134 73 126 c 1
 80 111 l 1
 82 116 l 1
 83 120 l 1
 89 129 94 136 97 139 c 2
 105 148 l 1
 118 156 l 2
 121 159 129 163 141 166 c 2
 154 169 l 1
 167 169 l 1
 183 168 l 1
 203 164 l 1
 220 157 233 146 243 130 c 0
 244 128 247 125 249 121 c 128
 251 117 254 112 256 106 c 128
 258 100 260 93 260 85 c 0
 260 74 256 62 250 49 c 0
 240 28 225 15 205 7 c 1
 189 2 l 2
 180 -1 170 -3 160 -3 c 0
 144 -3 130 -2 117 2 c 128
 104 6 92 11 80 17 c 128
 68 23 57 32 47 42 c 128
 37 52 28 64 19 79 c 0
 7 97 1 126 1 167 c 128
 1 208 9 242 26 269 c 128
 43 296 60 315 77 326 c 0
 93 335 112 344 133 353 c 1
 117 359 l 1
 55 385 l 2
 34 395 20 405 12 416 c 0
 3 427 -2 440 -2 457 c 0
 -2 474 0 488 6 499 c 128
 12 510 22 520 36 532 c 128
 50 544 66 552 84 556 c 1
 144 558 l 2
 152 558 160 557 168 554 c 128
 176 551 190 546 209 538 c 2
 356 482 l 1
 366 481 l 1
 372 481 l 2
 393 481 411 487 428 498 c 0
 436 502 446 512 458 527 c 128
 470 542 482 560 493 580 c 1
 563 561 l 1
 527 504 492 463 459 440 c 0
 451 435 443 430 434 426 c 0
 419 419 403 416 387 416 c 2
 371 417 l 1
 366 417 l 1
 356 418 l 2
 344 418 313 426 262 442 c 1
 201 471 l 2
 188 477 176 482 167 486 c 128
 158 490 151 492 146 494 c 128
 141 496 134 497 126 498 c 128
 118 499 115 498 114 498 c 0
 101 498 90 496 82 492 c 128
 74 488 68 481 67 471 c 1
 67 460 71 451 79 446 c 128
 87 441 102 433 126 424 c 1
 171 409 l 1
 233 389 l 1
 268 379 l 1
 283 379 l 2
 313 379 336 378 352 376 c 128
 368 374 379 372 388 369 c 128
 397 366 404 364 409 363 c 128
 414 362 420 360 424 358 c 0
 447 350 466 340 481 329 c 0
 488 325 495 320 501 314 c 128
 507 308 514 302 520 294 c 0
 531 281 540 266 547 249 c 0
 550 241 553 225 556 202 c 128
 559 179 555 146 545 107 c 1
 542 97 l 1
 536 83 l 2
 530 69 522 55 511 41 c 128
 500 27 487 13 471 0 c 1
 364 0 l 1
 432 55 l 1
 445 68 456 82 464 94 c 128
 472 106 478 118 481 128 c 128
 484 138 486 144 487 147 c 2
 487 178 l 2
 487 218 470 252 434 279 c 1
 413 292 391 301 367 307 c 1
 327 314 l 1
 324 314 l 1
EndSplineSet
Fore
SplineSet
121 85 m 3
 121 61 138 41 166 41 c 3
 193 41 213 57 213 85 c 3
 213 108 197 125 167 125 c 3
 141 125 121 111 121 85 c 3
114 498 m 3
 90 498 67 492 67 471 c 3
 67 430 222 392 268 379 c 1
 423 379 557 330 557 186 c 3
 557 103 520 40 471 0 c 1
 364 0 l 1
 419 45 487 81 487 178 c 3
 487 292 372 316 252 316 c 3
 178 316 67 266 67 160 c 3
 67 142 73 125 80 111 c 1
 94 146 118 169 167 169 c 3
 212 169 260 138 260 85 c 0
 260 33 212 -3 160 -3 c 3
 60 -3 1 62 1 167 c 3
 1 276 60 321 133 353 c 1
 82 372 -2 392 -2 457 c 3
 -2 522 56 557 114 557 c 3
 216 557 320 481 372 481 c 3
 436 481 468 534 493 580 c 1
 563 561 l 1
 512 481 466 416 372 416 c 3
 270 416 190 498 114 498 c 3
EndSplineSet
EndChar

StartChar: uni0E8C
Encoding: 3724 3724 70
Width: 665
VWidth: 1063
Flags: W
HStem: -8 64<129.598 304.546> 293 49<100.797 172.504> 410 45<125.395 171.382> 489 70<138.334 269.965 341.551 468.87>
VStem: 23 75<346.635 406.098> 51 77<63.3237 109> 175 60<345.542 405.558> 484 69<-180.855 49.875> 511 73<277.282 444.186>
LayerCount: 2
Back
SplineSet
137 342 m 0
 147 342 155 344 162 349 c 0
 171 356 176 365 175 376 c 0
 175 386 170 394 163 400 c 128
 156 406 145 410 133 410 c 0
 124 410 115 406 108 399 c 128
 101 392 98 385 98 376 c 0
 99 368 102 360 109 352 c 1
 118 345 127 342 137 342 c 0
555 34 m 1
 555 -1 554 -34 553 -64 c 128
 552 -94 554 -121 560 -143 c 128
 566 -165 574 -183 585 -195 c 1
 507 -214 l 1
 497 -180 490 -151 487 -126 c 128
 484 -101 484 -77 484 -55 c 128
 484 -33 485 -9 487 18 c 0
 488 39 474 51 442 54 c 1
 391 40 351 27 322 16 c 128
 293 5 262 -3 231 -6 c 128
 200 -9 175 -8 156 -4 c 128
 137 0 122 4 111 8 c 128
 100 12 86 21 70 34 c 0
 57 45 51 62 51 87 c 1
 49 106 67 121 104 131 c 128
 141 141 176 147 210 149 c 128
 244 151 285 158 331 169 c 128
 377 180 417 199 448 227 c 0
 486 261 507 300 510 342 c 128
 513 384 505 418 488 444 c 128
 471 470 443 485 403 489 c 128
 363 493 330 468 304 416 c 1
 283 453 263 476 246 484 c 128
 229 492 212 496 197 494 c 0
 168 491 144 478 125 454 c 1
 169 458 199 446 216 419 c 1
 231 403 238 387 234 368 c 1
 235 350 227 333 212 319 c 128
 197 305 180 297 159 295 c 1
 140 290 117 293 90 304 c 128
 63 315 44 333 32 359 c 128
 20 385 20 416 33 451 c 128
 46 486 69 513 104 533 c 128
 139 553 167 562 188 562 c 128
 209 562 229 559 249 553 c 1
 274 544 292 531 303 513 c 1
 316 537 348 553 401 559 c 0
 420 560 440 558 461 553 c 128
 482 548 502 535 522 515 c 128
 542 495 558 472 568 444 c 128
 578 416 584 384 584 350 c 128
 584 316 573 280 552 244 c 128
 531 208 503 180 466 161 c 0
 437 146 404 131 368 118 c 128
 332 105 287 96 235 91 c 128
 183 86 150 82 136 78 c 128
 122 74 128 69 150 63 c 128
 172 57 193 54 212 57 c 128
 231 60 251 64 270 68 c 128
 289 72 316 81 351 93 c 128
 386 105 410 113 425 116 c 128
 440 119 452 120 459 120 c 128
 466 120 476 119 488 117 c 128
 500 115 512 108 527 96 c 128
 542 84 551 63 555 34 c 1
EndSplineSet
Fore
SplineSet
175 373 m 3xfa
 175 396 157 410 133 410 c 3
 115 410 98 394 98 376 c 3
 98 357 116 342 137 342 c 3
 158 342 175 354 175 373 c 3xfa
459 120 m 3
 515 120 555 84 555 34 c 3
 555 -7 553 -42 553 -78 c 3
 553 -126 563 -171 585 -195 c 1
 507 -214 l 1
 490 -157 484 -119 484 -55 c 3
 484 -33 487 -7 487 20 c 3
 487 40 473 54 442 54 c 3
 404 54 309 -8 197 -8 c 3
 95 -8 51 37 51 87 c 3xf7
 51 131 165 146 210 149 c 0
 244 151 285 158 331 169 c 0
 423 191 511 257 511 359 c 3
 511 436 475 489 403 489 c 3
 359 489 330 468 304 416 c 1
 276 466 256 495 205 495 c 3
 171 495 145 479 125 454 c 1
 131 455 136 455 141 455 c 3
 187 455 235 422 235 378 c 3
 235 325 195 293 140 293 c 3
 78 293 23 337 23 401 c 3xfa80
 23 486 109 562 188 562 c 3
 239 562 284 544 303 513 c 1
 315 536 355 559 411 559 c 3
 524 559 584 464 584 350 c 3
 584 215 472 156 368 118 c 0
 332 105 287 96 235 91 c 0
 189 87 128 83 128 73 c 3xf680
 128 63 184 56 196 56 c 3
 285 56 389 120 459 120 c 3
EndSplineSet
EndChar

StartChar: uni0EA8
Encoding: 3752 3752 71
Width: 700
VWidth: 1063
Flags: W
HStem: -3 63<148.699 259.206> 132 48<186.736 259.62> 223 52<135.9 239.015> 351 47<144.324 238.705> 509 66<157.637 408.059>
VStem: 3 69<97.9349 259.86 353.717 442.791> 129 55<67.1971 127.439> 243 48<281.319 345.207> 263 57<64.4954 127.768> 503 70<28.0688 430.484>
LayerCount: 2
Back
SplineSet
43 304 m 1
 23 331 7 359 7 400 c 3
 7 520.143738289 161.770802931 575 297 575 c 3
 424.015747055 575 573 512 573 419 c 2
 573 71 l 2
 573 56 563.478515625 32.7333984375 550 0 c 1
 468 0 l 1
 480.903320312 28.4775390625 503 66 503 96 c 2
 503 395 l 2
 503 463 380.742363227 509 301 509 c 3
 187.995575308 509 74.4778406561 480.364961061 74.4778406561 381.714739974 c 3
 74.4778406561 369.56719307 76.9214765296 358.640609351 85 353 c 1
 111 383 141 398 195 398 c 3
 248 398 291 363 291 311 c 3
 291 260 247 223 196 223 c 3
 146.69889376 223 115.88229627 237.958031768 89 261 c 1
 77 242 72 217 72 187 c 3
 72 128 89 81 132 67 c 1
 129 90 l 1
 129 139.140079242 178.692444804 180 226 180 c 3
 275.433647008 180 320 141.399218772 320 90 c 3
 320 40 271 -3 219 -3 c 3
 65.918322455 -3 3 63.9648485767 3 192 c 3
 3 242.74264113 17.879193993 271.028942116 43 304 c 1
191 275 m 3
 216 275 243 285 243 311 c 3
 243 336 224 351 196 351 c 3
 169 351 145 336 124 307 c 1
 145 286 167 275 191 275 c 3
224 60 m 3
 245 60 263 76 263 98 c 3
 263 117 243 132 224 132 c 3
 204 132 184 118 184 98 c 3
 184 73.0460557238 199.119195235 60 224 60 c 3
474 598 m 1
 549 607 l 1
 533.037221516 481.071414181 508.856526496 408.964131624 405 383 c 1
 373 447 l 1
 447.9235562 451.994903747 470.71687303 519.204952722 474 598 c 1
EndSplineSet
Fore
SplineSet
474 598 m 1xfec0
 549 607 l 1
 544 566 538 532 529 502 c 1
 556 479 573 450 573 419 c 2
 573 71 l 2
 573 56 563 33 550 0 c 1
 468 0 l 1
 481 28 503 66 503 96 c 2
 503 395 l 2
 503 408 499 420 491 431 c 1
 471 408 443 393 405 383 c 1
 373 447 l 1
 401 449 421 459 436 475 c 1
 395 496 342 509 301 509 c 3
 188 509 74 481 74 382 c 3
 74 370 77 359 85 353 c 1
 111 383 141 398 195 398 c 3
 248 398 291 363 291 311 c 3xff40
 291 260 247 223 196 223 c 3
 147 223 116 238 89 261 c 1
 77 242 72 217 72 187 c 3
 72 128 89 81 132 67 c 1
 132 67 129 85 129 90 c 3
 129 139 179 180 226 180 c 3
 275 180 320 141 320 90 c 3
 320 40 271 -3 219 -3 c 3
 66 -3 3 64 3 192 c 3
 3 243 18 271 43 304 c 1
 23 331 7 359 7 400 c 3
 7 520 162 575 297 575 c 3
 354 575 416 562 467 539 c 1
 471 557 473 577 474 598 c 1xfec0
224 60 m 3
 245 60 263 76 263 98 c 3xfec0
 263 117 243 132 224 132 c 3
 204 132 184 118 184 98 c 3
 184 73 199 60 224 60 c 3
191 275 m 3
 216 275 243 285 243 311 c 3xff40
 243 336 224 351 196 351 c 3
 169 351 145 336 124 307 c 1
 145 286 167 275 191 275 c 3
EndSplineSet
EndChar

StartChar: uni0EA9
Encoding: 3753 3753 72
Width: 708
VWidth: 1063
Flags: W
HStem: -3 70<166.12 415.042> 254 56<444.761 515> 390 58<78.3213 125.217> 531 58<76.1243 154.186>
VStem: 16 71<129.494 238.648> 17 53<456.172 524.212> 159 69<453.308 525.834> 515 69<146.734 257.118 315 556.504>
LayerCount: 2
Back
SplineSet
87 190 m 3xf6
 87 98 194 67 293 67 c 3
 400 67 515 113 515 210 c 2
 515 484 l 2
 515 528 490 560 475 591 c 1
 561 591 l 1
 568 564 584 543 584 512 c 2
 584 210 l 2
 584 70 445 -3 293 -3 c 3
 156 -3 16 48 16 190 c 3xf6
 16 267 80 311 126 384 c 1
 125 390 117 389 112 390 c 1
 57 390 17 428 17 484 c 3xee
 17 545 52 589 112 589 c 3
 174 589 228 551 228 487 c 3
 228 448 219 415 202 386 c 0
 173 336 87 218 87 190 c 3xf6
159 490 m 3
 159 515 142 531 115 531 c 3
 90 531 70 511 70 490 c 3xee
 70 473 89 448 115 448 c 3
 144 448 159 468 159 490 c 3
440 335 m 1
 461 319 497 309 544 309 c 3
 589 309 636 332 682 376 c 1
 699 363 708 350 708 336 c 3
 708 288 616 252 548 252 c 3
 483 252 429 273 384 296 c 1
 440 336 l 1
 440 335 l 1
EndSplineSet
Fore
SplineSet
159 490 m 3xf7
 159 515 142 531 115 531 c 3
 90 531 70 511 70 490 c 3
 70 473 89 448 115 448 c 3
 144 448 159 468 159 490 c 3xf7
87 190 m 3xfb
 87 98 194 67 293 67 c 3
 400 67 515 113 515 210 c 2
 515 254 l 1
 464 260 421 277 384 296 c 1
 440 336 l 1
 440 335 l 1
 456 322 482 313 515 310 c 1
 515 484 l 2
 515 528 490 560 475 591 c 1
 561 591 l 1
 568 564 584 543 584 512 c 2
 584 315 l 1
 616 324 649 345 682 376 c 1
 699 363 708 350 708 336 c 3
 708 296 644 265 584 255 c 1
 584 210 l 2
 584 70 445 -3 293 -3 c 3
 156 -3 16 48 16 190 c 3xfb
 16 267 80 311 126 384 c 1
 125 390 117 390 112 390 c 3
 57 390 17 428 17 484 c 3xf7
 17 545 52 589 112 589 c 3
 174 589 228 551 228 487 c 3
 228 448 219 415 202 386 c 0
 173 336 87 218 87 190 c 3xfb
EndSplineSet
EndChar

StartChar: uni0EAF
Encoding: 3759 3759 73
Width: 481
VWidth: 1063
Flags: W
HStem: 0 21G<334 413> 349 63<148.218 241.628> 539 67<81.0226 143.522>
VStem: 19 60<468.382 536.582> 146 58<467.445 536.796> 334 79<0 443 525.525 598>
LayerCount: 2
Back
SplineSet
147 415 m 1
 153 413 158 412 162 412 c 0
 250 412 308 474 335 598 c 1
 413 598 l 1
 413 0 l 1
 334 0 l 1
 334 443 l 1
 301 380 251 349 182 349 c 0
 140 349 103 361 72 385 c 0
 37 413 19 450 19 497 c 0
 19 527 28 554 45 575 c 128
 62 596 84 606 111 606 c 256
 138 606 159 597 177 579 c 128
 195 561 204 536 204 505 c 0
 204 463 185 433 147 415 c 1
113 539 m 0
 91 539 79 527 79 503 c 256
 79 479 91 466 113 466 c 0
 135 466 146 479 146 503 c 256
 146 527 135 539 113 539 c 0
EndSplineSet
Fore
SplineSet
111 606 m 259
 167 606 204 563 204 505 c 3
 204 463 185 433 147 415 c 1
 153 413 158 412 162 412 c 3
 250 412 308 474 335 598 c 1
 413 598 l 1
 413 0 l 1
 334 0 l 1
 334 443 l 1
 301 380 251 349 182 349 c 3
 92 349 19 409 19 497 c 3
 19 554 54 606 111 606 c 259
113 539 m 3
 91 539 79 527 79 503 c 259
 79 479 91 466 113 466 c 3
 135 466 146 479 146 503 c 259
 146 527 135 539 113 539 c 3
EndSplineSet
EndChar

StartChar: uni0EA0
Encoding: 3744 3744 74
Width: 783
VWidth: 1059
Flags: W
HStem: -2 48<98.3343 173.275> 127 45<97.6592 153.88> 519 68<327.873 540.121> 528 48<64.6432 142.462>
VStem: 9 51<441.66 521.2> 47 45<52.28 121.095> 154 75<171 445.007> 179 50<52.7072 121.188> 581 75<32.7868 481.798>
LayerCount: 2
Back
SplineSet
136 127 m 0
 124 127 113 123 105 115 c 128
 97 107 92 98 92 87 c 0
 92 76 97 66 105 58 c 128
 113 50 124 46 136 46 c 0
 148 46 158 50 166 58 c 128
 174 66 179 76 179 87 c 0
 179 98 174 107 166 115 c 128
 158 123 148 127 136 127 c 0
43 417 m 0
 32 424 24 433 18 445 c 128
 12 457 9 470 9 486 c 0
 9 501 11 514 15 523 c 0
 22 538 34 551 51 561 c 128
 68 571 89 576 114 576 c 0
 146 576 173 567 195 548 c 1
 203 539 209 530 213 522 c 0
 214 519 215 516 215 512 c 1
 245 537 276 554 307 566 c 128
 338 578 379 585 432 587 c 1
 444 587 l 2
 502 587 553 575 594 550 c 128
 635 525 656 495 656 459 c 2
 656 97 l 1
 657 82 l 1
 657 72 l 1
 653 57 l 1
 652 49 644 30 631 0 c 1
 542 0 l 1
 574 66 l 2
 578 77 581 87 581 97 c 2
 581 435 l 2
 581 460 569 481 544 496 c 128
 519 511 486 519 446 519 c 2
 444 519 l 1
 444 518 l 1
 391 516 356 509 336 501 c 128
 316 493 299 483 283 473 c 128
 267 463 249 446 230 423 c 1
 230 229 l 1
 229 229 l 1
 229 94 l 1
 229 85 l 2
 229 61 220 40 202 23 c 128
 184 6 163 -2 138 -2 c 0
 113 -2 92 6 74 23 c 128
 56 40 47 61 47 85 c 1
 53 148 89 176 154 171 c 1
 153 468 l 1
 151 502 138 522 113 528 c 1
 101 528 89 526 80 522 c 1
 72 516 66 510 62 502 c 1
 60 491 l 1
 60 480 63 472 70 465 c 0
 73 461 78 457 83 455 c 1
 52 410 l 1
 49 412 46 414 43 417 c 0
EndSplineSet
Fore
SplineSet
179 87 m 3xc580
 179 109 158 127 136 127 c 3
 113 127 92 109 92 87 c 3
 92 64 113 46 136 46 c 3
 159 46 179 65 179 87 c 3xc580
52 410 m 1
 28 426 9 447 9 486 c 3
 9 546 53 576 114 576 c 3xda80
 154 576 209 556 215 512 c 1
 276 563 333 587 444 587 c 3
 538 587 656 544 656 459 c 2
 656 97 l 2
 656 50 643 27 631 0 c 1
 542 0 l 1
 558 33 581 61 581 97 c 2
 581 435 l 2
 581 496 507 519 444 519 c 27
 389 519 299 508 229 423 c 1xea80
 229 85 l 2
 229 36 187 -2 138 -2 c 3
 89 -2 47 36 47 85 c 3xe580
 47 143 84 172 140 172 c 0
 145 172 149 171 154 171 c 1
 153 468 l 2
 153 502 133 528 113 528 c 3
 82 528 60 512 60 491 c 3xda80
 60 474 70 460 83 455 c 1
 52 410 l 1
EndSplineSet
EndChar

StartChar: uni0E8F
Encoding: 3727 3727 75
Width: 695
VWidth: 1063
Flags: W
HStem: -3 67<113.943 244.458 376.765 493.978> 245 50<122.978 235.991> 374 53<180.662 251.982> 510 48<182.255 252.498>
VStem: 13 72<91.3088 210.309 325.056 448.734> 258 55<432.388 503.999> 278 71<97.3535 180> 520 65<90.7551 516.032>
LayerCount: 2
Back
SplineSet
236 243 m 1
 218 245 l 1
 190 245 168 243 155 240 c 128
 142 237 128 231 115 219 c 128
 102 207 93 189 86 165 c 1
 79 106 107 72 172 64 c 1
 196 64 216 69 232 78 c 128
 248 87 260 97 268 110 c 128
 276 123 279 146 277 180 c 1
 349 180 l 1
 349 141 l 2
 349 130 356 113 370 92 c 128
 384 71 407 61 438 60 c 128
 469 59 491 72 503 96 c 128
 515 120 521 145 520 171 c 2
 520 439 l 1
 517 459 512 476 507 490 c 0
 505 498 502 506 498 516 c 128
 494 526 487 537 479 548 c 1
 564 548 l 1
 579 507 l 1
 584 487 l 1
 585 466 l 1
 585 148 l 1
 582 123 576 100 568 78 c 128
 560 56 545 37 523 22 c 0
 500 5 476 -3 449 -3 c 0
 408 -4 377 3 357 18 c 128
 337 33 322 51 313 72 c 1
 309 68 305 63 301 59 c 128
 297 55 293 50 288 46 c 2
 275 35 l 1
 257 23 l 2
 250 19 243 16 237 13 c 128
 231 10 222 7 210 3 c 128
 198 -1 184 -3 169 -3 c 0
 133 -2 103 6 79 19 c 128
 55 32 37 53 26 79 c 128
 15 105 11 136 15 173 c 1
 16 206 37 235 77 258 c 1
 71 262 67 266 64 268 c 2
 42 292 l 1
 23 327 l 2
 22 333 21 339 20 346 c 128
 19 353 18 358 17 364 c 2
 17 379 l 1
 18 394 l 1
 18 404 l 1
 22 420 l 2
 25 437 31 452 40 465 c 1
 43 473 52 483 64 498 c 128
 76 513 99 526 131 540 c 128
 163 554 191 560 216 557 c 128
 241 554 263 546 281 533 c 128
 299 520 309 500 312 473 c 128
 315 446 310 425 297 408 c 128
 284 391 265 381 241 376 c 128
 217 371 193 375 168 388 c 1
 153 398 141 411 132 427 c 1
 126 445 l 1
 124 464 l 1
 114 460 107 451 101 439 c 0
 91 418 86 395 86 369 c 0
 86 342 99 323 126 311 c 0
 158 297 196 292 238 297 c 1
 236 243 l 1
216 510 m 0
 205 510 195 506 187 498 c 128
 179 490 175 480 175 469 c 0
 175 458 179 447 187 439 c 128
 195 431 205 427 216 427 c 0
 228 427 238 431 246 439 c 128
 254 447 258 458 258 469 c 0
 258 480 254 490 246 498 c 128
 238 506 228 510 216 510 c 0
EndSplineSet
Fore
SplineSet
124 464 m 1xfd
 97 453 86 405 86 369 c 3
 86 315 150 295 207 295 c 3
 217 295 227 296 238 297 c 1
 236 243 l 1
 236 243 223 245 218 245 c 3
 129 245 85 212 85 148 c 3
 85 99 122 64 172 64 c 3
 231 64 278 94 278 161 c 3
 278 167 277 173 277 180 c 1
 349 180 l 1
 349 141 l 2xfb
 349 100 391 60 441 60 c 3
 495 60 520 112 520 165 c 2
 520 439 l 2
 520 474 502 517 479 548 c 1
 564 548 l 1
 572 522 585 501 585 466 c 2
 585 148 l 2
 585 76 534 -3 441 -3 c 3
 371 -3 333 26 313 72 c 1
 277 36 241 -3 169 -3 c 3
 73 -3 13 48 13 146 c 3
 13 201 26 229 77 258 c 1
 41 282 17 320 17 379 c 3
 17 476 103 558 203 558 c 3
 267 558 313 523 313 458 c 3
 313 405 274 374 221 374 c 3
 165 374 130 410 124 464 c 1xfd
258 469 m 3xfd
 258 492 239 510 216 510 c 3
 194 510 175 491 175 469 c 3
 175 446 193 427 216 427 c 3
 240 427 258 446 258 469 c 3xfd
EndSplineSet
EndChar

StartChar: uni0E98
Encoding: 3736 3736 76
Width: 697
VWidth: 1059
Flags: W
HStem: -3 59<105.924 219.059 394.959 488.77> 70 51<104.73 158.198> 210 48<77.4924 157.048> 439 68<322.732 452.017> 527 63<72.7671 198.061>
VStem: -2 72<129.338 202.583 463.611 522.204> 165 59<128.223 202.359> 267 74<107.476 220> 524 63<90.2656 222.762>
LayerCount: 2
Back
SplineSet
165 166 m 0
 165 178 160 188 151 197 c 128
 142 206 131 210 118 210 c 0
 105 210 94 206 84 197 c 0
 74 189 70 178 70 166 c 0
 70 153 74 142 84 134 c 128
 94 126 105 121 118 121 c 0
 131 121 142 125 151 133 c 128
 160 141 165 153 165 166 c 0
32 54 m 128
 13 76 1 104 -2 138 c 1
 -2 157 0 174 6 188 c 128
 12 202 24 218 44 234 c 128
 64 250 93 258 131 258 c 1
 167 254 192 241 206 221 c 128
 220 201 226 178 224 155 c 128
 222 132 210 111 190 92 c 128
 170 73 141 66 104 72 c 1
 158 46 202 52 232 91 c 1
 249 107 260 127 267 151 c 1
 267 220 l 1
 341 220 l 1
 341 151 l 1
 343 140 349 127 358 111 c 1
 387 73 422 57 462 64 c 1
 483 70 499 83 511 105 c 128
 523 127 527 153 521 183 c 128
 515 213 493 239 454 261 c 128
 415 283 341 309 231 341 c 1
 172 359 l 1
 123 378 l 1
 57 406 l 2
 36 416 20 427 12 439 c 0
 2 450 -2 464 -2 482 c 0
 -2 500 1 515 7 527 c 128
 13 539 23 550 38 563 c 128
 53 576 69 585 87 589 c 1
 151 591 l 2
 159 591 168 590 177 587 c 128
 186 584 201 578 220 569 c 2
 374 508 l 1
 384 507 l 1
 390 507 l 2
 412 507 432 514 449 526 c 0
 457 531 467 542 480 558 c 128
 493 574 506 593 517 614 c 1
 591 594 l 1
 553 532 516 490 481 465 c 0
 473 459 464 453 454 449 c 0
 438 442 423 439 406 439 c 1
 389 440 l 1
 384 440 l 1
 374 441 l 2
 361 441 328 450 274 467 c 1
 210 498 l 2
 197 503 186 509 176 513 c 128
 166 517 159 520 153 522 c 128
 147 524 141 525 133 526 c 128
 125 527 121 527 120 527 c 0
 107 527 95 524 86 520 c 128
 77 516 72 508 71 498 c 1
 71 486 74 477 82 471 c 128
 90 465 106 458 132 447 c 1
 179 431 l 1
 244 410 l 1
 346 380 l 1
 389 362 l 1
 433 343 l 2
 460 330 486 317 512 302 c 1
 566 276 591 221 586 136 c 1
 580 83 564 47 537 27 c 128
 510 7 481 -3 451 -3 c 0
 420 -3 389 6 361 25 c 0
 350 32 340 40 331 48 c 128
 322 56 313 66 304 78 c 1
 288 56 271 38 250 24 c 1
 226 6 198 -3 167 -3 c 0
 140 -3 115 1 93 9 c 128
 71 17 51 32 32 54 c 128
EndSplineSet
Fore
SplineSet
118 121 m 3
 144 121 165 140 165 166 c 3
 165 190 143 210 118 210 c 3
 93 210 70 191 70 166 c 3
 70 140 92 121 118 121 c 3
304 78 m 1
 275 37 231 -3 167 -3 c 3
 78 -3 -2 55 -2 138 c 3
 -2 215 48 258 131 258 c 3
 188 258 224 220 224 164 c 3
 224 115 184 70 129 70 c 0
 121 70 113 71 104 72 c 1
 126 62 146 56 164 56 c 0
 215 56 254 107 267 151 c 1
 267 220 l 1
 341 220 l 1
 341 151 l 1
 350 103 401 62 444 62 c 3
 493 62 524 105 524 156 c 3
 524 207 501 234 454 261 c 0
 389 298 157 364 57 406 c 0
 23 422 -2 439 -2 482 c 3
 -2 542 50 590 117 590 c 3
 224 590 345 507 384 507 c 3
 455 507 490 563 517 614 c 1
 591 594 l 1
 536 503 486 439 384 439 c 3
 290 439 200 527 120 527 c 3
 96 527 73 520 71 498 c 1
 71 464 96 462 132 447 c 0
 260 394 397 358 512 302 c 0
 561 278 587 230 587 157 c 3
 587 59 536 -3 451 -3 c 3
 388 -3 334 38 304 78 c 1
EndSplineSet
EndChar

StartChar: uni0E93
Encoding: 3731 3731 77
Width: 927
VWidth: 1063
Flags: W
HStem: -3 56<148.446 222.963> 134 50<147.126 224.768> 521 65<138.333 336.319 512.502 699.954>
VStem: 3 72<124.396 459.509> 229 56<59.7065 129.805> 390 75<3 474.976> 742 77<27.6975 484.017>
LayerCount: 2
Back
SplineSet
229 96 m 1
 229 112 220 123 203 132 c 1
 194 133 l 1
 186 134 l 1
 172 132 l 1
 161 129 l 2
 154 126 149 120 146 111 c 0
 143 107 142 102 142 96 c 0
 142 79 151 65 168 57 c 1
 175 55 l 1
 185 53 l 1
 194 53 200 55 206 58 c 128
 212 61 218 67 224 77 c 1
 228 88 l 1
 229 96 l 1
742 266 m 1
 741 266 l 1
 741 420 l 1
 739 453 732 474 719 485 c 0
 690 510 646 522 586 521 c 1
 539 516 508 503 492 481 c 128
 476 459 466 438 465 419 c 1
 465 3 l 1
 390 3 l 1
 390 419 l 1
 388 444 377 466 357 485 c 0
 336 505 300 517 249 521 c 1
 189 522 145 510 116 485 c 0
 98 469 86 447 80 419 c 0
 76 401 74 382 75 359 c 2
 75 188 l 1
 76 181 78 173 79 164 c 128
 80 155 81 147 83 138 c 1
 91 121 l 1
 92 127 l 1
 93 131 l 1
 99 141 105 149 109 152 c 2
 118 161 l 1
 132 170 l 2
 135 173 143 176 156 180 c 2
 170 183 l 1
 185 184 l 1
 203 182 l 1
 224 178 l 1
 243 171 257 159 268 142 c 0
 269 140 272 136 274 132 c 128
 276 128 278 123 281 116 c 128
 284 109 285 102 285 93 c 0
 285 81 282 68 275 53 c 0
 264 31 248 16 226 8 c 2
 209 3 l 2
 199 -1 188 -3 177 -3 c 0
 160 -3 145 -1 131 3 c 128
 117 7 104 12 91 19 c 128
 78 26 66 34 55 45 c 128
 44 56 34 70 25 86 c 0
 10 115 3 144 3 174 c 2
 3 357 l 2
 4 402 10 439 20 467 c 0
 21 471 23 475 24 478 c 0
 30 491 38 503 47 512 c 0
 74 541 105 560 138 570 c 128
 171 580 201 585 229 585 c 0
 240 586 251 586 261 586 c 0
 277 586 298 582 324 576 c 1
 355 576 390 558 428 522 c 1
 453 551 483 569 517 576 c 0
 543 582 562 586 575 586 c 128
 588 586 605 585 624 585 c 128
 643 585 668 580 700 570 c 128
 732 560 762 541 789 512 c 0
 798 503 805 489 812 471 c 128
 819 453 821 437 819 422 c 1
 819 103 l 2
 819 82 817 63 814 48 c 128
 811 33 805 16 795 -3 c 1
 701 -3 l 1
 726 37 l 1
 737 61 l 1
 740 84 l 1
 742 104 l 1
 742 266 l 1
EndSplineSet
Fore
SplineSet
229 96 m 3
 229 118 213 134 186 134 c 3
 161 134 142 115 142 96 c 3
 142 77 159 53 185 53 c 3
 212 53 229 75 229 96 c 3
819 103 m 2
 819 55 813 32 795 -3 c 1
 701 -3 l 1
 720 27 742 53 742 104 c 2
 742 420 l 2
 742 502 676 521 593 521 c 3
 548 521 465 497 465 419 c 2
 465 3 l 1
 390 3 l 1
 390 419 l 2
 390 497 297 521 242 521 c 3
 133 521 75 478 75 371 c 2
 75 188 l 2
 75 166 83 138 91 121 c 1
 97 161 147 184 185 184 c 3
 240 184 285 146 285 93 c 3
 285 36 234 -3 177 -3 c 3
 73 -3 3 73 3 174 c 2
 3 357 l 2
 3 509 86 586 229 586 c 3
 315 586 370 577 428 522 c 1
 475 576 534 586 624 586 c 3
 719 586 819 518 819 422 c 2
 819 103 l 2
EndSplineSet
EndChar

StartChar: uni0E8E
Encoding: 3726 3726 78
Width: 899
VWidth: 1063
Flags: W
HStem: -3 66<152.207 267.139 520.72 618.282> 140 47<194.937 267.82> 231 55<139.393 244.775> 364 48<148.327 244.373> 523 67<141.772 339.631>
VStem: 3 71<102.17 269.216 365.584 467.06> 132 59<70.2324 134.197> 249 48<293.083 358.824> 272 56<68.6125 134.632> 415 72<95.1622 457.696> 662 73<107.651 597>
LayerCount: 2
Back
SplineSet
249 322 m 0
 249 333 246 344 238 352 c 128
 230 360 218 364 201 364 c 0
 173 364 149 349 127 319 c 1
 149 297 171 286 195 286 c 0
 208 286 220 288 232 294 c 128
 244 300 249 309 249 322 c 0
272 104 m 0
 272 114 267 122 259 129 c 0
 251 136 242 140 231 140 c 0
 221 140 212 136 204 129 c 128
 196 122 191 114 191 104 c 2
 193 88 l 1
 195 83 198 78 202 74 c 0
 209 67 219 63 231 63 c 0
 242 63 251 67 259 74 c 128
 267 81 272 92 272 104 c 0
487 171 m 2
 486 133 494 106 512 90 c 128
 530 74 551 67 574 67 c 256
 597 67 617 78 635 99 c 128
 653 120 662 144 662 171 c 2
 662 597 l 1
 735 597 l 1
 735 171 l 2
 735 157 732 143 729 128 c 128
 726 113 720 99 713 85 c 0
 700 58 682 36 657 20 c 128
 632 4 605 -3 575 -3 c 0
 528 -3 495 4 476 20 c 128
 457 36 441 55 430 79 c 128
 419 103 414 137 415 183 c 1
 415 400 l 1
 411 426 405 446 396 459 c 128
 387 472 369 485 341 498 c 1
 311 515 279 523 247 523 c 0
 216 523 185 518 155 507 c 128
 125 496 102 477 85 451 c 1
 72 421 72 392 87 365 c 1
 100 381 115 392 130 399 c 0
 148 408 171 412 200 412 c 0
 228 412 250 404 269 387 c 128
 288 370 297 349 297 322 c 256
 297 295 288 274 269 258 c 1
 251 240 229 231 201 231 c 0
 179 231 158 234 138 240 c 0
 132 242 125 246 116 252 c 128
 107 258 99 264 91 270 c 1
 79 251 74 226 74 195 c 0
 74 166 78 142 85 123 c 0
 94 96 111 78 136 70 c 1
 132 93 l 1
 132 118 142 141 162 160 c 1
 184 178 208 187 231 187 c 0
 255 187 278 178 298 161 c 128
 318 144 328 121 328 93 c 0
 328 68 318 46 297 26 c 128
 276 6 252 -3 224 -3 c 2
 202 -3 l 1
 170 -2 l 1
 154 0 l 1
 132 4 l 2
 92 11 60 35 35 75 c 0
 13 111 3 153 3 199 c 0
 3 218 5 235 10 250 c 0
 16 271 28 294 44 316 c 1
 32 332 23 348 17 364 c 128
 11 380 7 397 7 414 c 0
 7 421 7 428 8 435 c 0
 10 459 23 485 45 512 c 1
 65 533 91 551 123 565 c 0
 161 581 202 590 245 590 c 0
 286 590 325 582 364 566 c 128
 403 550 432 529 452 502 c 0
 475 471 487 437 487 400 c 2
 487 171 l 2
EndSplineSet
Fore
SplineSet
195 286 m 3xff60
 221 286 249 296 249 322 c 3
 249 349 231 364 201 364 c 3
 173 364 149 349 127 319 c 1
 149 297 171 286 195 286 c 3xff60
231 63 m 3
 254 63 272 81 272 104 c 3xfee0
 272 123 251 140 231 140 c 3
 212 140 191 123 191 104 c 3
 191 79 205 63 231 63 c 3
44 316 m 1
 24 342 7 373 7 414 c 3
 7 527 128 590 245 590 c 3
 370 590 487 521 487 400 c 2
 487 171 l 2
 487 106 516 67 574 67 c 259
 622 67 662 122 662 171 c 2
 662 597 l 1
 735 597 l 1
 735 171 l 2
 735 76 670 -3 575 -3 c 3
 461 -3 415 54 415 183 c 2
 415 400 l 2
 415 469 334 523 247 523 c 3
 167 523 75 491 75 408 c 3
 75 393 79 379 87 365 c 1
 113 397 144 412 200 412 c 3
 254 412 297 376 297 322 c 259xff60
 297 269 253 231 201 231 c 3
 150 231 120 248 91 270 c 1
 79 251 74 226 74 195 c 3
 74 133 91 85 136 70 c 1
 136 70 132 87 132 93 c 3
 132 144 182 187 231 187 c 3
 282 187 328 146 328 93 c 3
 328 41 277 -3 224 -3 c 3
 71 -3 3 57 3 199 c 3
 3 252 18 281 44 316 c 1
EndSplineSet
EndChar

